<svg width="541" height="391" viewBox="0 0 541 391" fill="none" xmlns="http://www.w3.org/2000/svg">
<circle cx="38" cy="38" r="38" transform="matrix(1 0 0 -1 0.450195 388.25)" fill="#FF3618"/>
<path d="M76.4502 312.25V389.25C136.95 395.75 156.45 366.75 153.95 312.25H76.4502Z" fill="#FB6D2B"/>
<path d="M199.66 312.25H154.16V359.75C154.16 376.319 167.591 389.75 184.16 389.75H229.66V342.25C229.66 325.681 216.228 312.25 199.66 312.25Z" fill="#FDAC6A"/>
<path d="M305.16 389.75H229.66V362.25C229.66 334.636 252.046 312.25 279.66 312.25H305.16V389.75Z" fill="#FEDCB7"/>
<path d="M380.66 389.75H305.16V372.25C305.16 339.113 332.023 312.25 365.16 312.25H380.66V389.75Z" fill="#70AEA3"/>
<circle cx="38" cy="38" r="38" transform="matrix(1 0 0 -1 380.66 388.25)" fill="#018C9F"/>
<path d="M0.950195 272.25C0.950195 293.237 17.9634 310.25 38.9502 310.25C59.937 310.25 76.9502 293.237 76.9502 272.25C76.9502 251.263 59.937 234.25 38.9502 234.25C31.1863 234.25 9.4502 234.25 0.450195 234.25C0.450195 241.25 0.950195 259.027 0.950195 272.25Z" fill="#046C91"/>
<path d="M192.95 234.25C215.042 234.25 232.95 252.159 232.95 274.25V312.25H116.95C94.8588 312.25 76.9502 294.341 76.9502 272.25V234.25H192.95Z" fill="#001E50"/>
<path d="M308.45 311.75H232.95V309.25C232.95 267.829 267.029 234.25 308.45 234.25V311.75Z" fill="#FCAD6A"/>
<path d="M343.95 234.25H308.45V271.75C308.45 293.841 326.359 311.75 348.45 311.75H383.95V274.25C383.95 252.159 366.042 234.25 343.95 234.25Z" fill="#FF3618"/>
<path d="M383.95 234.25H459.45V281.75C459.45 298.319 446.019 311.75 429.45 311.75H383.95V234.25Z" fill="#026C94"/>
<rect width="78" height="155.9" rx="39" transform="matrix(1 0 0 -1 459.45 390.15)" fill="#FF3618"/>
<path d="M7.62939e-06 157H78V158C78 199.421 44.4214 233 3 233H7.62939e-06V157Z" fill="#70AEA3"/>
<circle cx="38" cy="38" r="38" transform="matrix(1 0 0 -1 74.0387 232.75)" fill="#FFAA69"/>
<path d="M150.539 194.75C150.539 215.737 167.552 232.75 188.539 232.75C209.526 232.75 226.539 215.737 226.539 194.75C226.539 173.763 209.526 156.75 188.539 156.75C180.775 156.75 159.039 156.75 150.039 156.75C150.039 163.75 150.539 181.527 150.539 194.75Z" fill="#FB6D2B"/>
<path d="M227.039 194.75C227.039 173.763 244.052 156.75 265.039 156.75C286.026 156.75 303.039 173.763 303.039 194.75C303.039 215.737 286.026 232.75 265.039 232.75C257.275 232.75 235.539 232.75 226.539 232.75C226.539 225.75 227.039 207.973 227.039 194.75Z" fill="#026C94"/>
<path d="M378.539 156.75H303.039V184.25C303.039 211.864 325.424 234.25 353.039 234.25H378.539V156.75Z" fill="#011F51"/>
<path d="M419 157.15H379V194.15C379 216.242 396.909 234.15 419 234.15H459V197.15C459 175.059 441.091 157.15 419 157.15Z" fill="#FF3618"/>
<circle cx="38" cy="38" r="38" transform="matrix(1 0 0 -1 460 232.75)" fill="#70AEA3"/>
<path d="M39.4502 78.75C17.9111 78.75 0.450195 96.2109 0.450195 117.75C0.450195 139.289 17.9111 156.75 39.4502 156.75H116.45C138.542 156.75 156.45 138.841 156.45 116.75V78.75H39.4502Z" fill="#FF3618"/>
<path d="M232.45 116.75C232.45 95.7632 215.437 78.75 194.45 78.75C173.463 78.75 156.45 95.7632 156.45 116.75C156.45 137.737 173.463 154.75 194.45 154.75C202.214 154.75 223.95 154.75 232.95 154.75C232.95 147.75 232.45 129.973 232.45 116.75Z" fill="#FFDCB2"/>
<path d="M232.95 118.75C232.95 138.08 248.62 153.75 267.95 153.75H273.95C293.28 153.75 308.95 138.08 308.95 118.75V78.75H232.95V118.75Z" fill="#70AEA3"/>
<circle cx="38" cy="38" r="38" transform="matrix(1 0 0 -1 308.95 154.75)" fill="#FDAC6A"/>
<path d="M423.95 78.75C402.411 78.75 384.95 96.2109 384.95 117.75C384.95 139.289 402.411 156.75 423.95 156.75H500.95C523.042 156.75 540.95 138.841 540.95 116.75V78.75H423.95Z" fill="#FFDCB2"/>
<circle cx="38" cy="38" r="38" transform="matrix(1 0 0 -1 0.450195 76.8496)" fill="black"/>
<path d="M76.4502 0.849579V76.7705C124.278 78.7843 154.485 42.0323 154.485 0.849579H76.4502Z" fill="#FEDCB7"/>
<path d="M229.985 0.849579H154.485V43.3496C154.485 62.6795 170.155 78.3496 189.485 78.3496H229.985V0.849579Z" fill="#001E50"/>
<path d="M268.95 1.15042H230.45V38.1504C230.45 60.2418 248.359 78.1504 270.45 78.1504H308.95V41.1504C308.95 19.059 291.042 1.15042 268.95 1.15042Z" fill="#FF3618"/>
<path d="M385.195 0.849571V77.8496C324.695 84.3496 305.195 55.3496 307.695 0.849571H385.195Z" fill="#018E98"/>
<circle cx="38" cy="38" r="38" transform="matrix(1 0 0 -1 387.195 76.8496)" fill="#006B8D"/>
<path d="M463.695 38.8496C463.695 59.8364 480.708 76.8496 501.695 76.8496C522.682 76.8496 539.695 59.8364 539.695 38.8496C539.695 17.8628 522.682 0.849588 501.695 0.849588C493.931 0.849588 472.195 0.849567 463.195 0.849585C463.195 7.84959 463.695 25.6267 463.695 38.8496Z" fill="#001E50"/>
</svg>
