<svg width="606" height="450" viewBox="0 0 606 450" fill="none" xmlns="http://www.w3.org/2000/svg">
<g clip-path="url(#clip0_601_698)">
<path d="M510.371 170.72C510.371 170.72 515.264 178.94 521.404 178.845V157.098L510.687 150.336L510.371 170.72ZM524.214 159.589V180.5C524.214 180.5 530.249 189.239 535.346 189.239C540.443 189.239 546.478 180.5 546.478 180.5V159.589H524.214ZM560.005 150.329L549.288 157.098V178.845C555.428 178.95 560.317 170.73 560.317 170.73L560.005 150.329Z" fill="#9EA2A7"/>
<path d="M510.371 167.601C510.371 167.601 515.261 175.817 521.401 175.715V153.968L510.684 147.207L510.371 167.601Z" fill="url(#paint0_linear_601_698)"/>
<path d="M524.213 156.466V177.38C524.213 177.38 530.248 186.12 535.345 186.12C540.441 186.12 546.476 177.38 546.476 177.38V156.466H524.213Z" fill="url(#paint1_linear_601_698)"/>
<path opacity="0.2" d="M526 170.374C528.822 171.363 531.785 171.887 534.774 171.927C534.886 171.93 534.992 171.977 535.069 172.058C535.147 172.139 535.189 172.246 535.189 172.358L535.015 183.48C535.015 184.108 533.809 184.115 533.296 183.755C530.761 181.991 525.6 177.462 525.586 174.845V170.656C525.587 170.607 525.599 170.558 525.622 170.515C525.646 170.471 525.679 170.434 525.72 170.407C525.76 170.379 525.807 170.362 525.856 170.356C525.905 170.35 525.954 170.356 526 170.374Z" fill="white"/>
<path d="M560.004 147.207L549.287 153.968V175.715C555.427 175.817 560.317 167.601 560.317 167.601L560.004 147.207Z" fill="url(#paint2_linear_601_698)"/>
<path d="M521.313 162.97C521.313 162.97 508.625 166.344 497.527 153.659C497.435 153.553 497.368 153.427 497.332 153.291C497.295 153.155 497.29 153.013 497.317 152.874C497.344 152.736 497.402 152.606 497.486 152.494C497.571 152.381 497.68 152.289 497.806 152.225L502.318 149.911C502.318 149.911 492.216 142.038 492.885 129.836C492.898 129.66 492.952 129.489 493.044 129.338C493.136 129.186 493.262 129.059 493.414 128.967C493.565 128.875 493.736 128.82 493.912 128.808C494.089 128.795 494.265 128.825 494.428 128.895L499.865 131.172C499.929 131.613 497.69 115.959 508.543 105.898C508.664 105.785 508.809 105.701 508.967 105.652C509.125 105.603 509.292 105.591 509.456 105.616C509.62 105.642 509.775 105.704 509.911 105.798C510.048 105.892 510.161 106.015 510.242 106.159L519.301 122.188L521.313 162.97Z" fill="#7A7F85"/>
<path d="M522.355 162.8C521.675 162.691 509.541 165.47 499.103 153.669C499.023 153.578 498.964 153.47 498.93 153.353C498.896 153.237 498.887 153.114 498.905 152.994C498.922 152.873 498.965 152.758 499.031 152.656C499.097 152.554 499.184 152.467 499.286 152.402L503.136 149.962C503.136 149.962 493.323 141.369 493.914 130.842C493.921 130.723 493.955 130.607 494.013 130.503C494.072 130.399 494.154 130.31 494.252 130.242C494.351 130.175 494.464 130.131 494.582 130.115C494.7 130.098 494.82 130.108 494.934 130.146L500.336 131.845C500.336 131.845 498.505 117.373 508.593 107.682C508.688 107.593 508.802 107.526 508.925 107.485C509.049 107.444 509.18 107.43 509.309 107.445C509.439 107.46 509.563 107.503 509.674 107.571C509.785 107.639 509.88 107.73 509.953 107.838L518.865 121.437L522.355 162.8Z" fill="url(#paint3_linear_601_698)"/>
<path d="M508.671 153.455C509.667 153.099 504.471 143.601 504.471 143.601C498.817 140.485 495.667 136.765 494.084 134.352C495.443 143.217 503.136 149.983 503.136 149.983C503.136 149.983 507.652 153.812 508.671 153.455ZM522.355 162.8L521.675 156.079C517.227 157.234 507.886 158.824 500.136 154.798C510.336 165.287 521.713 162.694 522.355 162.8Z" fill="#8C9196"/>
<path d="M549.379 162.97C549.379 162.97 562.067 166.344 573.164 153.659C573.257 153.553 573.324 153.427 573.36 153.291C573.396 153.155 573.401 153.013 573.374 152.874C573.348 152.736 573.29 152.606 573.205 152.494C573.12 152.381 573.011 152.289 572.886 152.225L568.373 149.911C568.373 149.911 578.475 142.038 577.806 129.836C577.796 129.659 577.744 129.486 577.653 129.333C577.563 129.18 577.436 129.051 577.285 128.957C577.134 128.863 576.963 128.807 576.786 128.793C576.608 128.779 576.43 128.809 576.267 128.878L570.854 131.155C570.789 131.596 573.029 115.942 562.176 105.881C562.055 105.768 561.91 105.684 561.751 105.635C561.593 105.586 561.426 105.574 561.263 105.599C561.099 105.625 560.943 105.687 560.807 105.781C560.671 105.875 560.558 105.998 560.477 106.142L551.418 122.171L549.379 162.97Z" fill="#7A7F85"/>
<path d="M548.336 162.8C549.016 162.691 561.15 165.47 571.588 153.669C571.668 153.578 571.727 153.47 571.761 153.353C571.795 153.237 571.804 153.114 571.786 152.994C571.769 152.873 571.726 152.758 571.66 152.656C571.594 152.554 571.507 152.467 571.405 152.402L567.555 149.962C567.555 149.962 577.368 141.369 576.777 130.842C576.77 130.723 576.736 130.607 576.678 130.503C576.619 130.399 576.537 130.31 576.439 130.242C576.34 130.175 576.227 130.131 576.109 130.115C575.991 130.098 575.871 130.108 575.757 130.146L570.355 131.845C570.355 131.845 572.186 117.373 562.098 107.682C562.003 107.593 561.889 107.526 561.766 107.485C561.642 107.444 561.511 107.43 561.382 107.445C561.252 107.46 561.128 107.503 561.017 107.571C560.906 107.639 560.811 107.73 560.738 107.838L551.846 121.447L548.336 162.8Z" fill="url(#paint4_linear_601_698)"/>
<path d="M562.036 153.455C561.041 153.099 566.236 143.601 566.236 143.601C571.89 140.489 575.023 136.768 576.607 134.356C575.265 143.221 567.555 149.986 567.555 149.986C567.555 149.986 563.039 153.812 562.036 153.455ZM548.336 162.8L549.016 156.079C553.463 157.234 562.804 158.824 570.555 154.798C560.354 165.287 548.978 162.694 548.336 162.8Z" fill="#8C9196"/>
<path d="M535.345 170.071C552.948 170.071 567.218 155.801 567.218 138.199C567.218 120.596 552.948 106.326 535.345 106.326C517.743 106.326 503.473 120.596 503.473 138.199C503.473 155.801 517.743 170.071 535.345 170.071Z" fill="url(#paint5_linear_601_698)"/>
<path d="M535.345 168.61C552.141 168.61 565.757 154.994 565.757 138.199C565.757 121.403 552.141 107.787 535.345 107.787C518.549 107.787 504.934 121.403 504.934 138.199C504.934 154.994 518.549 168.61 535.345 168.61Z" fill="url(#paint6_linear_601_698)"/>
<path opacity="0.5" d="M535.345 157.213C528.268 157.213 521.412 154.745 515.958 150.234C510.504 145.724 506.794 139.452 505.467 132.5C504.633 136.896 504.779 141.422 505.894 145.755C507.01 150.088 509.068 154.121 511.921 157.567C514.775 161.013 518.354 163.788 522.403 165.692C526.452 167.596 530.871 168.583 535.345 168.583C539.819 168.583 544.239 167.596 548.287 165.692C552.336 163.788 555.915 161.013 558.769 157.567C561.622 154.121 563.68 150.088 564.796 145.755C565.912 141.422 566.058 136.896 565.223 132.5C563.896 139.452 560.186 145.724 554.732 150.234C549.278 154.745 542.423 157.213 535.345 157.213Z" fill="url(#paint7_linear_601_698)"/>
<path d="M535.346 164.193C549.702 164.193 561.34 152.555 561.34 138.199C561.34 123.842 549.702 112.204 535.346 112.204C520.99 112.204 509.352 123.842 509.352 138.199C509.352 152.555 520.99 164.193 535.346 164.193Z" fill="url(#paint8_linear_601_698)"/>
<path d="M535.346 162.195C548.599 162.195 559.342 151.451 559.342 138.199C559.342 124.946 548.599 114.202 535.346 114.202C522.093 114.202 511.35 124.946 511.35 138.199C511.35 151.451 522.093 162.195 535.346 162.195Z" fill="url(#paint9_linear_601_698)"/>
<path opacity="0.2" d="M535.346 129.031C540.414 129.031 545.352 130.635 549.453 133.614C553.554 136.593 556.606 140.793 558.173 145.613C559.34 142.012 559.639 138.186 559.045 134.448C558.45 130.709 556.98 127.164 554.754 124.103C552.528 121.041 549.609 118.55 546.236 116.832C542.863 115.114 539.131 114.219 535.346 114.219C531.561 114.219 527.829 115.114 524.456 116.832C521.083 118.55 518.164 121.041 515.938 124.103C513.712 127.164 512.241 130.709 511.647 134.448C511.053 138.186 511.351 142.012 512.519 145.613C514.085 140.793 517.138 136.593 521.239 133.614C525.339 130.635 530.278 129.031 535.346 129.031Z" fill="#7A7F85"/>
<path d="M535.346 112.446C542.212 112.419 548.807 115.12 553.682 119.955C558.557 124.79 561.311 131.363 561.34 138.229V138.137C561.34 123.781 549.702 112.021 535.346 112.021C520.989 112.021 509.352 123.798 509.352 138.137V138.229C509.38 131.363 512.135 124.79 517.01 119.955C521.884 115.12 528.48 112.419 535.346 112.446Z" fill="#9EA2A7"/>
<path d="M535.344 163.01C521.144 163.01 509.605 151.869 509.354 137.726V138.199C509.354 145.093 512.092 151.704 516.967 156.579C521.842 161.454 528.454 164.193 535.348 164.193C542.242 164.193 548.854 161.454 553.728 156.579C558.603 151.704 561.342 145.093 561.342 138.199V137.726C561.084 151.869 549.544 163.01 535.344 163.01Z" fill="#B0B4B9"/>
<path d="M535.346 164.013C542.212 164.04 548.807 161.339 553.682 156.504C558.557 151.668 561.311 145.095 561.34 138.229V138.321C561.34 152.677 549.702 164.485 535.346 164.485C520.989 164.485 509.352 152.681 509.352 138.321V138.229C509.38 145.095 512.135 151.668 517.01 156.504C521.884 161.339 528.48 164.04 535.346 164.013Z" fill="white"/>
<path opacity="0.5" d="M508.815 126.992C508.92 126.652 509.035 126.313 509.154 125.973C509.273 125.633 509.409 125.314 509.545 124.987C509.681 124.661 509.831 124.338 509.98 124.016C510.13 123.693 510.293 123.377 510.459 123.061C511.126 121.798 511.897 120.592 512.763 119.456C512.977 119.17 513.201 118.888 513.443 118.613C513.684 118.338 513.905 118.066 514.143 117.797C514.38 117.529 514.628 117.267 514.88 117.009C515.131 116.751 515.383 116.496 515.644 116.251C516.168 115.753 516.709 115.277 517.269 114.824C517.829 114.369 518.404 113.934 519.005 113.533C519.604 113.13 520.223 112.758 520.86 112.418C521.18 112.249 521.503 112.079 521.829 111.936C522.155 111.793 522.485 111.637 522.818 111.498C524.144 110.951 525.506 110.497 526.895 110.138C528.275 109.784 529.68 109.537 531.098 109.401C531.805 109.333 532.515 109.289 533.222 109.275C533.929 109.262 534.639 109.275 535.342 109.32C535.504 109.32 535.658 109.384 535.772 109.498C535.886 109.612 535.951 109.766 535.951 109.928C535.951 110.089 535.886 110.244 535.772 110.358C535.658 110.472 535.504 110.536 535.342 110.536L534.323 110.618C533.983 110.652 533.643 110.686 533.304 110.73C532.624 110.815 531.972 110.92 531.316 111.052C530.005 111.312 528.713 111.66 527.449 112.096C526.196 112.533 524.979 113.068 523.81 113.696C523.517 113.852 523.229 114.015 522.943 114.175C522.658 114.335 522.372 114.515 522.09 114.675C521.524 115.01 520.966 115.359 520.415 115.721C519.868 116.085 519.321 116.455 518.791 116.846C518.526 117.043 518.264 117.244 518.006 117.447C517.748 117.651 517.49 117.859 517.238 118.073C516.735 118.501 516.243 118.942 515.767 119.405C515.291 119.867 514.826 120.339 514.377 120.828C513.48 121.818 512.644 122.862 511.876 123.954C511.492 124.502 511.122 125.066 510.768 125.653C510.415 126.241 510.089 126.816 509.749 127.414C509.69 127.533 509.587 127.624 509.462 127.67C509.337 127.716 509.199 127.713 509.077 127.661C508.954 127.609 508.856 127.513 508.802 127.391C508.749 127.269 508.743 127.131 508.787 127.006L508.815 126.992Z" fill="white"/>
<path opacity="0.3" d="M554.884 159.293C554.798 159.456 554.704 159.615 554.602 159.769L554.445 159.993L554.279 160.214L554.109 160.428L553.932 160.635L553.749 160.839L553.559 161.036C553.042 161.554 552.472 162.016 551.86 162.416C551.254 162.82 550.608 163.162 549.933 163.435C549.767 163.503 549.593 163.568 549.423 163.625L549.162 163.71L548.9 163.785L548.635 163.853L548.363 163.911C548.183 163.945 548.003 163.975 547.816 163.992C547.688 164.003 547.56 163.962 547.462 163.878C547.364 163.795 547.303 163.676 547.293 163.547C547.287 163.474 547.297 163.4 547.323 163.332C547.348 163.263 547.389 163.201 547.442 163.15L547.646 162.976L547.85 162.81L548.258 162.494L548.669 162.191C548.805 162.09 548.944 161.994 549.08 161.896C549.627 161.505 550.174 161.131 550.721 160.758C551.268 160.384 551.815 160.01 552.376 159.643L552.801 159.371L553.232 159.099C553.379 159.011 553.525 158.923 553.674 158.838L553.902 158.709L554.14 158.583C554.203 158.553 554.271 158.536 554.34 158.532C554.41 158.528 554.48 158.539 554.545 158.562C554.611 158.585 554.671 158.621 554.723 158.668C554.775 158.715 554.817 158.771 554.846 158.834C554.886 158.903 554.91 158.98 554.917 159.059C554.923 159.139 554.912 159.219 554.884 159.293Z" fill="white"/>
<path d="M535.325 177.598C535.202 177.597 535.081 177.571 534.97 177.519C534.86 177.467 534.761 177.392 534.682 177.299L525.008 165.773C524.882 165.621 524.812 165.43 524.811 165.233C524.784 164.574 524.791 163.913 524.832 163.255L528.909 157.682C528.983 157.549 529.093 157.439 529.225 157.364C529.357 157.288 529.508 157.25 529.66 157.254H540.951C540.975 157.253 540.999 157.253 541.023 157.254C541.17 157.256 541.314 157.296 541.441 157.372C541.567 157.447 541.671 157.554 541.743 157.682L545.841 163.163C545.936 163.241 545.882 164.611 545.868 164.74C545.892 165.025 545.845 165.312 545.732 165.576C545.666 165.685 545.592 165.789 545.512 165.888L535.963 177.288C535.845 177.438 535.678 177.541 535.491 177.581C535.436 177.591 535.38 177.597 535.325 177.598Z" fill="#7A7F85"/>
<path d="M535.319 175.95C535.197 175.95 535.076 175.924 534.965 175.872C534.855 175.82 534.757 175.745 534.68 175.651L525.002 164.125C524.894 163.994 524.828 163.834 524.812 163.664C524.796 163.495 524.832 163.326 524.914 163.177L528.893 156.041C528.967 155.909 529.076 155.799 529.208 155.724C529.339 155.649 529.489 155.61 529.641 155.613H541.024C541.171 155.614 541.316 155.654 541.443 155.729C541.57 155.805 541.675 155.912 541.747 156.041L545.601 162.806C545.818 163.218 546.036 163.71 545.757 164.026C545.618 164.2 535.968 175.651 535.968 175.651C535.846 175.797 535.68 175.898 535.495 175.94C535.437 175.95 535.378 175.953 535.319 175.95Z" fill="url(#paint10_linear_601_698)"/>
<path d="M535.219 171.529C535.142 171.529 535.066 171.512 534.996 171.479C534.926 171.446 534.864 171.398 534.815 171.339L528.698 164.057C528.62 163.961 528.577 163.841 528.576 163.717C528.577 163.627 528.6 163.538 528.644 163.459L531.159 158.946C531.205 158.863 531.274 158.793 531.357 158.745C531.44 158.697 531.535 158.673 531.631 158.675H538.824C538.918 158.676 539.009 158.701 539.089 158.749C539.169 158.797 539.235 158.865 539.28 158.946L541.685 163.265C541.778 163.392 541.826 163.546 541.822 163.703C541.818 163.859 541.761 164.01 541.662 164.132L535.627 171.335C535.552 171.429 535.446 171.493 535.328 171.515C535.292 171.525 535.256 171.53 535.219 171.529ZM529.738 163.653L535.212 170.177L540.683 163.642L538.502 159.731H535.324C535.279 159.738 535.234 159.738 535.189 159.731C535.159 159.735 535.13 159.735 535.1 159.731H531.923L529.738 163.653Z" fill="white"/>
<path d="M533.005 163.714H529.107L531.622 159.201L532.645 161.223L533.005 163.714ZM537.436 163.714H541.337L538.819 159.201L537.66 161.165L537.436 163.714Z" fill="#2E3E70"/>
<path d="M533.008 163.714L534.547 161.424L535.22 159.201H531.625L533.008 163.714Z" fill="url(#paint11_linear_601_698)"/>
<path d="M537.431 163.714L535.79 161.621L535.219 159.201H538.817L537.431 163.714Z" fill="url(#paint12_linear_601_698)"/>
<path d="M537.432 163.714L535.22 159.201L533.008 163.714H537.432Z" fill="#0C60E7"/>
<path d="M537.455 163.673L541.332 163.714L535.219 170.999L535.66 166.31L537.455 163.673Z" fill="#1A2277"/>
<path d="M533.005 163.714H529.107L535.22 170.999L535.112 170.567L533.005 163.714Z" fill="#1A2277"/>
<path d="M537.432 163.714L535.22 170.999L533.008 163.714H537.432Z" fill="url(#paint13_linear_601_698)"/>
<path opacity="0.5" d="M522.783 149.782C522.822 148.384 523.316 147.038 524.19 145.946C525.129 144.668 526.471 143.743 527.999 143.319C528.913 142.565 529.725 141.879 530.422 141.281C531.169 140.635 532.121 139.735 533.198 138.606C534.134 137.659 535.005 136.648 535.804 135.582C535.906 135.446 536.001 135.307 536.096 135.168L535.322 135.297C534.772 135.387 534.217 135.434 533.66 135.436C531.621 135.436 529.885 134.757 528.634 133.438C527.422 132.185 526.75 130.506 526.766 128.763C526.766 126.52 527.761 124.464 529.64 122.813C531.462 121.216 533.908 120.407 536.912 120.407C539.831 120.407 542.349 121.138 544.363 122.572C546.606 124.165 547.792 126.649 547.792 129.751C547.792 132.633 546.538 135.708 544.054 138.888C543.014 140.21 541.85 141.43 540.578 142.531C543.065 142.239 544.088 141.923 544.479 141.756L547.894 140.322L547.7 144.019C547.578 146.371 546.932 148.27 545.791 149.667C545.192 150.42 544.429 151.026 543.559 151.438C542.69 151.851 541.737 152.058 540.775 152.045C540.459 152.045 539.875 152.015 536.888 151.644C534.921 151.399 532.941 151.277 530.959 151.277C529.208 151.261 527.466 151.505 525.787 152.001L522.783 152.925V149.782ZM536.874 128.012C536.739 128.005 536.603 128.029 536.479 128.083C536.354 128.137 536.243 128.218 536.154 128.321C536.076 128.402 535.835 128.661 535.835 129.527C535.835 129.942 535.923 130.591 536.691 131.481L537.523 132.439C537.868 131.595 538.05 130.694 538.06 129.782C538.06 128.953 537.836 128.61 537.639 128.406C537.551 128.285 537.436 128.187 537.303 128.119C537.17 128.05 537.024 128.014 536.874 128.012Z" fill="#7A7F85"/>
<path d="M524.665 149.782C524.708 148.788 525.071 147.834 525.701 147.064C526.481 146.02 527.614 145.295 528.888 145.025C529.928 144.165 530.859 143.384 531.654 142.701C532.45 142.018 533.418 141.08 534.549 139.911C535.547 138.901 536.474 137.823 537.326 136.687C538.068 135.657 538.689 134.545 539.177 133.374C539.667 132.239 539.923 131.018 539.932 129.782C539.959 129.296 539.891 128.81 539.73 128.351C539.569 127.892 539.319 127.47 538.994 127.108C538.729 126.803 538.401 126.558 538.034 126.389C537.667 126.22 537.268 126.132 536.863 126.129C536.478 126.123 536.095 126.197 535.74 126.347C535.384 126.498 535.065 126.721 534.801 127.002C534.22 127.594 533.938 128.419 533.938 129.527C533.965 130.717 534.435 131.853 535.256 132.714L535.769 133.306L534.998 133.435C534.549 133.51 534.094 133.548 533.639 133.55C532.106 133.55 530.873 133.075 529.976 132.133C529.537 131.689 529.191 131.162 528.958 130.583C528.725 130.003 528.609 129.384 528.617 128.759C528.617 127.06 529.368 125.524 530.849 124.226C532.331 122.928 534.342 122.289 536.877 122.289C539.412 122.289 541.536 122.901 543.238 124.104C544.94 125.307 545.871 127.244 545.871 129.748C545.871 132.201 544.753 134.886 542.545 137.73C540.608 140.227 537.822 142.602 534.247 144.804C536.35 144.785 538.45 144.659 540.54 144.427C542.742 144.176 544.308 143.863 545.188 143.489L545.837 143.217L545.8 143.917C545.698 145.858 545.195 147.39 544.312 148.467C543.891 149.007 543.35 149.441 542.733 149.736C542.116 150.03 541.438 150.178 540.754 150.166C540.523 150.166 539.894 150.125 537.098 149.775C535.054 149.524 532.997 149.398 530.937 149.398C528.994 149.385 527.06 149.661 525.198 150.217L524.631 150.394L524.665 149.782Z" fill="#C1C6CA"/>
<path d="M533.66 133.112C532.246 133.112 531.13 132.685 530.313 131.831C529.917 131.427 529.605 130.949 529.395 130.424C529.185 129.899 529.081 129.338 529.089 128.773C529.089 127.187 529.784 125.786 531.172 124.569C532.561 123.353 534.474 122.744 536.911 122.741C539.351 122.741 541.39 123.32 543.028 124.478C544.665 125.635 545.482 127.397 545.478 129.762C545.478 132.124 544.399 134.695 542.243 137.475C540.086 140.254 536.899 142.85 532.681 145.263H533.377C535.794 145.266 538.21 145.133 540.612 144.865C542.877 144.607 544.468 144.283 545.386 143.894C545.286 145.749 544.823 147.182 543.996 148.192C543.614 148.677 543.125 149.067 542.566 149.33C542.008 149.593 541.395 149.722 540.778 149.707C540.434 149.707 539.233 149.579 537.176 149.323C535.118 149.069 533.046 148.942 530.972 148.943C528.985 148.929 527.007 149.214 525.104 149.786C525.148 148.888 525.482 148.028 526.055 147.336C526.796 146.347 527.877 145.669 529.089 145.433C530.186 144.527 531.136 143.734 531.94 143.054C532.744 142.375 533.72 141.436 534.866 140.237C535.877 139.212 536.817 138.118 537.679 136.965C538.444 135.91 539.082 134.77 539.582 133.567C540.101 132.378 540.375 131.096 540.387 129.799C540.439 128.706 540.058 127.636 539.327 126.822C539.021 126.474 538.644 126.194 538.222 126.002C537.8 125.809 537.341 125.708 536.877 125.704C536.432 125.7 535.991 125.789 535.581 125.964C535.172 126.14 534.803 126.398 534.499 126.724C533.843 127.403 533.513 128.338 533.513 129.558C533.544 130.851 534.051 132.088 534.937 133.03C534.514 133.093 534.087 133.121 533.66 133.112Z" fill="#7A7F85"/>
<g opacity="0.5">
<path d="M533.659 133.112H533.955C533.39 133.11 532.832 132.995 532.312 132.775C531.792 132.555 531.321 132.234 530.927 131.83C530.533 131.426 530.223 130.948 530.015 130.423C529.807 129.898 529.706 129.337 529.717 128.773C529.717 127.187 530.412 125.786 531.8 124.569C533.129 123.404 534.947 122.803 537.237 122.752H536.914C534.477 122.752 532.564 123.361 531.175 124.58C529.787 125.798 529.092 127.199 529.092 128.783C529.084 129.348 529.188 129.909 529.398 130.434C529.608 130.959 529.92 131.437 530.315 131.841C531.133 132.688 532.248 133.112 533.659 133.112ZM533.367 145.249H533.995C536.419 145.257 538.841 145.129 541.25 144.865C542.641 144.734 544.019 144.485 545.368 144.121L545.389 143.894C544.469 144.285 542.877 144.609 540.611 144.865C538.206 145.129 535.787 145.257 533.367 145.249Z" fill="black"/>
<path d="M526.68 147.332C527.42 146.343 528.501 145.665 529.714 145.429C530.81 144.523 531.761 143.73 532.565 143.051C533.37 142.354 534.342 141.416 535.491 140.234C536.502 139.208 537.442 138.115 538.304 136.962C539.067 135.906 539.706 134.766 540.207 133.564C540.724 132.374 540.997 131.093 541.009 129.795C541.062 128.702 540.681 127.632 539.949 126.819C539.642 126.47 539.266 126.19 538.843 125.997C538.421 125.805 537.963 125.704 537.499 125.701C537.387 125.701 537.281 125.725 537.159 125.735C537.987 125.813 538.754 126.2 539.31 126.819C540.041 127.633 540.422 128.702 540.37 129.795C540.364 131.086 540.099 132.363 539.592 133.55C539.092 134.753 538.453 135.893 537.689 136.948C536.826 138.101 535.886 139.195 534.876 140.22C533.729 141.403 532.754 142.342 531.95 143.037C531.146 143.733 530.195 144.526 529.099 145.416C527.887 145.652 526.805 146.33 526.065 147.319C525.492 148.011 525.158 148.871 525.113 149.769C525.324 149.704 525.545 149.653 525.759 149.599C525.839 148.77 526.159 147.982 526.68 147.332ZM537.815 149.323C535.753 149.069 533.677 148.942 531.6 148.943H531.406C533.337 148.958 535.266 149.084 537.183 149.32C539.242 149.576 540.443 149.704 540.785 149.704C540.893 149.704 541.002 149.704 541.107 149.687C540.567 149.653 539.476 149.531 537.815 149.323Z" fill="black"/>
</g>
</g>
<rect opacity="0.5" x="465.518" y="217.241" width="139.655" height="232.759" fill="url(#paint14_linear_601_698)"/>
<g clip-path="url(#clip1_601_698)">
<path d="M44.8125 247.936C44.8125 247.936 49.7021 256.156 55.8422 256.054V234.307L45.1251 227.548L44.8125 247.936ZM58.6489 236.804V257.719C58.6489 257.719 64.6836 266.458 69.7839 266.458C74.8842 266.458 80.9156 257.719 80.9156 257.719V236.804H58.6489ZM94.4428 227.548L83.7257 234.31V256.057C89.8623 256.159 94.752 247.939 94.752 247.939L94.4428 227.548Z" fill="#E18631"/>
<path d="M44.8535 244.817C44.8535 244.817 49.7465 253.033 55.8866 252.931V231.184L45.1695 224.422L44.8535 244.817Z" fill="url(#paint15_linear_601_698)"/>
<path d="M58.6953 233.682V254.596C58.6953 254.596 64.73 263.336 69.8269 263.336C74.9239 263.336 80.9586 254.596 80.9586 254.596V233.682H58.6953Z" fill="url(#paint16_linear_601_698)"/>
<path opacity="0.2" d="M60.4829 247.596C63.3041 248.585 66.2671 249.11 69.2564 249.149C69.3687 249.153 69.4752 249.2 69.5528 249.282C69.6303 249.363 69.6728 249.472 69.6709 249.584L69.4976 260.706C69.4976 261.331 68.2914 261.338 67.7783 260.977C65.2434 259.214 60.082 254.684 60.0684 252.068V247.882C60.0684 247.832 60.0805 247.783 60.1036 247.74C60.1266 247.696 60.16 247.658 60.2007 247.63C60.2415 247.602 60.2885 247.584 60.3376 247.578C60.3868 247.573 60.4366 247.579 60.4829 247.596Z" fill="white"/>
<path d="M94.4866 224.422L83.7695 231.188V252.934C89.9096 253.033 94.8026 244.817 94.8026 244.817L94.4866 224.422Z" fill="url(#paint17_linear_601_698)"/>
<path d="M69.8277 247.29C87.4305 247.29 101.7 233.021 101.7 215.418C101.7 197.815 87.4305 183.545 69.8277 183.545C52.2249 183.545 37.9551 197.815 37.9551 215.418C37.9551 233.021 52.2249 247.29 69.8277 247.29Z" fill="url(#paint18_linear_601_698)"/>
<path d="M69.8275 245.829C86.6234 245.829 100.239 232.214 100.239 215.418C100.239 198.622 86.6234 185.006 69.8275 185.006C53.0317 185.006 39.416 198.622 39.416 215.418C39.416 232.214 53.0317 245.829 69.8275 245.829Z" fill="url(#paint19_linear_601_698)"/>
<path opacity="0.5" d="M69.8275 234.433C62.7503 234.432 55.8947 231.964 50.4412 227.453C44.9877 222.942 41.2775 216.671 39.9495 209.719C39.1151 214.115 39.261 218.641 40.3766 222.974C41.4923 227.307 43.5503 231.34 46.4039 234.786C49.2575 238.233 52.8364 241.007 56.8852 242.911C60.9341 244.815 65.3533 245.802 69.8275 245.802C74.3018 245.802 78.721 244.815 82.7699 242.911C86.8187 241.007 90.3976 238.233 93.2512 234.786C96.1048 231.34 98.1628 227.307 99.2784 222.974C100.394 218.641 100.54 214.115 99.7056 209.719C98.3776 216.671 94.6674 222.942 89.2139 227.453C83.7604 231.964 76.9048 234.432 69.8275 234.433Z" fill="url(#paint20_linear_601_698)"/>
<path d="M69.8282 241.409C84.1844 241.409 95.8224 229.771 95.8224 215.414C95.8224 201.058 84.1844 189.42 69.8282 189.42C55.472 189.42 43.834 201.058 43.834 215.414C43.834 229.771 55.472 241.409 69.8282 241.409Z" fill="url(#paint21_linear_601_698)"/>
<path d="M69.8283 239.414C83.081 239.414 93.8245 228.671 93.8245 215.418C93.8245 202.165 83.081 191.422 69.8283 191.422C56.5755 191.422 45.832 202.165 45.832 215.418C45.832 228.671 56.5755 239.414 69.8283 239.414Z" fill="url(#paint22_linear_601_698)"/>
<path opacity="0.2" d="M69.8283 206.247C74.8966 206.247 79.8349 207.851 83.9355 210.83C88.0361 213.808 91.0886 218.009 92.6556 222.829C93.8226 219.228 94.1212 215.402 93.5269 211.663C92.9327 207.925 91.4624 204.38 89.2363 201.319C87.0102 198.257 84.0914 195.766 80.7183 194.048C77.3452 192.33 73.6136 191.434 69.8283 191.434C66.0429 191.434 62.3113 192.33 58.9382 194.048C55.5651 195.766 52.6463 198.257 50.4202 201.319C48.1941 204.38 46.7239 207.925 46.1296 211.663C45.5353 215.402 45.8339 219.228 47.0009 222.829C48.5679 218.009 51.6204 213.808 55.721 210.83C59.8217 207.851 64.7599 206.247 69.8283 206.247Z" fill="#AA5C1F"/>
<path d="M69.8282 189.661C76.6941 189.634 83.2896 192.335 88.1643 197.171C93.039 202.006 95.7936 208.579 95.8224 215.445V215.353C95.8224 200.997 84.1845 189.237 69.8282 189.237C55.4719 189.237 43.834 200.997 43.834 215.353V215.445C43.8628 208.579 46.6174 202.006 51.4921 197.171C56.3668 192.335 62.9623 189.634 69.8282 189.661Z" fill="#E18631"/>
<path d="M69.8268 240.226C55.6268 240.226 44.0874 229.084 43.8359 214.945V215.414C43.8359 222.309 46.5746 228.92 51.4495 233.795C56.3243 238.67 62.9361 241.409 69.8301 241.409C76.7242 241.409 83.336 238.67 88.2108 233.795C93.0857 228.92 95.8244 222.309 95.8244 215.414V214.945C95.5661 229.084 84.0267 240.226 69.8268 240.226Z" fill="#D98B33"/>
<path d="M69.8282 241.229C76.6941 241.256 83.2896 238.555 88.1643 233.719C93.039 228.884 95.7936 222.311 95.8224 215.445V215.537C95.8224 229.893 84.1845 241.701 69.8282 241.701C55.4719 241.701 43.834 229.879 43.834 215.537V215.445C43.8628 222.311 46.6174 228.884 51.4921 233.719C56.3668 238.555 62.9623 241.256 69.8282 241.229Z" fill="white"/>
<path opacity="0.5" d="M43.2956 204.208C43.4009 203.868 43.5165 203.528 43.6354 203.206C43.7543 202.883 43.8902 202.546 44.0262 202.217C44.1621 201.887 44.3116 201.568 44.4611 201.245C44.6106 200.922 44.7737 200.606 44.9402 200.294C45.6074 199.029 46.378 197.822 47.244 196.685C47.4581 196.4 47.6823 196.121 47.9236 195.842C48.1648 195.564 48.3857 195.295 48.6236 195.027C48.8614 194.758 49.1095 194.497 49.3609 194.239C49.6124 193.98 49.8638 193.729 50.1255 193.481C50.6487 192.985 51.189 192.506 51.7497 192.054C52.3103 191.602 52.8846 191.163 53.486 190.762C54.0852 190.361 54.7044 189.99 55.3413 189.651C55.6607 189.481 55.9835 189.312 56.3097 189.165C56.6359 189.019 56.9655 188.866 57.2985 188.73C58.6249 188.184 59.9873 187.73 61.376 187.371C62.7557 187.013 64.1609 186.76 65.5793 186.617C66.286 186.549 66.9962 186.508 67.703 186.491C68.4098 186.474 69.1199 186.491 69.8233 186.535C69.9847 186.547 70.1351 186.621 70.242 186.743C70.3488 186.864 70.4035 187.023 70.3941 187.184C70.3846 187.332 70.3217 187.471 70.2173 187.575C70.1129 187.679 69.974 187.742 69.8267 187.752C69.4892 187.777 69.1494 187.804 68.8073 187.833C68.4675 187.867 68.1277 187.901 67.7879 187.949C67.1083 188.034 66.4559 188.136 65.8001 188.268C64.4889 188.528 63.197 188.876 61.9333 189.312C60.6796 189.749 59.4627 190.285 58.2941 190.915C58.0019 191.068 57.713 191.231 57.4276 191.391C57.1422 191.551 56.8568 191.731 56.5747 191.891C56.0073 192.23 55.45 192.57 54.8996 192.941C54.3491 193.311 53.8054 193.671 53.2753 194.065C53.0103 194.259 52.7487 194.459 52.4904 194.663C52.2322 194.867 51.9739 195.078 51.7225 195.292C51.2196 195.717 50.7269 196.158 50.2512 196.62C49.7755 197.083 49.31 197.555 48.8614 198.048C47.9632 199.035 47.1279 200.078 46.3605 201.17C45.9777 201.721 45.6085 202.287 45.2528 202.869C44.896 203.444 44.5732 204.031 44.2334 204.629C44.1739 204.748 44.0712 204.84 43.9463 204.886C43.8214 204.932 43.6837 204.929 43.5612 204.877C43.4387 204.825 43.3405 204.728 43.2868 204.607C43.233 204.485 43.2277 204.347 43.2718 204.222L43.2956 204.208Z" fill="white"/>
<path opacity="0.3" d="M89.3654 236.509C89.2794 236.672 89.1853 236.831 89.0833 236.985C89.0324 237.063 88.978 237.134 88.927 237.212C88.8761 237.29 88.8183 237.358 88.7605 237.43L88.5906 237.644C88.5329 237.715 88.4717 237.783 88.414 237.851L88.2305 238.055L88.0402 238.252C87.5223 238.769 86.953 239.233 86.3412 239.635C85.7339 240.037 85.0886 240.378 84.4146 240.654C84.2481 240.722 84.0748 240.787 83.9049 240.845C83.8165 240.872 83.7316 240.902 83.6432 240.926L83.3816 241.004L83.1166 241.072L82.8447 241.13C82.6646 241.164 82.4846 241.191 82.2977 241.208C82.1977 241.215 82.098 241.191 82.0122 241.139C81.9264 241.087 81.8585 241.011 81.8177 240.919C81.7769 240.827 81.7653 240.726 81.7843 240.627C81.8032 240.529 81.852 240.439 81.9239 240.369L82.1278 240.196L82.3316 240.032C82.4676 239.924 82.6035 239.818 82.7394 239.716L83.1505 239.414L83.5889 239.101C84.1359 238.714 84.683 238.337 85.2301 237.963C85.7772 237.589 86.3242 237.219 86.8849 236.852L87.3096 236.577L87.7412 236.308C87.8873 236.22 88.0334 236.128 88.1829 236.043L88.4106 235.914C88.4887 235.873 88.5669 235.829 88.6484 235.792C88.7117 235.76 88.7809 235.741 88.8517 235.736C88.9225 235.732 88.9935 235.741 89.0605 235.765C89.1274 235.788 89.189 235.825 89.2414 235.873C89.2937 235.921 89.3359 235.979 89.3654 236.043C89.4003 236.116 89.4185 236.195 89.4185 236.276C89.4185 236.357 89.4003 236.436 89.3654 236.509Z" fill="white"/>
<path d="M69.868 254.786C69.7464 254.786 69.6263 254.76 69.516 254.709C69.4056 254.658 69.3078 254.583 69.2292 254.491L59.5553 242.961C59.4272 242.812 59.3572 242.621 59.3582 242.425C59.3309 241.766 59.3377 241.105 59.3786 240.447L63.4561 234.874C63.5302 234.741 63.6393 234.63 63.7716 234.554C63.9039 234.478 64.0545 234.44 64.207 234.443H75.5901C75.7377 234.445 75.8821 234.485 76.0087 234.561C76.1353 234.637 76.2394 234.745 76.3105 234.874L80.4084 240.355C80.5035 240.433 80.4492 241.799 80.4356 241.929C80.4595 242.215 80.4129 242.503 80.2997 242.768C80.234 242.876 80.1602 242.98 80.0788 243.077L70.5306 254.481C70.4109 254.628 70.2442 254.73 70.0583 254.769C69.9958 254.783 69.9319 254.789 69.868 254.786Z" fill="#AA5C1F"/>
<path d="M69.8653 253.142C69.7435 253.141 69.6232 253.115 69.5128 253.063C69.4025 253.011 69.3048 252.936 69.2265 252.843L59.5492 241.314C59.4234 241.163 59.3548 240.973 59.3555 240.777C59.3542 240.634 59.3905 240.493 59.4608 240.369L63.4398 233.233C63.5132 233.1 63.6218 232.99 63.7536 232.914C63.8855 232.839 64.0355 232.801 64.1874 232.805H75.5705C75.7183 232.805 75.8634 232.845 75.9906 232.921C76.1179 232.996 76.2227 233.104 76.2942 233.233L80.1475 239.995C80.3649 240.406 80.5824 240.902 80.3038 241.215C80.1645 241.388 70.5143 252.839 70.5143 252.839C70.3941 252.986 70.2276 253.088 70.042 253.128C69.9838 253.139 69.9245 253.144 69.8653 253.142Z" fill="url(#paint23_linear_601_698)"/>
<path d="M69.766 248.718C69.6889 248.719 69.6125 248.703 69.5425 248.67C69.4725 248.638 69.4107 248.59 69.3617 248.531L63.2454 241.246C63.1663 241.15 63.1231 241.03 63.123 240.906C63.123 240.815 63.1464 240.726 63.191 240.648L65.7055 236.135C65.7516 236.051 65.8201 235.981 65.9035 235.933C65.9868 235.885 66.0817 235.861 66.1778 235.863H73.3712C73.4645 235.863 73.556 235.889 73.6361 235.937C73.7163 235.985 73.782 236.053 73.8265 236.135L76.2323 240.45C76.3248 240.578 76.3726 240.732 76.3683 240.889C76.364 241.047 76.3078 241.198 76.2085 241.32L70.1738 248.524C70.0973 248.617 69.9921 248.681 69.8747 248.707C69.8389 248.714 69.8025 248.718 69.766 248.718ZM64.2885 240.845L69.766 247.369L75.2367 240.834L73.0552 236.923H69.8747C69.8295 236.927 69.7841 236.927 69.7388 236.923H66.4768L64.2885 240.845Z" fill="white"/>
<path d="M67.5512 240.906H63.6504L66.1683 236.393L67.191 238.412L67.5512 240.906ZM71.9821 240.906H75.8796L73.3651 236.393L72.2064 238.354L71.9821 240.906Z" fill="#2E3E70"/>
<path d="M67.5543 240.906L69.0936 238.612L69.7664 236.393H66.168L67.5543 240.906Z" fill="url(#paint24_linear_601_698)"/>
<path d="M71.9777 240.906L70.3365 238.813L69.7656 236.393H73.3606L71.9777 240.906Z" fill="url(#paint25_linear_601_698)"/>
<path d="M71.9788 240.906L69.7667 236.393L67.5547 240.906H71.9788Z" fill="#0C60E7"/>
<path d="M72.0015 240.862L75.8785 240.902L69.7656 248.191L70.204 243.502L72.0015 240.862Z" fill="#1A2277"/>
<path d="M67.5512 240.906H63.6504L69.7667 248.191L69.6579 247.759L67.5512 240.906Z" fill="#1A2277"/>
<path d="M71.9788 240.906L69.7667 248.191L67.5547 240.906H71.9788Z" fill="url(#paint26_linear_601_698)"/>
<path opacity="0.5" d="M68.4926 229.428C65.4344 229.428 63.0151 228.656 61.3161 227.134C59.6171 225.612 58.6385 223.637 58.6385 221.548C58.5966 219.653 59.281 217.813 60.5516 216.407C61.7311 215.161 63.3382 214.407 65.0504 214.297L64.6087 210.858C64.0527 210.57 63.5458 210.196 63.1068 209.75C62.5302 209.169 62.0745 208.48 61.7659 207.721C61.4574 206.963 61.3022 206.151 61.3093 205.333C61.3005 204.198 61.5574 203.077 62.0595 202.059C62.5616 201.041 63.295 200.155 64.201 199.471C65.9543 198.085 68.2785 197.382 71.0716 197.382C73.9462 197.382 76.2806 198.2 78.0102 199.815C79.5323 201.175 80.4787 203.064 80.6568 205.097C80.8348 207.131 80.231 209.155 78.9684 210.759C78.638 211.2 78.2709 211.611 77.8709 211.989C78.2922 212.351 78.679 212.752 79.0262 213.185C80.3276 214.776 81.032 216.771 81.0173 218.826C81.0173 221.544 79.8281 224.015 77.4835 226.206C75.1389 228.398 72.1589 229.428 68.4926 229.428ZM68.8324 218.724C68.5306 218.913 68.2854 219.179 68.1227 219.496C67.9601 219.812 67.8859 220.166 67.9081 220.522C67.8651 220.87 67.9588 221.222 68.1697 221.504C68.3176 221.626 68.4886 221.717 68.6726 221.771C68.8565 221.825 69.0496 221.842 69.2401 221.82C69.5799 221.82 70.0318 221.741 70.6468 221.14C70.9561 220.844 71.306 220.369 71.306 219.268C71.3232 218.583 71.1427 217.909 70.7862 217.324L68.8324 218.724ZM70.8711 205.007C70.5007 205.007 70.3988 205.105 70.3376 205.163C70.2198 205.369 70.1699 205.607 70.1949 205.842C70.1949 206.033 70.2765 206.556 70.9866 207.429C71.2898 206.962 71.458 206.42 71.4725 205.863C71.4898 205.733 71.48 205.6 71.4438 205.474C71.4075 205.348 71.3456 205.23 71.2619 205.129C71.2075 205.068 71.1497 205.007 70.8711 205.007Z" fill="#AA5C1F"/>
<path d="M68.4917 227.548C65.9059 227.548 63.9147 226.94 62.5691 225.737C61.2236 224.534 60.5304 223.114 60.5304 221.554C60.4832 220.134 60.9873 218.751 61.9371 217.694C62.8851 216.675 64.2035 216.145 65.8617 216.145C66.4466 216.159 67.0271 216.25 67.5879 216.417L68.4748 216.665L67.7238 217.198C67.1772 217.561 66.7326 218.058 66.4322 218.642C66.1319 219.225 65.9858 219.876 66.0078 220.532C66.0078 221.585 66.2899 222.36 66.8709 222.91C67.5184 223.478 68.3622 223.771 69.2223 223.726C69.7321 223.718 70.2352 223.609 70.7021 223.404C71.169 223.199 71.5901 222.903 71.9406 222.533C72.7731 221.735 73.1775 220.678 73.1775 219.302C73.2038 218.005 72.7609 216.743 71.9305 215.747C71.1183 214.786 69.9155 214.225 68.3456 214.079C68.1146 214.127 67.7986 214.174 67.3772 214.218L66.9491 214.266L66.6569 211.996L67.0714 211.925C69.0592 211.585 70.6256 210.793 71.7198 209.594C72.8139 208.394 73.361 207.154 73.361 205.887C73.3973 205.16 73.1541 204.448 72.6814 203.895C72.4572 203.645 72.1802 203.448 71.8705 203.318C71.5608 203.189 71.2262 203.129 70.8907 203.144C70.5521 203.127 70.2135 203.178 69.8952 203.295C69.5769 203.412 69.2856 203.592 69.0388 203.824C68.5631 204.29 68.332 204.956 68.332 205.863C68.332 206.77 68.7874 207.755 69.6912 208.816L70.1567 209.359L69.4602 209.526C68.9362 209.654 68.3991 209.72 67.8597 209.723C67.2354 209.754 66.6114 209.656 66.0267 209.435C65.442 209.214 64.9092 208.875 64.4618 208.438C64.0536 208.032 63.7315 207.548 63.5149 207.014C63.2983 206.48 63.1916 205.909 63.2012 205.333C63.1916 204.482 63.3841 203.641 63.7627 202.879C64.1414 202.117 64.6954 201.456 65.3792 200.949C66.7928 199.831 68.7092 199.25 71.081 199.25C73.4527 199.25 75.3658 199.899 76.7351 201.18C77.3935 201.763 77.9197 202.479 78.2784 203.281C78.6371 204.084 78.8199 204.953 78.8147 205.832C78.7879 207.21 78.3105 208.541 77.4555 209.621C76.648 210.657 75.63 211.511 74.4687 212.125C75.6815 212.571 76.7487 213.341 77.554 214.351C78.5836 215.609 79.1413 217.187 79.1307 218.812C79.1307 220.977 78.1453 222.995 76.1949 224.816C74.2445 226.638 71.6654 227.548 68.4917 227.548Z" fill="#D6974B"/>
<path d="M73.794 205.863C73.8257 205.027 73.5391 204.209 72.992 203.576C72.7255 203.281 72.3975 203.048 72.0311 202.894C71.6648 202.739 71.269 202.667 70.8717 202.682C70.4752 202.667 70.0797 202.732 69.709 202.873C69.3382 203.015 68.9998 203.229 68.714 203.505C68.4211 203.816 68.1951 204.184 68.0501 204.586C67.9052 204.988 67.8443 205.416 67.8714 205.842C67.8714 206.855 68.3595 207.934 69.3359 209.081C68.8451 209.199 68.3422 209.26 67.8374 209.261C66.5439 209.261 65.5245 208.877 64.7792 208.109C64.4103 207.744 64.1195 207.308 63.9244 206.827C63.7293 206.346 63.634 205.831 63.6443 205.312C63.6349 204.528 63.8124 203.753 64.1622 203.051C64.512 202.349 65.0241 201.74 65.6559 201.276C66.9947 200.213 68.8069 199.683 71.0926 199.685C73.3783 199.688 75.1633 200.29 76.4477 201.493C77.0615 202.035 77.552 202.702 77.8862 203.449C78.2203 204.197 78.3902 205.007 78.3846 205.825C78.3639 207.108 77.9208 208.348 77.1239 209.352C76.2835 210.485 75.0104 211.442 73.3047 212.224C74.852 212.532 76.242 213.374 77.2327 214.602C78.2024 215.781 78.7268 217.263 78.7142 218.789C78.7142 220.827 77.782 222.721 75.9177 224.47C74.0533 226.219 71.5853 227.091 68.5136 227.086C66.0217 227.086 64.145 226.52 62.8832 225.387C61.6214 224.255 60.9883 222.969 60.9837 221.531C60.9365 220.218 61.402 218.938 62.2817 217.963C63.1448 217.025 64.3454 216.556 65.8836 216.556C66.4281 216.57 66.9685 216.656 67.4908 216.811C66.8835 217.216 66.3896 217.77 66.0555 218.419C65.7214 219.068 65.5581 219.792 65.5811 220.522C65.5811 221.69 65.9153 222.586 66.5835 223.209C67.3123 223.852 68.263 224.186 69.2339 224.14C69.7988 224.131 70.3563 224.011 70.8743 223.785C71.3922 223.559 71.8602 223.233 72.2513 222.825C73.1574 221.949 73.6105 220.766 73.6105 219.278C73.6397 217.876 73.1564 216.512 72.2513 215.442C71.3452 214.368 70.029 213.758 68.3029 213.614C67.9771 213.679 67.6482 213.727 67.3175 213.76L67.134 212.332C69.2294 211.97 70.8627 211.148 72.0338 209.866C73.205 208.583 73.7917 207.249 73.794 205.863Z" fill="#AA5C1F"/>
<path opacity="0.5" d="M67.3232 213.76C67.5644 213.732 67.7683 213.705 67.9416 213.678L67.7683 212.319C69.866 211.956 71.4993 211.134 72.6681 209.852C73.837 208.57 74.4192 207.24 74.4147 205.863C74.4469 205.026 74.1589 204.208 73.6094 203.576C73.3428 203.281 73.0148 203.048 72.6484 202.894C72.2821 202.739 71.8863 202.667 71.4891 202.682C71.3769 202.682 71.2716 202.699 71.1493 202.71C71.8468 202.747 72.5014 203.058 72.9706 203.576C73.5177 204.209 73.8042 205.027 73.7725 205.863C73.7725 207.251 73.188 208.586 72.0191 209.866C70.8502 211.145 69.217 211.968 67.1193 212.332L67.3232 213.76ZM69.5998 224.123C69.6848 224.123 69.7629 224.14 69.8513 224.14C70.4161 224.131 70.9737 224.011 71.4916 223.785C72.0095 223.559 72.4775 223.233 72.8686 222.825C73.7747 221.949 74.2278 220.766 74.2278 219.278C74.2573 217.876 73.774 216.512 72.8686 215.442C71.9625 214.368 70.6464 213.758 68.9202 213.614L68.6756 213.658C70.2182 213.858 71.3939 214.449 72.24 215.442C73.1451 216.512 73.6284 217.876 73.5992 219.278C73.5992 220.766 73.1461 221.949 72.24 222.825C71.5374 223.552 70.6039 224.01 69.5998 224.123ZM63.4903 225.404C62.224 224.272 61.5909 222.986 61.5909 221.548C61.5437 220.235 62.0092 218.955 62.8889 217.98C63.2995 217.55 63.791 217.207 64.3351 216.968C64.8792 216.73 65.4652 216.601 66.0592 216.59C65.9946 216.59 65.9232 216.573 65.8621 216.573C64.3262 216.573 63.1256 217.042 62.2603 217.98C61.3806 218.955 60.915 220.235 60.9623 221.548C60.9623 222.984 61.5954 224.269 62.8617 225.404C64.128 226.539 66.0048 227.106 68.4921 227.103H68.7741C66.4635 227.042 64.6966 226.481 63.4903 225.404ZM67.8363 209.261H68.0775C67.0707 209.236 66.1109 208.829 65.3932 208.122C65.0243 207.758 64.7334 207.322 64.5383 206.841C64.3432 206.36 64.2479 205.845 64.2583 205.326C64.2449 204.54 64.4196 203.763 64.7677 203.058C65.1159 202.353 65.6274 201.742 66.2596 201.276C67.5305 200.256 69.2328 199.743 71.3565 199.696H71.0643C68.7832 199.696 66.9709 200.226 65.6276 201.286C64.9958 201.751 64.4838 202.359 64.1339 203.061C63.7841 203.763 63.6066 204.538 63.616 205.323C63.6057 205.841 63.701 206.357 63.8961 206.837C64.0912 207.318 64.3821 207.754 64.751 208.119C65.5144 208.88 66.5428 209.261 67.8363 209.261Z" fill="black"/>
</g>
<rect opacity="0.5" y="294.828" width="139.655" height="155.172" fill="url(#paint27_linear_601_698)"/>
<rect opacity="0.5" x="232.76" y="139.655" width="139.655" height="310.345" fill="url(#paint28_linear_601_698)"/>
<path d="M277.678 96.1208C277.678 96.1208 282.567 104.34 288.707 104.238V82.4916L277.99 75.7297L277.678 96.1208ZM291.518 84.9891V105.903C291.518 105.903 297.552 114.643 302.649 114.643C307.746 114.643 313.781 105.903 313.781 105.903V84.9891H291.518ZM327.308 75.7297L316.591 82.4916V104.238C322.731 104.34 327.621 96.1208 327.621 96.1208L327.308 75.7297Z" fill="#F3AE00"/>
<path d="M277.678 93.0015C277.678 93.0015 282.567 101.221 288.707 101.116V79.369L277.99 72.6037L277.678 93.0015Z" fill="url(#paint29_linear_601_698)"/>
<path d="M291.508 81.8663V102.781C291.508 102.781 297.543 111.52 302.639 111.52C307.736 111.52 313.771 102.781 313.771 102.781V81.8663H291.508Z" fill="url(#paint30_linear_601_698)"/>
<path opacity="0.2" d="M293.289 95.7741C296.114 96.7643 299.08 97.2887 302.073 97.327C302.185 97.3305 302.292 97.3781 302.369 97.4595C302.447 97.5409 302.489 97.6495 302.487 97.7619L302.314 108.883C302.314 109.509 301.108 109.515 300.595 109.155C298.06 107.392 292.898 102.862 292.885 100.246C292.885 98.5095 292.885 96.8275 292.885 96.0596C292.885 96.0113 292.897 95.9638 292.92 95.9211C292.942 95.8784 292.975 95.8416 293.014 95.8138C293.054 95.7859 293.099 95.7678 293.147 95.7609C293.195 95.7541 293.243 95.7586 293.289 95.7741Z" fill="white"/>
<path d="M327.303 72.6069L316.586 79.3722V101.119C322.726 101.224 327.616 93.0047 327.616 93.0047L327.303 72.6069Z" fill="url(#paint31_linear_601_698)"/>
<path d="M282.944 87.0926C282.944 87.0926 264.255 83.4296 258.003 66.936C257.865 66.5702 257.872 66.1653 258.024 65.8048C258.176 65.4444 258.46 65.156 258.818 64.9992L264.442 62.5425C264.442 62.5425 257.272 56.7082 259.226 43.0961C259.249 42.936 259.306 42.7826 259.394 42.6467C259.482 42.5109 259.598 42.3957 259.734 42.3091C259.871 42.2225 260.025 42.1666 260.185 42.1453C260.346 42.1239 260.509 42.1376 260.663 42.1855L266.29 43.9218C266.29 43.9218 265.77 31.9373 270.708 25.6443C270.95 25.3377 271.292 25.1261 271.675 25.0465C272.058 24.967 272.456 25.0247 272.801 25.2094C275.604 26.6841 282.631 30.7038 285.353 35.1653C287.417 38.5484 289.249 42.0677 290.837 45.6989L282.944 87.0926Z" fill="url(#paint32_linear_601_698)"/>
<path d="M285.266 85.8419C285.266 85.8419 265.218 79.8174 260.995 67.8872C260.885 67.5678 260.894 67.219 261.023 66.9063C261.151 66.5936 261.389 66.3383 261.691 66.1883L267.808 63.1301C267.808 63.1301 259.891 57.0376 260.985 46.1812C261.004 46.0192 261.057 45.8629 261.139 45.7222C261.222 45.5815 261.333 45.4595 261.465 45.3637C261.597 45.268 261.748 45.2006 261.907 45.1659C262.066 45.1311 262.231 45.1297 262.391 45.1618L268.464 46.3613C268.464 46.3613 268.372 32.9021 271.539 28.4406C271.726 28.1802 272.004 27.9984 272.317 27.93C272.631 27.8616 272.959 27.9116 273.238 28.0702C275.827 29.5313 283.258 34.3224 286.666 42.7833C290.836 53.1062 290.523 56.5008 290.523 56.5008L285.266 85.8419Z" fill="#FFED48"/>
<path d="M275.539 74.0104C273 73.5214 270.593 72.5039 268.473 71.024C266.353 69.5441 264.569 67.6349 263.235 65.4204L261.692 66.1917C261.389 66.3418 261.151 66.5971 261.023 66.9098C260.895 67.2225 260.885 67.5712 260.995 67.8907C263.941 76.2292 274.625 81.6829 280.792 84.2008C281.271 83.4261 285.566 75.9608 275.539 74.0104ZM273.072 66.2597L273.598 59.3483C264.859 54.9615 263.826 47.8157 263.744 45.4167L262.409 45.1517C262.249 45.1196 262.084 45.121 261.925 45.1557C261.765 45.1905 261.615 45.2578 261.483 45.3536C261.35 45.4493 261.24 45.5714 261.157 45.7121C261.074 45.8528 261.022 46.009 261.002 46.1711C259.908 57.0275 267.825 63.12 267.825 63.12L267.788 63.1404C269.45 64.3403 271.218 65.3844 273.072 66.2597Z" fill="#FBD600"/>
<path d="M322.229 87.0926C322.229 87.0926 340.918 83.4296 347.17 66.936C347.308 66.5702 347.301 66.1653 347.149 65.8048C346.997 65.4444 346.713 65.156 346.355 64.9992L340.731 62.5425C340.731 62.5425 347.901 56.7082 345.947 43.0961C345.924 42.936 345.867 42.7826 345.779 42.6467C345.691 42.5109 345.575 42.3957 345.438 42.3091C345.302 42.2225 345.148 42.1666 344.988 42.1453C344.827 42.1239 344.664 42.1376 344.51 42.1855L338.883 43.9218C338.883 43.9218 339.403 31.9373 334.465 25.6443C334.223 25.3377 333.88 25.1261 333.498 25.0465C333.115 24.967 332.717 25.0247 332.372 25.2094C329.569 26.6841 322.542 30.7038 319.82 35.1653C317.756 38.5484 315.924 42.0677 314.336 45.6989L322.229 87.0926Z" fill="url(#paint33_linear_601_698)"/>
<path d="M319.908 85.8419C319.908 85.8419 339.956 79.8174 344.18 67.8872C344.291 67.5698 344.284 67.2226 344.159 66.9101C344.034 66.5977 343.8 66.3412 343.5 66.1883L337.384 63.1301C337.384 63.1301 345.301 57.0376 344.207 46.1812C344.188 46.0192 344.135 45.8629 344.052 45.7222C343.97 45.5815 343.859 45.4595 343.727 45.3637C343.595 45.268 343.444 45.2006 343.285 45.1659C343.125 45.1311 342.96 45.1297 342.8 45.1618L336.728 46.3613C336.728 46.3613 336.82 32.9021 333.67 28.4406C333.482 28.1802 333.205 27.9984 332.891 27.93C332.578 27.8616 332.25 27.9116 331.971 28.0702C329.382 29.5313 321.95 34.3224 318.542 42.7833C314.339 53.1062 314.652 56.5008 314.652 56.5008L319.908 85.8419Z" fill="#FFED48"/>
<path d="M329.642 74.0104C332.18 73.5214 334.588 72.5039 336.707 71.024C338.827 69.5441 340.612 67.6349 341.946 65.4204L343.488 66.1917C343.788 66.3446 344.022 66.6011 344.147 66.9136C344.272 67.226 344.28 67.5732 344.168 67.8907C341.222 76.2292 330.539 81.6829 324.372 84.2008C323.91 83.4261 319.615 75.9608 329.642 74.0104ZM332.109 66.2597L331.582 59.3483C340.322 54.9615 341.355 47.8157 341.436 45.4167L342.771 45.1517C342.931 45.1196 343.096 45.121 343.256 45.1557C343.415 45.1905 343.566 45.2578 343.698 45.3536C343.83 45.4493 343.941 45.5714 344.024 45.7121C344.106 45.8528 344.159 46.009 344.178 46.1711C345.272 57.0275 337.355 63.12 337.355 63.12L337.393 63.1404C335.731 64.3403 333.962 65.3844 332.109 66.2597Z" fill="#FBD600"/>
<path d="M302.64 95.4751C320.243 95.4751 334.513 81.2053 334.513 63.6025C334.513 45.9997 320.243 31.7299 302.64 31.7299C285.037 31.7299 270.768 45.9997 270.768 63.6025C270.768 81.2053 285.037 95.4751 302.64 95.4751Z" fill="url(#paint34_linear_601_698)"/>
<path d="M302.646 94.0143C319.442 94.0143 333.057 80.3986 333.057 63.6027C333.057 46.8069 319.442 33.1912 302.646 33.1912C285.85 33.1912 272.234 46.8069 272.234 63.6027C272.234 80.3986 285.85 94.0143 302.646 94.0143Z" fill="url(#paint35_linear_601_698)"/>
<path opacity="0.5" d="M302.646 82.6174C295.569 82.6167 288.713 80.1484 283.26 75.6376C277.806 71.1268 274.096 64.8558 272.768 57.9042C271.933 62.3 272.079 66.8258 273.195 71.1587C274.311 75.4917 276.369 79.525 279.222 82.9712C282.076 86.4174 285.655 89.1915 289.704 91.0956C293.752 92.9997 298.172 93.987 302.646 93.987C307.12 93.987 311.539 92.9997 315.588 91.0956C319.637 89.1915 323.216 86.4174 326.07 82.9712C328.923 79.525 330.981 75.4917 332.097 71.1587C333.212 66.8258 333.358 62.3 332.524 57.9042C331.196 64.8558 327.486 71.1268 322.032 75.6376C316.579 80.1484 309.723 82.6167 302.646 82.6174Z" fill="url(#paint36_linear_601_698)"/>
<path d="M302.647 89.5935C317.003 89.5935 328.641 77.9555 328.641 63.5993C328.641 49.2431 317.003 37.6051 302.647 37.6051C288.29 37.6051 276.652 49.2431 276.652 63.5993C276.652 77.9555 288.29 89.5935 302.647 89.5935Z" fill="url(#paint37_linear_601_698)"/>
<path d="M302.643 87.5989C315.895 87.5989 326.639 76.8554 326.639 63.6027C326.639 50.3499 315.895 39.6064 302.643 39.6064C289.39 39.6064 278.646 50.3499 278.646 63.6027C278.646 76.8554 289.39 87.5989 302.643 87.5989Z" fill="url(#paint38_linear_601_698)"/>
<path opacity="0.2" d="M302.643 54.4315C307.711 54.4317 312.65 56.0365 316.751 59.0158C320.851 61.9952 323.904 66.1962 325.47 71.0169C326.637 67.4159 326.936 63.59 326.341 59.8516C325.747 56.1132 324.277 52.5684 322.051 49.5069C319.825 46.4453 316.906 43.9538 313.533 42.2359C310.16 40.5181 306.428 39.6226 302.643 39.6226C298.857 39.6226 295.126 40.5181 291.753 42.2359C288.38 43.9538 285.461 46.4453 283.235 49.5069C281.009 52.5684 279.538 56.1132 278.944 59.8516C278.35 63.59 278.648 67.4159 279.815 71.0169C281.382 66.1962 284.434 61.9952 288.535 59.0158C292.635 56.0365 297.574 54.4317 302.643 54.4315Z" fill="#E48200"/>
<path d="M302.647 37.8463C309.512 37.8192 316.108 40.5202 320.983 45.3554C325.857 50.1906 328.612 56.7639 328.641 63.6298V63.5415C328.641 49.1852 317.003 37.4249 302.647 37.4249C288.29 37.4249 276.652 49.1852 276.652 63.5415V63.6332C276.68 56.7667 279.434 50.1925 284.309 45.3566C289.184 40.5207 295.78 37.8192 302.647 37.8463Z" fill="#F3AE00"/>
<path d="M302.643 88.411C288.443 88.411 276.904 77.2691 276.652 63.1303C276.652 63.2866 276.652 63.4429 276.652 63.5992C276.652 67.0128 277.325 70.393 278.631 73.5468C279.937 76.7005 281.852 79.5661 284.266 81.9799C286.68 84.3937 289.545 86.3084 292.699 87.6147C295.853 88.9211 299.233 89.5934 302.647 89.5934C306.06 89.5934 309.44 88.9211 312.594 87.6147C315.748 86.3084 318.613 84.3937 321.027 81.9799C323.441 79.5661 325.356 76.7005 326.662 73.5468C327.968 70.393 328.641 67.0128 328.641 63.5992C328.641 63.4429 328.641 63.2866 328.641 63.1303C328.383 77.2691 316.843 88.411 302.643 88.411Z" fill="#FBD600"/>
<path d="M302.647 89.4133C309.512 89.4404 316.108 86.7393 320.983 81.9042C325.857 77.069 328.612 70.4957 328.641 63.6298V63.7215C328.641 78.0778 317.003 89.8856 302.647 89.8856C288.29 89.8856 276.652 78.0642 276.652 63.7215V63.6298C276.681 70.4957 279.436 77.069 284.31 81.9042C289.185 86.7393 295.781 89.4404 302.647 89.4133Z" fill="white"/>
<path opacity="0.5" d="M276.111 52.3928C276.216 52.053 276.335 51.7132 276.451 51.3904C276.566 51.0676 276.706 50.7312 276.842 50.4016C276.978 50.072 277.127 49.7526 277.277 49.4298C277.426 49.107 277.589 48.791 277.756 48.4784C278.424 47.2148 279.195 46.0079 280.059 44.8697C280.277 44.5843 280.501 44.3057 280.739 44.0271C280.977 43.7484 281.201 43.48 281.439 43.2116C281.677 42.9431 281.925 42.6815 282.176 42.4232C282.428 42.165 282.679 41.9135 282.941 41.6655C283.464 41.1694 284.004 40.6903 284.565 40.2384C285.126 39.7864 285.7 39.3481 286.301 38.9471C286.903 38.5462 287.521 38.1758 288.157 37.836C288.476 37.6661 288.799 37.4962 289.125 37.3535C289.451 37.2108 289.781 37.0511 290.114 36.9152C291.44 36.3691 292.803 35.915 294.191 35.556C295.573 35.198 296.981 34.947 298.402 34.8051C299.108 34.7371 299.818 34.6963 300.525 34.6793C301.232 34.6623 301.942 34.6793 302.646 34.7235C302.807 34.7349 302.957 34.8093 303.064 34.9308C303.171 35.0523 303.226 35.211 303.216 35.3725C303.207 35.5199 303.144 35.6587 303.04 35.7631C302.935 35.8675 302.796 35.9304 302.649 35.94C302.311 35.9626 301.972 35.9898 301.63 36.0215C301.29 36.0555 300.95 36.0895 300.61 36.137C299.931 36.222 299.278 36.3273 298.622 36.4565C297.311 36.7157 296.019 37.0643 294.756 37.4996C293.502 37.9368 292.285 38.4731 291.116 39.1034C290.824 39.2564 290.539 39.4195 290.25 39.5792C289.961 39.7389 289.679 39.919 289.397 40.0787C288.83 40.4184 288.272 40.7582 287.722 41.1286C287.171 41.499 286.628 41.8592 286.098 42.2533C285.833 42.447 285.571 42.6475 285.313 42.8514C285.054 43.0552 284.796 43.2659 284.545 43.48C284.042 43.9047 283.549 44.3465 283.073 44.8086C282.598 45.2707 282.132 45.743 281.684 46.2357C280.785 47.2232 279.95 48.2661 279.183 49.3584C278.8 49.9089 278.431 50.4752 278.075 51.0574C277.735 51.6316 277.395 52.2195 277.056 52.8175C276.996 52.9365 276.893 53.0284 276.769 53.0744C276.644 53.1204 276.506 53.1171 276.383 53.0651C276.261 53.0132 276.163 52.9165 276.109 52.7947C276.055 52.673 276.05 52.5353 276.094 52.4098L276.111 52.3928Z" fill="white"/>
<path opacity="0.3" d="M322.184 84.6935C322.1 84.8574 322.006 85.0162 321.902 85.1692C321.851 85.2473 321.797 85.3187 321.746 85.3968L321.583 85.6143L321.41 85.8284C321.352 85.8997 321.291 85.9677 321.233 86.0356L321.05 86.2395L320.859 86.4366C320.347 86.9532 319.783 87.4165 319.177 87.8196C318.571 88.2216 317.927 88.563 317.254 88.8389C317.084 88.9069 316.914 88.9715 316.741 89.0292C316.653 89.0564 316.568 89.087 316.479 89.1108L316.218 89.1889L315.953 89.2569L315.681 89.3147C315.501 89.3486 315.321 89.3758 315.134 89.3928C315.033 89.4008 314.933 89.3773 314.846 89.3257C314.76 89.2741 314.691 89.1968 314.651 89.1046C314.61 89.0124 314.599 88.9098 314.619 88.8111C314.639 88.7124 314.69 88.6223 314.763 88.5535L314.967 88.3802L315.171 88.2171C315.307 88.1084 315.443 88.003 315.582 87.9011L315.99 87.5987L316.401 87.2997C316.948 86.9123 317.495 86.5351 318.042 86.1614C318.589 85.7876 319.137 85.4172 319.697 85.0502L320.122 84.775L320.553 84.5066C320.7 84.4182 320.846 84.3265 320.999 84.2415C321.07 84.1974 321.148 84.1532 321.226 84.1124C321.304 84.0716 321.379 84.0275 321.461 83.9901C321.587 83.9294 321.733 83.9214 321.865 83.9679C321.998 84.0144 322.107 84.1116 322.168 84.2381C322.204 84.3081 322.224 84.3852 322.227 84.4639C322.23 84.5426 322.215 84.621 322.184 84.6935Z" fill="white"/>
<path d="M302.636 102.981C302.514 102.981 302.394 102.955 302.284 102.904C302.173 102.853 302.075 102.778 301.997 102.686L292.323 91.1564C292.195 91.0069 292.125 90.8163 292.126 90.6195C292.098 89.9604 292.105 89.3003 292.146 88.6419L296.224 83.0693C296.298 82.9364 296.408 82.8261 296.54 82.7501C296.672 82.6742 296.822 82.6353 296.975 82.6377H308.358C308.505 82.6394 308.65 82.6802 308.776 82.756C308.903 82.8319 309.007 82.94 309.078 83.0693L313.162 88.5502C313.258 88.6283 313.203 89.9977 313.19 90.1234C313.214 90.4101 313.167 90.6982 313.054 90.9627C312.988 91.0712 312.914 91.1746 312.833 91.2719L303.285 102.675C303.165 102.823 302.998 102.925 302.812 102.964C302.754 102.977 302.695 102.982 302.636 102.981Z" fill="#E48200"/>
<path d="M302.625 101.337C302.503 101.336 302.383 101.31 302.273 101.258C302.162 101.206 302.065 101.131 301.986 101.038L292.309 89.5085C292.183 89.3579 292.115 89.1678 292.115 88.9716C292.114 88.8288 292.15 88.6882 292.221 88.5639L296.2 81.4282C296.273 81.2952 296.382 81.1849 296.513 81.1094C296.645 81.0339 296.795 80.9961 296.947 81.0001H308.259C308.283 80.9984 308.306 80.9984 308.33 81.0001C308.478 81.0004 308.623 81.0403 308.75 81.1156C308.878 81.1908 308.982 81.2988 309.054 81.4282L312.907 88.1935C313.125 88.6012 313.342 89.0973 313.064 89.4099C312.924 89.5832 303.274 101.034 303.274 101.034C303.155 101.182 302.988 101.284 302.802 101.323C302.744 101.334 302.684 101.339 302.625 101.337Z" fill="url(#paint39_linear_601_698)"/>
<path d="M302.528 96.9125C302.451 96.9137 302.374 96.8976 302.304 96.8652C302.234 96.8328 302.172 96.7851 302.123 96.7256L296.007 89.4404C295.939 89.3579 295.897 89.2566 295.887 89.1498C295.877 89.0431 295.9 88.9359 295.953 88.8424L298.467 84.3299C298.513 84.2456 298.582 84.1756 298.665 84.1277C298.748 84.0797 298.843 84.0556 298.939 84.0581H306.133C306.226 84.0584 306.318 84.0838 306.398 84.1316C306.478 84.1794 306.544 84.2479 306.588 84.3299L308.994 88.6453C309.086 88.7726 309.134 88.927 309.13 89.0843C309.126 89.2416 309.069 89.3931 308.97 89.5152L302.935 96.7188C302.86 96.8128 302.754 96.8776 302.636 96.9023C302.601 96.9091 302.564 96.9125 302.528 96.9125ZM297.05 89.0259L302.528 95.5499L307.998 89.0259L305.817 85.1182H302.636C302.591 85.1236 302.546 85.1236 302.5 85.1182H302.415H299.238L297.05 89.0259Z" fill="white"/>
<path d="M300.307 89.1007H296.406L298.924 84.5883L299.947 86.6066L300.307 89.1007Z" fill="#2E3E70"/>
<path d="M304.746 89.1007H308.644L306.129 84.5883L304.97 86.5489L304.746 89.1007Z" fill="#2E3E70"/>
<path d="M300.314 89.1007L301.853 86.8071L302.526 84.5883H298.928L300.314 89.1007Z" fill="url(#paint40_linear_601_698)"/>
<path d="M304.741 89.1007L303.1 87.0076L302.529 84.5883H306.124L304.741 89.1007Z" fill="url(#paint41_linear_601_698)"/>
<path d="M304.741 89.1007L302.528 84.5883V84.5985V84.5883L300.316 89.1007H302.331H304.741Z" fill="#0C60E7"/>
<path d="M304.765 89.0565L308.642 89.0973L302.529 96.3859L302.968 91.6967L304.765 89.0565Z" fill="#1A2277"/>
<path d="M300.307 89.1006H296.406L302.523 96.3858L302.414 95.9543L300.307 89.1006Z" fill="#1A2277"/>
<path d="M304.741 89.1006L302.528 96.3858L300.316 89.1006H302.331H304.741Z" fill="url(#paint42_linear_601_698)"/>
<path opacity="0.5" d="M291.57 75.0943C291.595 74.2957 291.764 73.5082 292.07 72.7701C292.361 71.9723 292.786 71.23 293.327 70.5751C293.987 69.8421 294.798 69.2622 295.706 68.8761C296.598 68.4598 297.563 68.222 298.546 68.1761C298.703 66.7728 298.927 64.9243 299.226 62.6511C299.403 61.2375 299.56 59.961 299.698 58.8216C299.043 59.1423 298.33 59.325 297.602 59.3585C296.674 59.3585 294.958 58.9745 293.884 56.3921C293.384 55.2823 293.106 54.0852 293.065 52.8684V51.0097L294.877 50.602C296.096 50.3268 297.897 49.8035 300.232 49.0491C302.383 48.3532 304.487 47.519 306.531 46.5517L309.851 44.9716V48.6482C309.851 50.0447 309.545 53.1844 308.883 58.5294C308.427 62.2331 308.094 65.4306 307.894 68.0776C308.681 67.9552 309.45 67.7385 310.184 67.432L313.616 65.9369L313.433 69.6746C313.31 72.1313 312.882 73.8405 312.073 75.0468C311.394 76.0899 309.977 77.3302 307.194 77.3302C306.773 77.3302 305.984 77.286 303.606 76.9224C302.031 76.6887 300.441 76.5751 298.849 76.5826C297.43 76.5739 296.021 76.8107 294.683 77.2826L291.574 78.4039L291.57 75.0943Z" fill="#E48200"/>
<path d="M293.443 75.0944C293.469 74.5247 293.597 73.9642 293.821 73.4396C294.036 72.8422 294.352 72.286 294.755 71.795C295.235 71.2706 295.822 70.8567 296.478 70.582C297.24 70.2281 298.07 70.046 298.911 70.0485C299.441 70.0485 299.876 70.0485 300.212 70.0485C300.351 68.6248 300.633 66.2156 301.051 62.8687C301.442 59.7358 301.731 57.2723 301.942 55.5257C298.883 57.2485 297.976 57.4592 297.558 57.4592C296.743 57.4592 296.08 56.8509 295.581 55.6514C295.175 54.771 294.944 53.8201 294.901 52.8515V52.5118L295.241 52.437C296.518 52.1482 298.374 51.6079 300.759 50.8366C303.004 50.119 305.199 49.2552 307.331 48.2507L307.959 47.9517V48.6313C307.959 49.9293 307.647 53.086 307.005 58.2815C306.406 63.1201 306.023 67.1161 305.863 70.1504C307.599 70.1229 309.315 69.7774 310.926 69.1311L311.575 68.849L311.541 69.5558C311.439 71.6319 311.099 73.0795 310.501 73.9731C309.866 74.9313 308.754 75.4138 307.191 75.4138C306.084 75.3496 304.981 75.2202 303.889 75.0265C302.216 74.7719 300.527 74.6446 298.836 74.6459C297.199 74.6379 295.574 74.9139 294.031 75.4614L293.443 75.6721V75.0944Z" fill="#FBD600"/>
<path d="M295.091 72.0668C295.53 71.5928 296.065 71.2185 296.661 70.9693C297.365 70.6409 298.133 70.4727 298.91 70.4766C299.702 70.4766 300.269 70.4766 300.609 70.5106C300.732 69.1718 301.024 66.6437 301.486 62.9264C301.948 59.209 302.278 56.4692 302.475 54.7068C299.818 56.2426 298.179 57.0106 297.558 57.0106C296.936 57.0106 296.413 56.5009 295.985 55.4747C295.603 54.6478 295.386 53.7545 295.346 52.8447C296.637 52.5525 298.489 52.0156 300.902 51.2341C303.159 50.5177 305.366 49.6539 307.51 48.6483C307.51 49.9191 307.193 53.1188 306.559 58.2474C305.925 63.376 305.535 67.5011 305.39 70.6227C307.68 70.5729 309.581 70.2195 311.092 69.5626C310.992 71.5379 310.669 72.939 310.124 73.7658C309.578 74.5926 308.597 75.0072 307.181 75.0094C306.096 74.9429 305.016 74.8147 303.946 74.6255C302.252 74.3666 300.54 74.2382 298.825 74.2415C297.141 74.2367 295.47 74.5254 293.885 75.0944C293.909 74.5788 294.024 74.0714 294.225 73.5959C294.423 73.0399 294.716 72.5225 295.091 72.0668Z" fill="#E48200"/>
<path opacity="0.5" d="M297.569 57.0207C297.678 57.0171 297.786 57.0011 297.892 56.9732C297.402 56.8304 296.977 56.3377 296.624 55.4849C296.243 54.6579 296.026 53.7647 295.985 52.8549C297.276 52.5626 299.128 52.0258 301.541 51.2442C303.577 50.5886 305.574 49.816 307.521 48.9302C307.521 48.8249 307.521 48.7298 307.521 48.6414C305.374 49.651 303.163 50.5182 300.902 51.2374C298.49 52.019 296.638 52.5558 295.346 52.8481C295.387 53.7579 295.604 54.6511 295.985 55.4781C296.424 56.511 296.947 57.0207 297.569 57.0207ZM302.125 62.9263C302.578 59.209 302.908 56.4725 303.114 54.7169L302.435 55.1009C302.237 56.861 301.921 59.4604 301.49 62.9162C301.037 66.6108 300.746 69.131 300.617 70.4766C300.872 70.4766 301.082 70.4766 301.242 70.5003C301.369 69.1683 301.663 66.6437 302.125 62.9263ZM306.036 70.6227C307.755 70.6219 309.463 70.3489 311.096 69.814C311.096 69.729 311.096 69.6475 311.096 69.5625C309.48 70.2034 307.761 70.5487 306.023 70.5819C306.023 70.5819 306.036 70.6125 306.036 70.6227ZM304.592 74.6254C302.899 74.3664 301.188 74.2381 299.475 74.2415H299.281C300.85 74.2584 302.416 74.3844 303.967 74.6186C305.037 74.8079 306.117 74.9361 307.202 75.0026C307.314 75.0026 307.419 75.0026 307.525 75.0026C306.954 74.9584 305.982 74.8361 304.592 74.6254ZM294.867 73.5823C295.067 73.0327 295.358 72.5204 295.727 72.0668C296.168 71.5935 296.704 71.2194 297.3 70.9693C297.989 70.6474 298.739 70.4793 299.499 70.4766H298.921C298.144 70.4726 297.376 70.6409 296.672 70.9693C296.076 71.2185 295.54 71.5927 295.102 72.0668C294.73 72.5189 294.44 73.0315 294.242 73.5823C294.041 74.0578 293.926 74.5651 293.902 75.0808C294.113 75.006 294.327 74.9482 294.541 74.8837C294.591 74.4372 294.701 73.9995 294.867 73.5823Z" fill="black"/>
<defs>
<linearGradient id="paint0_linear_601_698" x1="515.889" y1="175.715" x2="515.889" y2="147.207" gradientUnits="userSpaceOnUse">
<stop offset="0.01" stop-color="#D3D7DB"/>
<stop offset="1" stop-color="#8C9196"/>
</linearGradient>
<linearGradient id="paint1_linear_601_698" x1="535.345" y1="186.12" x2="535.345" y2="156.466" gradientUnits="userSpaceOnUse">
<stop offset="0.01" stop-color="#D3D7DB"/>
<stop offset="1" stop-color="#8C9196"/>
</linearGradient>
<linearGradient id="paint2_linear_601_698" x1="554.802" y1="175.715" x2="554.802" y2="147.207" gradientUnits="userSpaceOnUse">
<stop offset="0.01" stop-color="#D3D7DB"/>
<stop offset="1" stop-color="#8C9196"/>
</linearGradient>
<linearGradient id="paint3_linear_601_698" x1="522.352" y1="135.215" x2="493.887" y2="135.215" gradientUnits="userSpaceOnUse">
<stop stop-color="#B0B4B9"/>
<stop offset="0.99" stop-color="#9EA2A7"/>
</linearGradient>
<linearGradient id="paint4_linear_601_698" x1="4919.91" y1="135.215" x2="4891.45" y2="135.215" gradientUnits="userSpaceOnUse">
<stop stop-color="#B0B4B9"/>
<stop offset="0.99" stop-color="#9EA2A7"/>
</linearGradient>
<linearGradient id="paint5_linear_601_698" x1="535.345" y1="170.071" x2="535.345" y2="106.326" gradientUnits="userSpaceOnUse">
<stop stop-color="#7A7F85"/>
<stop offset="1" stop-color="#C1C6CA"/>
</linearGradient>
<linearGradient id="paint6_linear_601_698" x1="535.345" y1="168.61" x2="535.345" y2="107.791" gradientUnits="userSpaceOnUse">
<stop stop-color="#B0B4B9"/>
<stop offset="1" stop-color="#E5E9EC"/>
</linearGradient>
<linearGradient id="paint7_linear_601_698" x1="535.345" y1="168.61" x2="535.345" y2="132.5" gradientUnits="userSpaceOnUse">
<stop stop-color="#B0B4B9"/>
<stop offset="1" stop-color="#E5E9EC"/>
</linearGradient>
<linearGradient id="paint8_linear_601_698" x1="535.346" y1="164.193" x2="535.346" y2="112.204" gradientUnits="userSpaceOnUse">
<stop offset="0.01" stop-color="#D3D7DB"/>
<stop offset="1" stop-color="#9EA2A7"/>
</linearGradient>
<linearGradient id="paint9_linear_601_698" x1="535.346" y1="162.195" x2="535.346" y2="114.206" gradientUnits="userSpaceOnUse">
<stop stop-color="#8C9196"/>
<stop offset="0.99" stop-color="#D3D7DB"/>
</linearGradient>
<linearGradient id="paint10_linear_601_698" x1="535.349" y1="156.408" x2="535.349" y2="174.862" gradientUnits="userSpaceOnUse">
<stop stop-color="#8C9196"/>
<stop offset="1" stop-color="#9EA2A7"/>
</linearGradient>
<linearGradient id="paint11_linear_601_698" x1="536.583" y1="161.247" x2="531.363" y2="161.505" gradientUnits="userSpaceOnUse">
<stop stop-color="#0C60E7"/>
<stop offset="0.07" stop-color="#0E5EDF"/>
<stop offset="1" stop-color="#2E3E70"/>
</linearGradient>
<linearGradient id="paint12_linear_601_698" x1="535.219" y1="161.458" x2="538.817" y2="161.458" gradientUnits="userSpaceOnUse">
<stop stop-color="#0C60E7"/>
<stop offset="1" stop-color="#2E3E70"/>
</linearGradient>
<linearGradient id="paint13_linear_601_698" x1="535.22" y1="161.716" x2="535.22" y2="167.999" gradientUnits="userSpaceOnUse">
<stop stop-color="#0C60E7"/>
<stop offset="1" stop-color="#2E3E70"/>
</linearGradient>
<linearGradient id="paint14_linear_601_698" x1="535.345" y1="217.241" x2="535.345" y2="450" gradientUnits="userSpaceOnUse">
<stop stop-color="white"/>
<stop offset="0.447769" stop-color="#828282"/>
<stop offset="1" stop-color="#202020"/>
</linearGradient>
<linearGradient id="paint15_linear_601_698" x1="50.3718" y1="252.931" x2="50.3718" y2="224.422" gradientUnits="userSpaceOnUse">
<stop offset="0.01" stop-color="#F7C55B"/>
<stop offset="1" stop-color="#C57732"/>
</linearGradient>
<linearGradient id="paint16_linear_601_698" x1="69.8269" y1="263.336" x2="69.8269" y2="233.682" gradientUnits="userSpaceOnUse">
<stop offset="0.01" stop-color="#F7C55B"/>
<stop offset="1" stop-color="#C57732"/>
</linearGradient>
<linearGradient id="paint17_linear_601_698" x1="89.2844" y1="252.931" x2="89.2844" y2="224.422" gradientUnits="userSpaceOnUse">
<stop offset="0.01" stop-color="#F7C55B"/>
<stop offset="1" stop-color="#C57732"/>
</linearGradient>
<linearGradient id="paint18_linear_601_698" x1="69.8277" y1="247.29" x2="69.8277" y2="183.542" gradientUnits="userSpaceOnUse">
<stop stop-color="#AA5C1F"/>
<stop offset="1" stop-color="#D6974B"/>
</linearGradient>
<linearGradient id="paint19_linear_601_698" x1="69.8275" y1="245.826" x2="69.8275" y2="185.006" gradientUnits="userSpaceOnUse">
<stop stop-color="#D98B33"/>
<stop offset="1" stop-color="#F9E595"/>
</linearGradient>
<linearGradient id="paint20_linear_601_698" x1="69.8275" y1="245.826" x2="69.8275" y2="209.719" gradientUnits="userSpaceOnUse">
<stop stop-color="#D98B33"/>
<stop offset="1" stop-color="#F9E595"/>
</linearGradient>
<linearGradient id="paint21_linear_601_698" x1="69.8282" y1="241.412" x2="69.8282" y2="189.42" gradientUnits="userSpaceOnUse">
<stop offset="0.01" stop-color="#F7C55B"/>
<stop offset="1" stop-color="#E18631"/>
</linearGradient>
<linearGradient id="paint22_linear_601_698" x1="69.8283" y1="239.411" x2="69.8283" y2="191.422" gradientUnits="userSpaceOnUse">
<stop stop-color="#C57732"/>
<stop offset="0.99" stop-color="#F7C55B"/>
</linearGradient>
<linearGradient id="paint23_linear_601_698" x1="69.8959" y1="233.597" x2="69.8959" y2="252.051" gradientUnits="userSpaceOnUse">
<stop stop-color="#D98B33"/>
<stop offset="1" stop-color="#E18631"/>
</linearGradient>
<linearGradient id="paint24_linear_601_698" x1="71.1256" y1="238.439" x2="65.9097" y2="238.697" gradientUnits="userSpaceOnUse">
<stop stop-color="#0C60E7"/>
<stop offset="0.07" stop-color="#0E5EDF"/>
<stop offset="1" stop-color="#2E3E70"/>
</linearGradient>
<linearGradient id="paint25_linear_601_698" x1="69.7656" y1="238.65" x2="73.3606" y2="238.65" gradientUnits="userSpaceOnUse">
<stop stop-color="#0C60E7"/>
<stop offset="1" stop-color="#2E3E70"/>
</linearGradient>
<linearGradient id="paint26_linear_601_698" x1="69.7667" y1="238.908" x2="69.7667" y2="245.191" gradientUnits="userSpaceOnUse">
<stop stop-color="#0C60E7"/>
<stop offset="1" stop-color="#2E3E70"/>
</linearGradient>
<linearGradient id="paint27_linear_601_698" x1="69.8276" y1="294.828" x2="69.8276" y2="450" gradientUnits="userSpaceOnUse">
<stop stop-color="white"/>
<stop offset="0.447769" stop-color="#828282"/>
<stop offset="1" stop-color="#202020"/>
</linearGradient>
<linearGradient id="paint28_linear_601_698" x1="302.587" y1="139.655" x2="302.587" y2="450" gradientUnits="userSpaceOnUse">
<stop stop-color="white"/>
<stop offset="0.447769" stop-color="#828282"/>
<stop offset="1" stop-color="#202020"/>
</linearGradient>
<linearGradient id="paint29_linear_601_698" x1="283.193" y1="101.116" x2="283.193" y2="72.6071" gradientUnits="userSpaceOnUse">
<stop offset="0.01" stop-color="#FFED48"/>
<stop offset="1" stop-color="#E89000"/>
</linearGradient>
<linearGradient id="paint30_linear_601_698" x1="302.639" y1="111.52" x2="302.639" y2="81.8663" gradientUnits="userSpaceOnUse">
<stop offset="0.01" stop-color="#FFED48"/>
<stop offset="1" stop-color="#E89000"/>
</linearGradient>
<linearGradient id="paint31_linear_601_698" x1="322.101" y1="101.116" x2="322.101" y2="72.6069" gradientUnits="userSpaceOnUse">
<stop offset="0.01" stop-color="#FFED48"/>
<stop offset="1" stop-color="#E89000"/>
</linearGradient>
<linearGradient id="paint32_linear_601_698" x1="274.364" y1="87.0926" x2="274.364" y2="25.0123" gradientUnits="userSpaceOnUse">
<stop stop-color="#E89000"/>
<stop offset="0.99" stop-color="#FFED48"/>
</linearGradient>
<linearGradient id="paint33_linear_601_698" x1="330.806" y1="87.0926" x2="330.806" y2="25.0123" gradientUnits="userSpaceOnUse">
<stop stop-color="#E89000"/>
<stop offset="0.99" stop-color="#FFED48"/>
</linearGradient>
<linearGradient id="paint34_linear_601_698" x1="302.64" y1="95.4751" x2="302.64" y2="31.7265" gradientUnits="userSpaceOnUse">
<stop stop-color="#E48200"/>
<stop offset="1" stop-color="#FDE833"/>
</linearGradient>
<linearGradient id="paint35_linear_601_698" x1="302.646" y1="94.0109" x2="302.646" y2="33.1912" gradientUnits="userSpaceOnUse">
<stop stop-color="#FBD600"/>
<stop offset="1" stop-color="#FEF15A"/>
</linearGradient>
<linearGradient id="paint36_linear_601_698" x1="302.646" y1="94.0107" x2="302.646" y2="57.9042" gradientUnits="userSpaceOnUse">
<stop stop-color="#FBD600"/>
<stop offset="1" stop-color="#FEF15A"/>
</linearGradient>
<linearGradient id="paint37_linear_601_698" x1="302.647" y1="89.5969" x2="302.647" y2="37.6051" gradientUnits="userSpaceOnUse">
<stop offset="0.01" stop-color="#FFED48"/>
<stop offset="1" stop-color="#F3AE00"/>
</linearGradient>
<linearGradient id="paint38_linear_601_698" x1="302.643" y1="87.5955" x2="302.643" y2="39.6064" gradientUnits="userSpaceOnUse">
<stop stop-color="#E89000"/>
<stop offset="0.99" stop-color="#FFED48"/>
</linearGradient>
<linearGradient id="paint39_linear_601_698" x1="302.656" y1="79.8346" x2="302.656" y2="112.445" gradientUnits="userSpaceOnUse">
<stop offset="0.01" stop-color="#FFED48"/>
<stop offset="1" stop-color="#E89000"/>
</linearGradient>
<linearGradient id="paint40_linear_601_698" x1="303.885" y1="86.6338" x2="298.669" y2="86.8921" gradientUnits="userSpaceOnUse">
<stop stop-color="#0C60E7"/>
<stop offset="0.07" stop-color="#0E5EDF"/>
<stop offset="1" stop-color="#2E3E70"/>
</linearGradient>
<linearGradient id="paint41_linear_601_698" x1="302.529" y1="86.8445" x2="306.124" y2="86.8445" gradientUnits="userSpaceOnUse">
<stop stop-color="#0C60E7"/>
<stop offset="1" stop-color="#2E3E70"/>
</linearGradient>
<linearGradient id="paint42_linear_601_698" x1="302.528" y1="87.1027" x2="302.528" y2="93.3854" gradientUnits="userSpaceOnUse">
<stop stop-color="#0C60E7"/>
<stop offset="1" stop-color="#2E3E70"/>
</linearGradient>
<clipPath id="clip0_601_698">
<rect width="139.655" height="139.655" fill="white" transform="translate(465.518 77.5862)"/>
</clipPath>
<clipPath id="clip1_601_698">
<rect width="139.655" height="139.655" fill="white" transform="translate(0 155.172)"/>
</clipPath>
</defs>
</svg>
