<svg width="414" height="512" viewBox="0 0 414 512" fill="none" xmlns="http://www.w3.org/2000/svg">
<path d="M88.2252 320.753C110.871 342.917 125.074 369.617 129.984 395.343C131.012 400.731 122.745 409.178 117.336 408.266C91.51 403.91 64.5116 390.283 41.8661 368.119C19.2206 345.955 5.01716 319.255 0.106977 293.529C-0.921039 288.14 7.34626 279.694 12.7554 280.606C38.5813 284.962 65.5797 298.588 88.2252 320.753Z" fill="url(#paint0_linear_360_85)"/>
<path d="M88.2252 320.753C110.871 342.917 125.074 369.617 129.984 395.343C131.012 400.731 122.745 409.178 117.336 408.266C91.51 403.91 64.5116 390.283 41.8661 368.119C19.2206 345.955 5.01716 319.255 0.106977 293.529C-0.921039 288.14 7.34626 279.694 12.7554 280.606C38.5813 284.962 65.5797 298.588 88.2252 320.753Z" fill="url(#paint1_linear_360_85)"/>
<path d="M118.934 268.261C137.092 303.748 143.367 341.271 138.945 373.922C138.02 380.759 124.782 387.533 118.694 384.283C89.6278 368.769 62.8663 341.727 44.7094 306.24C26.5524 270.754 20.2769 233.23 24.6982 200.58C25.6238 193.742 38.8615 186.968 44.9493 190.218C74.0148 205.733 100.776 232.774 118.934 268.261Z" fill="url(#paint2_linear_360_85)"/>
<path d="M24.3535 239.468C26.7529 261.409 33.441 284.216 44.71 306.24C62.868 341.727 89.6285 368.769 118.695 384.283C124.782 387.532 138.02 380.758 138.946 373.922C143.367 341.272 137.093 303.748 118.935 268.261C108.243 247.364 94.5658 229.401 79.1927 214.991L24.3535 239.468Z" fill="url(#paint3_linear_360_85)"/>
<path d="M325.167 320.753C302.521 342.917 288.318 369.617 283.408 395.343C282.38 400.731 290.647 409.178 296.056 408.266C321.882 403.91 348.881 390.283 371.526 368.119C394.171 345.955 408.375 319.255 413.285 293.529C414.313 288.14 406.046 279.694 400.637 280.606C374.811 284.962 347.812 298.588 325.167 320.753Z" fill="url(#paint4_linear_360_85)"/>
<path d="M325.167 320.753C302.521 342.917 288.318 369.617 283.408 395.343C282.38 400.731 290.647 409.178 296.056 408.266C321.882 403.91 348.881 390.283 371.526 368.119C394.171 345.955 408.375 319.255 413.285 293.529C414.313 288.14 406.046 279.694 400.637 280.606C374.811 284.962 347.812 298.588 325.167 320.753Z" fill="url(#paint5_linear_360_85)"/>
<path d="M294.458 268.261C276.3 303.748 270.025 341.271 274.446 373.922C275.372 380.759 288.61 387.533 294.697 384.283C323.764 368.769 350.526 341.727 368.682 306.24C386.839 270.754 393.115 233.23 388.694 200.58C387.768 193.742 374.53 186.968 368.443 190.218C339.377 205.733 312.615 232.774 294.458 268.261Z" fill="url(#paint6_linear_360_85)"/>
<path d="M389.039 239.468C386.64 261.409 379.951 284.216 368.682 306.24C350.525 341.727 323.764 368.769 294.697 384.283C288.611 387.532 275.373 380.758 274.446 373.922C270.025 341.272 276.3 303.748 294.458 268.261C305.149 247.364 318.827 229.401 334.2 214.991L389.039 239.468Z" fill="url(#paint7_linear_360_85)"/>
<path d="M206.697 512C294.869 512 366.346 440.522 366.346 352.35C366.346 264.178 294.869 192.701 206.697 192.701C118.524 192.701 47.0469 264.178 47.0469 352.35C47.0469 440.522 118.524 512 206.697 512Z" fill="url(#paint8_linear_360_85)"/>
<path d="M206.695 479.602C276.975 479.602 333.948 422.63 333.948 352.35C333.948 282.071 276.975 225.098 206.695 225.098C136.416 225.098 79.4434 282.071 79.4434 352.35C79.4434 422.63 136.416 479.602 206.695 479.602Z" fill="url(#paint9_linear_360_85)"/>
<path d="M206.696 461.597C267.031 461.597 315.943 412.686 315.943 352.35C315.943 292.015 267.031 243.104 206.696 243.104C146.361 243.104 97.4492 292.015 97.4492 352.35C97.4492 412.686 146.361 461.597 206.696 461.597Z" fill="url(#paint10_linear_360_85)"/>
<path d="M47.0469 352.35C47.0469 440.523 118.524 512 206.697 512C294.869 512 366.346 440.523 366.346 352.35C366.346 351.731 366.33 351.115 366.323 350.497H47.07C47.0629 351.115 47.0469 351.731 47.0469 352.35Z" fill="url(#paint11_linear_360_85)"/>
<path d="M251.472 505.625C301.778 490.954 341.808 452.197 358.246 402.671L280.489 324.914L262.959 325.775L215.649 278.464L157.988 412.141L251.472 505.625Z" fill="url(#paint12_linear_360_85)"/>
<path d="M272.16 317.66L240.85 310.095C237.938 309.391 235.393 307.626 233.714 305.144L215.665 278.465C213.482 275.238 210.137 273.506 206.696 273.227C203.255 273.506 199.91 275.238 197.727 278.465L179.678 305.144C178 307.626 175.454 309.392 172.542 310.095L141.232 317.66C132.739 319.712 129.2 329.848 134.569 336.741L154.366 362.151C156.207 364.514 157.1 367.481 156.869 370.468L154.389 402.583C153.716 411.294 162.262 417.793 170.478 414.815L200.761 403.841C202.66 403.156 204.702 402.962 206.696 403.275C208.691 402.963 210.732 403.157 212.631 403.841L242.915 414.815C251.129 417.792 259.676 411.294 259.003 402.583L256.523 370.468C256.292 367.48 257.185 364.515 259.026 362.151L278.823 336.741C284.192 329.848 280.653 319.712 272.16 317.66Z" fill="url(#paint13_linear_360_85)"/>
<path d="M212.63 403.841L242.914 414.815C251.128 417.792 259.675 411.294 259.003 402.583L256.522 370.468C256.291 367.48 257.185 364.515 259.026 362.151L278.822 336.741C284.192 329.849 280.652 319.712 272.159 317.66L240.85 310.095C237.937 309.391 235.392 307.626 233.713 305.144L215.664 278.465C213.481 275.238 210.137 273.506 206.695 273.227V403.275C208.69 402.962 210.731 403.156 212.63 403.841Z" fill="url(#paint14_linear_360_85)"/>
<path d="M272.159 317.66L240.85 310.095C239.79 309.838 238.77 309.438 237.818 308.906L158.004 412.142C161.135 415.168 165.859 416.49 170.477 414.816L200.76 403.841C202.659 403.157 204.701 402.963 206.695 403.276C208.69 402.963 210.731 403.158 212.63 403.841L242.914 414.816C251.128 417.793 259.675 411.295 259.002 402.584L256.522 370.469C256.291 367.481 257.184 364.516 259.026 362.152L278.822 336.742C284.191 329.848 280.652 319.712 272.159 317.66Z" fill="url(#paint15_linear_360_85)"/>
<path d="M141.232 317.66L172.542 310.095C173.602 309.838 174.622 309.438 175.573 308.906L255.387 412.142C252.256 415.168 247.533 416.49 242.915 414.816L212.631 403.841C210.732 403.157 208.69 402.963 206.696 403.276C204.702 402.963 202.66 403.158 200.761 403.841L170.478 414.816C162.263 417.793 153.716 411.295 154.389 402.584L156.869 370.469C157.1 367.481 156.207 364.516 154.366 362.152L134.569 336.742C129.2 329.848 132.739 319.712 141.232 317.66Z" fill="url(#paint16_linear_360_85)"/>
<path d="M132.898 324.915C131.409 328.67 131.766 333.144 134.568 336.741L154.365 362.151C156.206 364.514 157.099 367.481 156.868 370.468L154.388 402.583C153.715 411.294 162.262 417.793 170.477 414.815L200.76 403.84C202.659 403.156 204.701 402.962 206.695 403.275C208.69 402.963 210.731 403.157 212.63 403.84L242.914 414.815C251.128 417.792 259.675 411.294 259.002 402.583L256.522 370.468C256.398 368.825 256.615 367.174 257.157 365.618L132.898 324.915Z" fill="url(#paint17_linear_360_85)"/>
<path d="M280.505 324.915C281.994 328.67 281.638 333.144 278.835 336.741L259.038 362.151C257.197 364.514 256.304 367.481 256.535 370.468L259.015 402.583C259.688 411.294 251.14 417.793 242.926 414.815L212.643 403.84C210.744 403.156 208.702 402.962 206.708 403.275C204.713 402.963 202.672 403.157 200.773 403.84L170.489 414.815C162.275 417.792 153.728 411.294 154.401 402.583L156.881 370.468C157.005 368.825 156.788 367.174 156.246 365.618L280.505 324.915Z" fill="url(#paint18_linear_360_85)"/>
<path d="M206.695 192.701C206.033 192.701 205.375 192.718 204.714 192.726L180.076 217.364L359.94 397.228C364.198 382.649 366.355 367.537 366.345 352.349C366.345 264.178 294.868 192.701 206.695 192.701Z" fill="url(#paint19_linear_360_85)"/>
<path d="M110.32 3.34607V87.6755L206.697 184.052L303.073 87.6755V3.34607H110.32Z" fill="url(#paint20_linear_360_85)"/>
<path d="M110.32 3.34607V29.5906L206.375 125.645C206.46 125.73 206.576 125.778 206.697 125.778C206.818 125.778 206.934 125.73 207.019 125.645L303.073 29.5906V3.34607H110.32Z" fill="url(#paint21_linear_360_85)"/>
<path d="M206.697 140.83C204.66 140.834 202.642 140.435 200.759 139.657C198.877 138.878 197.166 137.735 195.727 136.293L110.32 50.8868V87.6765L206.697 184.053L303.073 87.6765V50.8868L217.667 136.293C216.227 137.735 214.517 138.878 212.634 139.656C210.752 140.435 208.734 140.834 206.697 140.83Z" fill="url(#paint22_linear_360_85)"/>
<path d="M110.32 3.34607V29.5906L206.375 125.645C206.46 125.73 206.576 125.778 206.697 125.778C206.818 125.778 206.934 125.73 207.019 125.645L303.073 29.5906V3.34607H110.32Z" fill="url(#paint23_linear_360_85)"/>
<path d="M206.697 140.83C204.66 140.834 202.642 140.435 200.759 139.657C198.877 138.878 197.166 137.735 195.727 136.293L110.32 50.8868V87.6765L206.697 184.053L303.073 87.6765V50.8868L217.667 136.293C216.227 137.735 214.517 138.878 212.634 139.656C210.752 140.435 208.734 140.834 206.697 140.83Z" fill="url(#paint24_linear_360_85)"/>
<path d="M206.697 140.83C210.67 140.83 214.643 139.318 217.667 136.293L303.073 50.8868V87.6765L206.697 184.053L110.32 87.6765V50.8868L195.727 136.293C197.167 137.735 198.877 138.877 200.759 139.656C202.642 140.435 204.66 140.834 206.697 140.83Z" fill="url(#paint25_linear_360_85)"/>
<path d="M196.127 162.16L114.113 80.1461C107.963 73.9961 97.9911 73.9961 91.841 80.1461C85.691 86.2961 85.691 96.2681 91.841 102.418L206.696 217.275L321.551 102.419C327.701 96.2691 327.701 86.2971 321.551 80.1471C315.401 73.9971 305.429 73.9971 299.279 80.1471L217.265 162.161C211.427 167.998 201.964 167.998 196.127 162.16Z" fill="url(#paint26_linear_360_85)"/>
<path d="M91.8411 80.3328L194.604 183.095C201.283 189.774 212.112 189.774 218.791 183.095L321.552 80.3328C321.583 80.3027 321.607 80.2696 321.637 80.2395C321.608 80.2093 321.583 80.1762 321.552 80.1461C315.402 73.9961 305.43 73.9961 299.28 80.1461L217.266 162.16C211.429 167.997 201.965 167.997 196.129 162.16L114.114 80.1461C107.964 73.9961 97.9922 73.9961 91.8421 80.1461C91.812 80.1762 91.7879 80.2093 91.7578 80.2395C91.7869 80.2696 91.811 80.3027 91.8411 80.3328Z" fill="url(#paint27_linear_360_85)"/>
<path d="M206.696 217.275L287.772 136.199H243.227L217.264 162.161C211.427 167.998 201.963 167.998 196.127 162.161L170.164 136.199H125.619L206.696 217.275Z" fill="url(#paint28_linear_360_85)"/>
<path d="M196.656 207.236L206.695 217.275L309.523 114.447H264.978L217.265 162.16C211.598 167.828 202.523 167.975 196.656 162.639V207.236Z" fill="url(#paint29_linear_360_85)"/>
<path d="M206.696 228.39C227.487 228.39 244.341 211.536 244.341 190.745C244.341 169.954 227.487 153.1 206.696 153.1C185.905 153.1 169.051 169.954 169.051 190.745C169.051 211.536 185.905 228.39 206.696 228.39Z" fill="url(#paint30_linear_360_85)"/>
<path d="M206.696 212.327C218.615 212.327 228.278 202.665 228.278 190.745C228.278 178.826 218.615 169.163 206.696 169.163C194.776 169.163 185.113 178.826 185.113 190.745C185.113 202.665 194.776 212.327 206.696 212.327Z" fill="url(#paint31_linear_360_85)"/>
<path d="M317.631 37.4794H95.7599C89.385 37.4794 84.2168 32.3112 84.2168 25.9363V11.5431C84.2168 5.16819 89.385 0 95.7599 0H317.632C324.005 0 329.174 5.16819 329.174 11.5431V25.9373C329.174 32.3122 324.005 37.4794 317.631 37.4794Z" fill="url(#paint32_linear_360_85)"/>
<defs>
<linearGradient id="paint0_linear_360_85" x1="28.5745" y1="287.628" x2="61.3876" y2="339.308" gradientUnits="userSpaceOnUse">
<stop stop-color="#FBC56D"/>
<stop offset="1" stop-color="#C5715A"/>
</linearGradient>
<linearGradient id="paint1_linear_360_85" x1="33.192" y1="333.138" x2="68.2036" y2="345.912" gradientUnits="userSpaceOnUse">
<stop stop-color="#8C3D27" stop-opacity="0"/>
<stop offset="1" stop-color="#8C3D27"/>
</linearGradient>
<linearGradient id="paint2_linear_360_85" x1="84.6996" y1="232.523" x2="80.1023" y2="313.796" gradientUnits="userSpaceOnUse">
<stop stop-color="#FBC56D"/>
<stop offset="1" stop-color="#C5715A"/>
</linearGradient>
<linearGradient id="paint3_linear_360_85" x1="74.2553" y1="273.735" x2="94.1063" y2="310.952" gradientUnits="userSpaceOnUse">
<stop stop-color="#8C3D27" stop-opacity="0"/>
<stop offset="1" stop-color="#8C3D27"/>
</linearGradient>
<linearGradient id="paint4_linear_360_85" x1="384.538" y1="287.773" x2="351.724" y2="339.452" gradientUnits="userSpaceOnUse">
<stop stop-color="#FBC56D"/>
<stop offset="1" stop-color="#C5715A"/>
</linearGradient>
<linearGradient id="paint5_linear_360_85" x1="379.92" y1="333.281" x2="344.908" y2="346.056" gradientUnits="userSpaceOnUse">
<stop stop-color="#8C3D27" stop-opacity="0"/>
<stop offset="1" stop-color="#8C3D27"/>
</linearGradient>
<linearGradient id="paint6_linear_360_85" x1="328.412" y1="232.668" x2="333.009" y2="313.939" gradientUnits="userSpaceOnUse">
<stop stop-color="#FBC56D"/>
<stop offset="1" stop-color="#C5715A"/>
</linearGradient>
<linearGradient id="paint7_linear_360_85" x1="338.857" y1="273.878" x2="319.006" y2="311.096" gradientUnits="userSpaceOnUse">
<stop stop-color="#8C3D27" stop-opacity="0"/>
<stop offset="1" stop-color="#8C3D27"/>
</linearGradient>
<linearGradient id="paint8_linear_360_85" x1="108.266" y1="253.92" x2="276.64" y2="422.294" gradientUnits="userSpaceOnUse">
<stop stop-color="#FBC56D"/>
<stop offset="1" stop-color="#C5715A"/>
</linearGradient>
<linearGradient id="paint9_linear_360_85" x1="289.344" y1="434.999" x2="121.635" y2="267.29" gradientUnits="userSpaceOnUse">
<stop stop-color="#FBC56D"/>
<stop offset="1" stop-color="#C5715A"/>
</linearGradient>
<linearGradient id="paint10_linear_360_85" x1="127.277" y1="272.931" x2="258.004" y2="403.659" gradientUnits="userSpaceOnUse">
<stop stop-color="#FBC56D"/>
<stop offset="1" stop-color="#C5715A"/>
</linearGradient>
<linearGradient id="paint11_linear_360_85" x1="206.697" y1="399.061" x2="206.697" y2="503.85" gradientUnits="userSpaceOnUse">
<stop stop-color="#8C3D27" stop-opacity="0"/>
<stop offset="1" stop-color="#8C3D27"/>
</linearGradient>
<linearGradient id="paint12_linear_360_85" x1="302.313" y1="435.32" x2="170.464" y2="352.329" gradientUnits="userSpaceOnUse">
<stop stop-color="#8C3D27" stop-opacity="0"/>
<stop offset="1" stop-color="#8C3D27"/>
</linearGradient>
<linearGradient id="paint13_linear_360_85" x1="173.44" y1="322.005" x2="233.41" y2="381.974" gradientUnits="userSpaceOnUse">
<stop stop-color="#FBC56D"/>
<stop offset="1" stop-color="#C5715A"/>
</linearGradient>
<linearGradient id="paint14_linear_360_85" x1="242.629" y1="338.356" x2="159.742" y2="372.622" gradientUnits="userSpaceOnUse">
<stop stop-color="#8C3D27" stop-opacity="0"/>
<stop offset="1" stop-color="#8C3D27"/>
</linearGradient>
<linearGradient id="paint15_linear_360_85" x1="220.987" y1="367.771" x2="175.608" y2="348.322" gradientUnits="userSpaceOnUse">
<stop stop-color="#8C3D27" stop-opacity="0"/>
<stop offset="1" stop-color="#8C3D27"/>
</linearGradient>
<linearGradient id="paint16_linear_360_85" x1="192.404" y1="367.771" x2="237.783" y2="348.322" gradientUnits="userSpaceOnUse">
<stop stop-color="#8C3D27" stop-opacity="0"/>
<stop offset="1" stop-color="#8C3D27"/>
</linearGradient>
<linearGradient id="paint17_linear_360_85" x1="193.412" y1="370.046" x2="222.584" y2="323.162" gradientUnits="userSpaceOnUse">
<stop stop-color="#8C3D27" stop-opacity="0"/>
<stop offset="1" stop-color="#8C3D27"/>
</linearGradient>
<linearGradient id="paint18_linear_360_85" x1="217.742" y1="364.125" x2="215.311" y2="318.283" gradientUnits="userSpaceOnUse">
<stop stop-color="#8C3D27" stop-opacity="0"/>
<stop offset="1" stop-color="#8C3D27"/>
</linearGradient>
<linearGradient id="paint19_linear_360_85" x1="285.366" y1="284.905" x2="223.793" y2="177.151" gradientUnits="userSpaceOnUse">
<stop stop-color="#8C3D27" stop-opacity="0"/>
<stop offset="1" stop-color="#8C3D27"/>
</linearGradient>
<linearGradient id="paint20_linear_360_85" x1="213.837" y1="56.8983" x2="253.492" y2="120.145" gradientUnits="userSpaceOnUse">
<stop stop-color="#F9F5F3"/>
<stop offset="1" stop-color="#D8E8F0"/>
</linearGradient>
<linearGradient id="paint21_linear_360_85" x1="174.283" y1="-20.7009" x2="297.431" y2="120.517" gradientUnits="userSpaceOnUse">
<stop stop-color="#BBEC6C"/>
<stop offset="1" stop-color="#81B823"/>
</linearGradient>
<linearGradient id="paint22_linear_360_85" x1="148.123" y1="2.11225" x2="271.27" y2="143.33" gradientUnits="userSpaceOnUse">
<stop stop-color="#BBEC6C"/>
<stop offset="1" stop-color="#81B823"/>
</linearGradient>
<linearGradient id="paint23_linear_360_85" x1="206.697" y1="66.7608" x2="206.697" y2="33.5972" gradientUnits="userSpaceOnUse">
<stop stop-color="#78A91F" stop-opacity="0"/>
<stop offset="1" stop-color="#78A91F"/>
</linearGradient>
<linearGradient id="paint24_linear_360_85" x1="244.841" y1="107.425" x2="261.978" y2="124.562" gradientUnits="userSpaceOnUse">
<stop stop-color="#78A91F" stop-opacity="0"/>
<stop offset="1" stop-color="#78A91F"/>
</linearGradient>
<linearGradient id="paint25_linear_360_85" x1="168.553" y1="107.425" x2="151.416" y2="124.562" gradientUnits="userSpaceOnUse">
<stop stop-color="#78A91F" stop-opacity="0"/>
<stop offset="1" stop-color="#78A91F"/>
</linearGradient>
<linearGradient id="paint26_linear_360_85" x1="293.722" y1="178.309" x2="87.8575" y2="-27.5556" gradientUnits="userSpaceOnUse">
<stop stop-color="#FBC56D"/>
<stop offset="1" stop-color="#C5715A"/>
</linearGradient>
<linearGradient id="paint27_linear_360_85" x1="206.697" y1="81.9873" x2="206.697" y2="222.575" gradientUnits="userSpaceOnUse">
<stop stop-color="#FBC56D"/>
<stop offset="1" stop-color="#C5715A"/>
</linearGradient>
<linearGradient id="paint28_linear_360_85" x1="206.696" y1="163.639" x2="206.696" y2="209.864" gradientUnits="userSpaceOnUse">
<stop stop-color="#8C3D27" stop-opacity="0"/>
<stop offset="1" stop-color="#8C3D27"/>
</linearGradient>
<linearGradient id="paint29_linear_360_85" x1="254.148" y1="137.466" x2="226.038" y2="166.078" gradientUnits="userSpaceOnUse">
<stop stop-color="#8C3D27" stop-opacity="0"/>
<stop offset="1" stop-color="#8C3D27"/>
</linearGradient>
<linearGradient id="paint30_linear_360_85" x1="185.112" y1="169.161" x2="238.349" y2="222.399" gradientUnits="userSpaceOnUse">
<stop stop-color="#FBC56D"/>
<stop offset="1" stop-color="#C5715A"/>
</linearGradient>
<linearGradient id="paint31_linear_360_85" x1="222.005" y1="206.055" x2="195.651" y2="179.701" gradientUnits="userSpaceOnUse">
<stop stop-color="#FBC56D"/>
<stop offset="1" stop-color="#C5715A"/>
</linearGradient>
<linearGradient id="paint32_linear_360_85" x1="206.695" y1="11.3774" x2="206.695" y2="32.2972" gradientUnits="userSpaceOnUse">
<stop stop-color="#FBC56D"/>
<stop offset="1" stop-color="#C5715A"/>
</linearGradient>
</defs>
</svg>
