<svg width="513" height="448" viewBox="0 0 513 448" fill="none" xmlns="http://www.w3.org/2000/svg">
<path d="M318.513 43.1107L288.793 35.9297C286.028 35.2617 283.612 33.5855 282.018 31.2293L264.887 5.9044C262.814 2.84144 259.639 1.19802 256.372 0.932983C253.106 1.19802 249.931 2.84144 247.858 5.9044L230.726 31.2293C229.132 33.5851 226.716 35.2613 223.952 35.9297L194.232 43.1107C186.17 45.0584 182.81 54.6809 187.907 61.2235L206.698 85.3427C208.446 87.5865 209.294 90.4018 209.075 93.2376L206.72 123.722C206.082 131.991 214.195 138.159 221.992 135.333L250.737 124.915C252.54 124.266 254.478 124.081 256.371 124.378C258.265 124.081 260.202 124.266 262.005 124.915L290.751 135.333C298.548 138.159 306.661 131.99 306.022 123.722L303.668 93.2376C303.449 90.4018 304.296 87.5865 306.044 85.3427L324.836 61.2235C329.934 54.6809 326.575 45.0594 318.513 43.1107Z" fill="url(#paint0_linear_360_120)"/>
<path d="M262.006 124.916L290.751 135.334C298.549 138.16 306.662 131.991 306.023 123.723L303.669 93.2385C303.45 90.4028 304.297 87.5874 306.045 85.3437L324.837 61.2245C329.933 54.6819 326.573 45.0603 318.512 43.1117L288.792 35.9307C286.027 35.2627 283.611 33.5865 282.017 31.2303L264.885 5.90538C262.813 2.84241 259.638 1.199 256.371 0.93396V124.379C258.265 124.082 260.203 124.266 262.006 124.916Z" fill="url(#paint1_linear_360_120)"/>
<path d="M318.515 43.1108L288.794 35.9297C287.788 35.6859 286.82 35.3059 285.916 34.8003L210.154 132.795C213.126 135.667 217.609 136.922 221.994 135.334L250.739 124.916C252.542 124.267 254.48 124.082 256.373 124.379C258.266 124.082 260.204 124.267 262.007 124.916L290.752 135.334C298.55 138.16 306.662 131.991 306.024 123.723L303.67 93.2386C303.451 90.4028 304.298 87.5875 306.046 85.3437L324.837 61.2245C329.935 54.681 326.576 45.0594 318.515 43.1108Z" fill="url(#paint2_linear_360_120)"/>
<path d="M194.232 43.1108L223.953 35.9297C224.959 35.6859 225.927 35.3059 226.831 34.8003L302.593 132.795C299.621 135.667 295.138 136.922 290.754 135.334L262.008 124.916C260.205 124.267 258.268 124.082 256.374 124.379C254.481 124.082 252.543 124.267 250.74 124.916L221.995 135.334C214.197 138.16 206.085 131.991 206.723 123.723L209.077 93.2386C209.296 90.4028 208.449 87.5875 206.701 85.3437L187.91 61.2245C182.812 54.681 186.171 45.0594 194.232 43.1108Z" fill="url(#paint3_linear_360_120)"/>
<path d="M186.323 49.9976C184.909 53.5615 185.249 57.8081 187.909 61.2235L206.7 85.3427C208.448 87.5864 209.296 90.4018 209.077 93.2375L206.723 123.722C206.084 131.991 214.197 138.159 221.994 135.333L250.739 124.915C252.542 124.265 254.48 124.081 256.373 124.378C258.267 124.081 260.205 124.265 262.008 124.915L290.753 135.333C298.55 138.159 306.663 131.99 306.024 123.722L303.67 93.2375C303.553 91.6777 303.759 90.1106 304.274 88.6335L186.323 49.9976Z" fill="url(#paint4_linear_360_120)"/>
<path d="M326.436 49.9976C327.85 53.5615 327.51 57.8081 324.85 61.2235L306.059 85.3427C304.311 87.5864 303.463 90.4018 303.682 93.2375L306.037 123.722C306.675 131.991 298.562 138.159 290.765 135.333L262.02 124.915C260.217 124.265 258.279 124.081 256.386 124.378C254.492 124.081 252.555 124.265 250.752 124.915L222.006 135.333C214.209 138.159 206.096 131.99 206.735 123.722L209.089 93.2375C209.206 91.6777 209 90.1106 208.485 88.6335L326.436 49.9976Z" fill="url(#paint5_linear_360_120)"/>
<path d="M315.403 73.3338H197.344L206.7 85.3427C208.448 87.5865 209.296 90.4018 209.077 93.2376L206.722 123.722C206.084 131.991 214.197 138.159 221.994 135.333L250.739 124.915C252.542 124.266 254.48 124.081 256.373 124.378C258.267 124.081 260.204 124.266 262.007 124.915L290.753 135.333C298.55 138.159 306.663 131.99 306.024 123.722L303.67 93.2376C303.451 90.4018 304.299 87.5865 306.046 85.3427L315.403 73.3338Z" fill="url(#paint6_linear_360_120)"/>
<path d="M179.531 90.9968L156.904 85.5294C154.8 85.0208 152.961 83.7448 151.747 81.9515L138.703 62.6711C137.979 61.5911 137.02 60.6894 135.897 60.0338C134.774 59.3783 133.517 58.9859 132.221 58.8864C130.925 58.9861 129.668 59.3785 128.545 60.034C127.422 60.6896 126.463 61.5912 125.739 62.6711L112.696 81.9515C111.482 83.7447 109.643 85.0206 107.538 85.5294L84.9121 90.9968C78.7741 92.4796 76.2171 99.8052 80.0973 104.787L94.4032 123.149C95.7339 124.858 96.379 127.001 96.2122 129.16L94.4192 152.369C93.9333 158.664 100.109 163.36 106.046 161.209L127.931 153.277C129.304 152.782 130.779 152.642 132.221 152.868C133.662 152.642 135.138 152.783 136.511 153.277L158.396 161.209C164.332 163.36 170.509 158.664 170.023 152.369L168.23 129.16C168.063 127.001 168.708 124.858 170.039 123.149L184.345 104.787C188.226 99.8062 185.668 92.4796 179.531 90.9968Z" fill="url(#paint7_linear_360_120)"/>
<path d="M136.51 153.278L158.396 161.21C164.332 163.361 170.509 158.665 170.022 152.37L168.229 129.161C168.063 127.002 168.708 124.859 170.038 123.15L184.344 104.788C188.224 99.8072 185.666 92.4806 179.53 90.9978L156.903 85.5304C154.798 85.0218 152.959 83.7458 151.746 81.9525L138.703 62.6711C137.979 61.5911 137.02 60.6894 135.897 60.0338C134.774 59.3783 133.517 58.9859 132.221 58.8864V152.869C133.662 152.643 135.138 152.784 136.51 153.278Z" fill="url(#paint8_linear_360_120)"/>
<path d="M179.53 90.9968L156.904 85.5295C156.138 85.3433 155.401 85.0542 154.713 84.6701L97.0332 159.277C99.296 161.463 102.709 162.419 106.047 161.209L127.933 153.277C129.306 152.783 130.781 152.642 132.223 152.869C133.664 152.642 135.14 152.783 136.512 153.277L158.398 161.209C164.334 163.36 170.511 158.664 170.024 152.369L168.231 129.16C168.065 127.001 168.71 124.858 170.04 123.149L184.346 104.787C188.225 99.8062 185.667 92.4796 179.53 90.9968Z" fill="url(#paint9_linear_360_120)"/>
<path d="M84.9129 90.9968L107.539 85.5295C108.305 85.3433 109.042 85.0542 109.731 84.6701L167.41 159.277C165.147 161.463 161.734 162.419 158.396 161.209L136.51 153.277C135.138 152.783 133.662 152.642 132.221 152.869C130.779 152.642 129.304 152.783 127.931 153.277L106.045 161.209C100.109 163.36 93.9321 158.664 94.419 152.369L96.212 129.16C96.3786 127.001 95.7335 124.858 94.4029 123.149L80.097 104.787C76.2169 99.8062 78.7749 92.4796 84.9129 90.9968Z" fill="url(#paint10_linear_360_120)"/>
<path d="M78.8907 96.2403C77.8145 98.9539 78.0725 102.187 80.0984 104.787L94.4043 123.149C95.735 124.858 96.3802 127.001 96.2134 129.16L94.4204 152.369C93.9345 158.664 100.111 163.36 106.047 161.209L127.932 153.277C129.305 152.783 130.781 152.642 132.222 152.869C133.664 152.642 135.139 152.783 136.512 153.277L158.397 161.209C164.333 163.36 170.511 158.664 170.024 152.369L168.231 129.16C168.142 127.972 168.298 126.779 168.691 125.655L78.8907 96.2403Z" fill="url(#paint11_linear_360_120)"/>
<path d="M185.562 96.2403C186.639 98.9539 186.381 102.187 184.355 104.787L170.049 123.149C168.718 124.858 168.073 127.001 168.24 129.16L170.033 152.369C170.519 158.664 164.342 163.36 158.406 161.209L136.521 153.277C135.148 152.783 133.673 152.642 132.231 152.869C130.79 152.642 129.314 152.783 127.941 153.277L106.056 161.209C100.12 163.36 93.9425 158.664 94.4294 152.369L96.2224 129.16C96.3114 127.972 96.1549 126.779 95.7626 125.655L185.562 96.2403Z" fill="url(#paint12_linear_360_120)"/>
<path d="M177.163 114.007H87.2812L94.4041 123.149C95.7348 124.858 96.3799 127.001 96.2131 129.16L94.4201 152.369C93.9342 158.664 100.11 163.36 106.047 161.209L127.932 153.277C129.305 152.783 130.78 152.642 132.222 152.869C133.663 152.642 135.139 152.783 136.512 153.277L158.397 161.209C164.333 163.36 170.51 158.664 170.023 152.369L168.23 129.16C168.064 127.001 168.709 124.858 170.04 123.149L177.163 114.007Z" fill="url(#paint13_linear_360_120)"/>
<path d="M427.834 90.9968L405.208 85.5294C403.103 85.0208 401.264 83.7448 400.051 81.9515L387.008 62.6711C386.284 61.5911 385.324 60.6894 384.202 60.0338C383.079 59.3783 381.822 58.9859 380.526 58.8864C379.229 58.9861 377.972 59.3785 376.85 60.034C375.727 60.6896 374.767 61.5912 374.043 62.6711L361 81.9515C359.787 83.7447 357.948 85.0206 355.843 85.5294L333.217 90.9968C327.079 92.4796 324.522 99.8052 328.402 104.787L342.708 123.149C344.039 124.858 344.684 127.001 344.517 129.16L342.724 152.369C342.238 158.664 348.414 163.36 354.35 161.209L376.235 153.277C377.608 152.782 379.083 152.642 380.525 152.868C381.966 152.642 383.441 152.783 384.814 153.277L406.7 161.209C412.636 163.36 418.813 158.664 418.326 152.369L416.533 129.16C416.367 127.001 417.012 124.858 418.342 123.149L432.648 104.787C436.53 99.8062 433.972 92.4796 427.834 90.9968Z" fill="url(#paint14_linear_360_120)"/>
<path d="M384.813 153.278L406.699 161.21C412.635 163.362 418.812 158.665 418.325 152.37L416.532 129.161C416.366 127.002 417.011 124.859 418.341 123.15L432.647 104.788C436.527 99.8072 433.969 92.4806 427.832 90.9978L405.206 85.5305C403.101 85.0218 401.262 83.7459 400.049 81.9525L387.006 62.6722C386.282 61.5922 385.322 60.6905 384.2 60.0349C383.077 59.3793 381.82 58.987 380.523 58.8874V152.871C381.965 152.643 383.44 152.783 384.813 153.278Z" fill="url(#paint15_linear_360_120)"/>
<path d="M427.833 90.9968L405.207 85.5295C404.441 85.3433 403.704 85.0542 403.015 84.6701L345.336 159.277C347.599 161.463 351.012 162.419 354.35 161.209L376.235 153.277C377.608 152.783 379.083 152.642 380.524 152.869C381.966 152.642 383.441 152.783 384.814 153.277L406.7 161.209C412.636 163.36 418.813 158.664 418.326 152.369L416.533 129.16C416.366 127.001 417.012 124.858 418.342 123.149L432.648 104.787C436.529 99.8062 433.971 92.4796 427.833 90.9968Z" fill="url(#paint16_linear_360_120)"/>
<path d="M333.215 90.9968L355.841 85.5295C356.607 85.3433 357.344 85.0542 358.033 84.6701L415.712 159.277C413.449 161.463 410.036 162.419 406.698 161.209L384.812 153.277C383.439 152.783 381.964 152.642 380.522 152.869C379.081 152.642 377.606 152.783 376.233 153.277L354.348 161.209C348.412 163.36 342.235 158.664 342.722 152.369L344.515 129.16C344.681 127.001 344.036 124.858 342.706 123.149L328.4 104.787C324.52 99.8062 327.078 92.4796 333.215 90.9968Z" fill="url(#paint17_linear_360_120)"/>
<path d="M327.193 96.2403C326.117 98.9539 326.375 102.187 328.401 104.787L342.707 123.149C344.038 124.858 344.683 127.001 344.516 129.16L342.723 152.369C342.237 158.664 348.413 163.36 354.35 161.209L376.234 153.277C377.607 152.783 379.082 152.642 380.524 152.869C381.965 152.642 383.441 152.783 384.814 153.277L406.699 161.209C412.635 163.36 418.812 158.664 418.325 152.369L416.532 129.16C416.443 127.972 416.6 126.779 416.992 125.655L327.193 96.2403Z" fill="url(#paint18_linear_360_120)"/>
<path d="M433.865 96.2403C434.941 98.9539 434.683 102.187 432.657 104.787L418.351 123.149C417.021 124.858 416.376 127.001 416.542 129.16L418.335 152.369C418.821 158.664 412.645 163.36 406.709 161.209L384.825 153.277C383.452 152.783 381.976 152.642 380.535 152.869C379.093 152.642 377.618 152.783 376.245 153.277L354.36 161.209C348.424 163.36 342.247 158.664 342.734 152.369L344.527 129.16C344.616 127.972 344.46 126.779 344.067 125.655L433.865 96.2403Z" fill="url(#paint19_linear_360_120)"/>
<path d="M425.466 114.007H335.584L342.707 123.149C344.038 124.858 344.683 127.001 344.516 129.16L342.723 152.369C342.237 158.664 348.413 163.36 354.349 161.209L376.235 153.277C377.608 152.783 379.083 152.642 380.525 152.869C381.966 152.642 383.441 152.783 384.814 153.277L406.7 161.209C412.636 163.36 418.813 158.664 418.326 152.369L416.533 129.16C416.367 127.001 417.012 124.858 418.342 123.149L425.466 114.007Z" fill="url(#paint20_linear_360_120)"/>
<path d="M27.3424 183.679C12.4472 183.679 0.373047 195.753 0.373047 210.648C0.373047 214.845 1.35187 218.983 3.23222 222.733L36.6839 289.469C39.1244 294.337 40.3951 299.708 40.3951 305.154C40.3951 310.6 39.1244 315.97 36.6839 320.839L3.23222 387.573C1.35187 391.324 0.372852 395.463 0.373047 399.659C0.373047 414.554 12.4472 426.628 27.3424 426.628H256.373V183.679H27.3424Z" fill="url(#paint21_linear_360_120)"/>
<path d="M54.584 251.945H171.039V358.361H54.584V251.945Z" fill="url(#paint22_linear_360_120)"/>
<path d="M27.5633 339.034L3.23322 387.573C1.35211 391.324 0.37272 395.462 0.373047 399.658C0.373047 414.554 12.4472 426.628 27.3424 426.628H256.373V339.034H27.5633Z" fill="url(#paint23_linear_360_120)"/>
<path d="M27.5633 339.034L3.23322 387.573C1.35211 391.324 0.37272 395.462 0.373047 399.658C0.373047 414.554 12.4472 426.628 27.3424 426.628H256.373V339.034H27.5633Z" fill="url(#paint24_linear_360_120)"/>
<path d="M27.5633 271.272H256.373V183.678H27.3424C12.4472 183.679 0.373047 195.753 0.373047 210.648C0.373047 214.845 1.35187 218.983 3.23222 222.733L27.5633 271.272Z" fill="url(#paint25_linear_360_120)"/>
<path d="M27.5633 271.272H256.373V183.678H27.3424C12.4472 183.679 0.373047 195.753 0.373047 210.648C0.373047 214.845 1.35187 218.983 3.23222 222.733L27.5633 271.272Z" fill="url(#paint26_linear_360_120)"/>
<path d="M485.404 183.679C500.299 183.679 512.373 195.753 512.373 210.648C512.373 214.845 511.394 218.983 509.514 222.733L476.062 289.469C473.622 294.337 472.351 299.708 472.351 305.154C472.351 310.6 473.622 315.97 476.062 320.839L509.514 387.574C511.394 391.325 512.373 395.464 512.373 399.66C512.373 414.555 500.299 426.629 485.404 426.629H256.373V183.68H485.404V183.679Z" fill="url(#paint27_linear_360_120)"/>
<path d="M341.707 358.361H458.162V251.945H341.707V358.361Z" fill="url(#paint28_linear_360_120)"/>
<path d="M485.183 339.034L509.513 387.573C511.393 391.324 512.372 395.462 512.372 399.658C512.372 414.554 500.298 426.628 485.403 426.628H256.373V339.034H485.183Z" fill="url(#paint29_linear_360_120)"/>
<path d="M485.183 339.034L509.513 387.573C511.393 391.324 512.372 395.462 512.372 399.658C512.372 414.554 500.298 426.628 485.403 426.628H256.373V339.034H485.183Z" fill="url(#paint30_linear_360_120)"/>
<path d="M485.183 271.272H256.373V183.678H485.404C500.299 183.678 512.373 195.752 512.373 210.647C512.373 214.844 511.394 218.982 509.514 222.732L485.183 271.272Z" fill="url(#paint31_linear_360_120)"/>
<path d="M485.183 271.272H256.373V183.678H485.404C500.299 183.678 512.373 195.752 512.373 210.647C512.373 214.844 511.394 218.982 509.514 222.732L485.183 271.272Z" fill="url(#paint32_linear_360_120)"/>
<path d="M272.414 170.125C284.514 157.433 305.862 163.154 309.995 180.194C312.978 192.493 325.637 199.802 337.78 196.236C354.604 191.295 370.231 206.923 365.29 223.746C361.723 235.889 369.033 248.548 381.332 251.531C398.372 255.664 404.093 277.011 391.401 289.112C382.241 297.845 382.241 312.462 391.401 321.195C404.093 333.294 398.372 354.643 381.332 358.776C369.033 361.758 361.724 374.418 365.29 386.56C370.231 403.385 354.603 419.012 337.78 414.071C325.637 410.505 312.978 417.813 309.995 430.112C305.862 447.153 284.515 452.873 272.414 440.182C263.681 431.022 249.064 431.022 240.331 440.182C228.232 452.873 206.883 447.153 202.75 430.112C199.767 417.813 187.108 410.505 174.966 414.071C158.141 419.012 142.514 403.384 147.455 386.56C151.022 374.418 143.713 361.758 131.413 358.776C114.373 354.643 108.653 333.295 121.344 321.195C130.504 312.462 130.504 297.845 121.344 289.112C108.653 277.012 114.373 255.664 131.413 251.531C143.713 248.548 151.021 235.889 147.455 223.746C142.514 206.922 158.142 191.295 174.966 196.236C187.108 199.803 199.767 192.493 202.75 180.194C206.883 163.154 228.231 157.433 240.331 170.125C249.064 179.285 263.681 179.285 272.414 170.125Z" fill="url(#paint33_linear_360_120)"/>
<path d="M256.373 418.268C318.844 418.268 369.488 367.625 369.488 305.153C369.488 242.682 318.844 192.039 256.373 192.039C193.901 192.039 143.258 242.682 143.258 305.153C143.258 367.625 193.901 418.268 256.373 418.268Z" fill="url(#paint34_linear_360_120)"/>
<path d="M256.374 402.264C310.007 402.264 353.484 358.786 353.484 305.153C353.484 251.521 310.007 208.043 256.374 208.043C202.741 208.043 159.264 251.521 159.264 305.153C159.264 358.786 202.741 402.264 256.374 402.264Z" fill="url(#paint35_linear_360_120)"/>
<path d="M128.134 303.506C128.606 309.879 126.356 316.417 121.344 321.195C108.653 333.294 114.373 354.643 131.413 358.776C143.713 361.758 151.021 374.418 147.455 386.56C142.514 403.385 158.142 419.012 174.966 414.071C187.108 410.505 199.767 417.813 202.75 430.112C206.883 447.153 228.231 452.873 240.331 440.182C249.064 431.022 263.681 431.022 272.414 440.182C284.514 452.873 305.862 447.153 309.995 430.112C312.978 417.813 325.637 410.505 337.78 414.071C354.604 419.012 370.231 403.384 365.29 386.56C361.724 374.418 369.033 361.758 381.332 358.776C398.372 354.643 404.093 333.295 391.401 321.195C386.389 316.417 384.14 309.88 384.612 303.506H128.134Z" fill="url(#paint36_linear_360_120)"/>
<path d="M309.714 281.788L297.046 282.409L262.855 248.219L221.186 344.824L309.159 432.798C309.483 431.935 309.77 431.043 309.996 430.111C312.979 417.812 325.639 410.504 337.781 414.07C354.606 419.011 370.233 403.383 365.291 386.559C361.726 374.417 369.034 361.757 381.333 358.775C382.703 358.44 384.04 357.979 385.325 357.397L309.714 281.788Z" fill="url(#paint37_linear_360_120)"/>
<path d="M303.682 276.546L281.056 271.078C278.951 270.57 277.112 269.294 275.899 267.5L262.856 248.22C262.132 247.14 261.172 246.238 260.049 245.583C258.927 244.927 257.67 244.535 256.373 244.435C255.077 244.535 253.82 244.927 252.697 245.583C251.574 246.238 250.615 247.14 249.891 248.22L236.848 267.5C235.634 269.294 233.795 270.569 231.691 271.078L209.064 276.546C202.926 278.028 200.369 285.354 204.25 290.335L218.556 308.698C219.886 310.406 220.531 312.55 220.365 314.709L218.572 337.917C218.086 344.213 224.262 348.909 230.198 346.758L252.082 338.826C253.455 338.331 254.931 338.191 256.372 338.417C257.814 338.191 259.289 338.331 260.662 338.826L282.546 346.758C288.483 348.909 294.66 344.213 294.173 337.917L292.38 314.709C292.213 312.55 292.858 310.406 294.189 308.698L308.495 290.335C312.377 285.354 309.819 278.028 303.682 276.546Z" fill="url(#paint38_linear_360_120)"/>
<path d="M260.662 338.826L282.546 346.758C288.483 348.909 294.66 344.213 294.173 337.917L292.38 314.709C292.213 312.55 292.858 310.406 294.189 308.698L308.495 290.335C312.375 285.355 309.817 278.028 303.68 276.546L281.054 271.078C278.949 270.57 277.11 269.294 275.896 267.5L262.853 248.22C262.129 247.14 261.17 246.238 260.047 245.583C258.924 244.927 257.667 244.535 256.371 244.435V338.418C257.813 338.191 259.289 338.331 260.662 338.826Z" fill="url(#paint39_linear_360_120)"/>
<path d="M303.683 276.546L281.056 271.078C280.29 270.892 279.553 270.603 278.865 270.219L221.186 344.825C223.448 347.012 226.862 347.968 230.2 346.758L252.084 338.826C253.457 338.331 254.932 338.191 256.374 338.417C257.816 338.191 259.291 338.331 260.664 338.826L282.548 346.758C288.484 348.909 294.662 344.213 294.175 337.917L292.382 314.709C292.215 312.55 292.86 310.406 294.191 308.698L308.497 290.335C312.378 285.354 309.82 278.028 303.683 276.546Z" fill="url(#paint40_linear_360_120)"/>
<path d="M209.064 276.546L231.69 271.078C232.456 270.892 233.193 270.603 233.882 270.219L291.561 344.825C289.298 347.012 285.885 347.968 282.547 346.758L260.662 338.826C259.29 338.331 257.814 338.191 256.373 338.417C254.931 338.191 253.456 338.331 252.083 338.826L230.198 346.758C224.262 348.909 218.085 344.213 218.572 337.917L220.365 314.709C220.532 312.55 219.887 310.406 218.556 308.698L204.25 290.335C200.369 285.354 202.927 278.028 209.064 276.546Z" fill="url(#paint41_linear_360_120)"/>
<path d="M203.041 281.788C201.965 284.502 202.223 287.734 204.249 290.334L218.555 308.697C219.885 310.405 220.531 312.549 220.364 314.708L218.571 337.916C218.085 344.212 224.261 348.908 230.197 346.757L252.082 338.825C253.455 338.33 254.93 338.19 256.371 338.416C257.813 338.19 259.288 338.33 260.661 338.825L282.546 346.757C288.482 348.908 294.659 344.212 294.172 337.916L292.379 314.708C292.29 313.52 292.447 312.327 292.839 311.203L203.041 281.788Z" fill="url(#paint42_linear_360_120)"/>
<path d="M309.713 281.788C310.789 284.502 310.531 287.734 308.505 290.334L294.199 308.697C292.868 310.405 292.223 312.549 292.39 314.708L294.183 337.916C294.669 344.212 288.493 348.908 282.557 346.757L260.672 338.825C259.299 338.33 257.824 338.19 256.382 338.416C254.941 338.19 253.466 338.33 252.093 338.825L230.208 346.757C224.272 348.908 218.095 344.212 218.582 337.916L220.375 314.708C220.464 313.52 220.307 312.327 219.915 311.203L309.713 281.788Z" fill="url(#paint43_linear_360_120)"/>
<defs>
<linearGradient id="paint0_linear_360_120" x1="224.805" y1="47.2359" x2="281.73" y2="104.161" gradientUnits="userSpaceOnUse">
<stop stop-color="#FEF0AE"/>
<stop offset="1" stop-color="#FBC56D"/>
</linearGradient>
<linearGradient id="paint1_linear_360_120" x1="290.481" y1="62.7565" x2="211.803" y2="95.2835" gradientUnits="userSpaceOnUse">
<stop stop-color="#F6A96C" stop-opacity="0"/>
<stop offset="0.996" stop-color="#F6A96C" stop-opacity="0.996"/>
<stop offset="1" stop-color="#F6A96C"/>
</linearGradient>
<linearGradient id="paint2_linear_360_120" x1="269.94" y1="90.6776" x2="226.865" y2="72.2164" gradientUnits="userSpaceOnUse">
<stop stop-color="#F6A96C" stop-opacity="0"/>
<stop offset="0.996" stop-color="#F6A96C" stop-opacity="0.996"/>
<stop offset="1" stop-color="#F6A96C"/>
</linearGradient>
<linearGradient id="paint3_linear_360_120" x1="242.807" y1="90.6776" x2="285.882" y2="72.2164" gradientUnits="userSpaceOnUse">
<stop stop-color="#F6A96C" stop-opacity="0"/>
<stop offset="0.996" stop-color="#F6A96C" stop-opacity="0.996"/>
<stop offset="1" stop-color="#F6A96C"/>
</linearGradient>
<linearGradient id="paint4_linear_360_120" x1="243.765" y1="92.839" x2="271.456" y2="48.3341" gradientUnits="userSpaceOnUse">
<stop stop-color="#F6A96C" stop-opacity="0"/>
<stop offset="0.996" stop-color="#F6A96C" stop-opacity="0.996"/>
<stop offset="1" stop-color="#F6A96C"/>
</linearGradient>
<linearGradient id="paint5_linear_360_120" x1="266.858" y1="87.218" x2="264.551" y2="43.703" gradientUnits="userSpaceOnUse">
<stop stop-color="#F6A96C" stop-opacity="0"/>
<stop offset="0.996" stop-color="#F6A96C" stop-opacity="0.996"/>
<stop offset="1" stop-color="#F6A96C"/>
</linearGradient>
<linearGradient id="paint6_linear_360_120" x1="256.373" y1="97.9138" x2="256.373" y2="146.266" gradientUnits="userSpaceOnUse">
<stop stop-color="#DC8758" stop-opacity="0"/>
<stop offset="0.996" stop-color="#DC8758" stop-opacity="0.996"/>
<stop offset="1" stop-color="#DC8758"/>
</linearGradient>
<linearGradient id="paint7_linear_360_120" x1="108.188" y1="94.1371" x2="151.527" y2="137.476" gradientUnits="userSpaceOnUse">
<stop stop-color="#FEF0AE"/>
<stop offset="1" stop-color="#FBC56D"/>
</linearGradient>
<linearGradient id="paint8_linear_360_120" x1="158.189" y1="105.954" x2="98.2892" y2="130.717" gradientUnits="userSpaceOnUse">
<stop stop-color="#F6A96C" stop-opacity="0"/>
<stop offset="0.996" stop-color="#F6A96C" stop-opacity="0.996"/>
<stop offset="1" stop-color="#F6A96C"/>
</linearGradient>
<linearGradient id="paint9_linear_360_120" x1="142.549" y1="127.211" x2="109.755" y2="113.156" gradientUnits="userSpaceOnUse">
<stop stop-color="#F6A96C" stop-opacity="0"/>
<stop offset="0.996" stop-color="#F6A96C" stop-opacity="0.996"/>
<stop offset="1" stop-color="#F6A96C"/>
</linearGradient>
<linearGradient id="paint10_linear_360_120" x1="121.893" y1="127.211" x2="154.688" y2="113.156" gradientUnits="userSpaceOnUse">
<stop stop-color="#F6A96C" stop-opacity="0"/>
<stop offset="0.996" stop-color="#F6A96C" stop-opacity="0.996"/>
<stop offset="1" stop-color="#F6A96C"/>
</linearGradient>
<linearGradient id="paint11_linear_360_120" x1="122.623" y1="128.856" x2="143.706" y2="94.9733" gradientUnits="userSpaceOnUse">
<stop stop-color="#F6A96C" stop-opacity="0"/>
<stop offset="0.996" stop-color="#F6A96C" stop-opacity="0.996"/>
<stop offset="1" stop-color="#F6A96C"/>
</linearGradient>
<linearGradient id="paint12_linear_360_120" x1="140.204" y1="124.577" x2="138.447" y2="91.4476" gradientUnits="userSpaceOnUse">
<stop stop-color="#F6A96C" stop-opacity="0"/>
<stop offset="0.996" stop-color="#F6A96C" stop-opacity="0.996"/>
<stop offset="1" stop-color="#F6A96C"/>
</linearGradient>
<linearGradient id="paint13_linear_360_120" x1="132.222" y1="132.721" x2="132.222" y2="169.532" gradientUnits="userSpaceOnUse">
<stop stop-color="#DC8758" stop-opacity="0"/>
<stop offset="0.996" stop-color="#DC8758" stop-opacity="0.996"/>
<stop offset="1" stop-color="#DC8758"/>
</linearGradient>
<linearGradient id="paint14_linear_360_120" x1="356.492" y1="94.1371" x2="399.831" y2="137.476" gradientUnits="userSpaceOnUse">
<stop stop-color="#FEF0AE"/>
<stop offset="1" stop-color="#FBC56D"/>
</linearGradient>
<linearGradient id="paint15_linear_360_120" x1="406.493" y1="105.954" x2="346.592" y2="130.717" gradientUnits="userSpaceOnUse">
<stop stop-color="#F6A96C" stop-opacity="0"/>
<stop offset="0.996" stop-color="#F6A96C" stop-opacity="0.996"/>
<stop offset="1" stop-color="#F6A96C"/>
</linearGradient>
<linearGradient id="paint16_linear_360_120" x1="390.853" y1="127.211" x2="358.058" y2="113.156" gradientUnits="userSpaceOnUse">
<stop stop-color="#F6A96C" stop-opacity="0"/>
<stop offset="0.996" stop-color="#F6A96C" stop-opacity="0.996"/>
<stop offset="1" stop-color="#F6A96C"/>
</linearGradient>
<linearGradient id="paint17_linear_360_120" x1="370.196" y1="127.211" x2="402.99" y2="113.156" gradientUnits="userSpaceOnUse">
<stop stop-color="#F6A96C" stop-opacity="0"/>
<stop offset="0.996" stop-color="#F6A96C" stop-opacity="0.996"/>
<stop offset="1" stop-color="#F6A96C"/>
</linearGradient>
<linearGradient id="paint18_linear_360_120" x1="370.926" y1="128.856" x2="392.009" y2="94.9733" gradientUnits="userSpaceOnUse">
<stop stop-color="#F6A96C" stop-opacity="0"/>
<stop offset="0.996" stop-color="#F6A96C" stop-opacity="0.996"/>
<stop offset="1" stop-color="#F6A96C"/>
</linearGradient>
<linearGradient id="paint19_linear_360_120" x1="388.507" y1="124.577" x2="386.75" y2="91.4476" gradientUnits="userSpaceOnUse">
<stop stop-color="#F6A96C" stop-opacity="0"/>
<stop offset="0.996" stop-color="#F6A96C" stop-opacity="0.996"/>
<stop offset="1" stop-color="#F6A96C"/>
</linearGradient>
<linearGradient id="paint20_linear_360_120" x1="380.526" y1="132.721" x2="380.526" y2="169.532" gradientUnits="userSpaceOnUse">
<stop stop-color="#DC8758" stop-opacity="0"/>
<stop offset="0.996" stop-color="#DC8758" stop-opacity="0.996"/>
<stop offset="1" stop-color="#DC8758"/>
</linearGradient>
<linearGradient id="paint21_linear_360_120" x1="67.4732" y1="257.226" x2="130.72" y2="300.395" gradientUnits="userSpaceOnUse">
<stop stop-color="#F9F5F3"/>
<stop offset="1" stop-color="#D8E8F0"/>
</linearGradient>
<linearGradient id="paint22_linear_360_120" x1="88.7173" y1="305.153" x2="131.898" y2="305.153" gradientUnits="userSpaceOnUse">
<stop stop-color="#678D98" stop-opacity="0"/>
<stop offset="0.996" stop-color="#678D98" stop-opacity="0.996"/>
<stop offset="1" stop-color="#678D98"/>
</linearGradient>
<linearGradient id="paint23_linear_360_120" x1="70.7359" y1="319.579" x2="152.054" y2="397.885" gradientUnits="userSpaceOnUse">
<stop stop-color="#FD4755"/>
<stop offset="1" stop-color="#A72B2B"/>
</linearGradient>
<linearGradient id="paint24_linear_360_120" x1="80.7299" y1="407.325" x2="157.698" y2="376.539" gradientUnits="userSpaceOnUse">
<stop stop-color="#A72B2B" stop-opacity="0"/>
<stop offset="1" stop-color="#42210B"/>
</linearGradient>
<linearGradient id="paint25_linear_360_120" x1="87.1801" y1="171.383" x2="171.51" y2="257.72" gradientUnits="userSpaceOnUse">
<stop stop-color="#B3DAFE"/>
<stop offset="1" stop-color="#0182FC"/>
</linearGradient>
<linearGradient id="paint26_linear_360_120" x1="113.864" y1="197.918" x2="152.683" y2="238.744" gradientUnits="userSpaceOnUse">
<stop stop-color="#0182FC" stop-opacity="0"/>
<stop offset="0.188" stop-color="#0181F8" stop-opacity="0.188"/>
<stop offset="0.351" stop-color="#017DEE" stop-opacity="0.351"/>
<stop offset="0.505" stop-color="#0176DC" stop-opacity="0.505"/>
<stop offset="0.654" stop-color="#016DC3" stop-opacity="0.654"/>
<stop offset="0.799" stop-color="#0261A2" stop-opacity="0.799"/>
<stop offset="0.938" stop-color="#02537B" stop-opacity="0.938"/>
<stop offset="1" stop-color="#024C67"/>
</linearGradient>
<linearGradient id="paint27_linear_360_120" x1="445.273" y1="257.226" x2="382.026" y2="300.395" gradientUnits="userSpaceOnUse">
<stop stop-color="#F9F5F3"/>
<stop offset="1" stop-color="#D8E8F0"/>
</linearGradient>
<linearGradient id="paint28_linear_360_120" x1="424.029" y1="305.153" x2="380.848" y2="305.153" gradientUnits="userSpaceOnUse">
<stop stop-color="#678D98" stop-opacity="0"/>
<stop offset="0.996" stop-color="#678D98" stop-opacity="0.996"/>
<stop offset="1" stop-color="#678D98"/>
</linearGradient>
<linearGradient id="paint29_linear_360_120" x1="442.01" y1="319.579" x2="360.693" y2="397.885" gradientUnits="userSpaceOnUse">
<stop stop-color="#FD4755"/>
<stop offset="1" stop-color="#A72B2B"/>
</linearGradient>
<linearGradient id="paint30_linear_360_120" x1="432.016" y1="407.325" x2="355.05" y2="376.539" gradientUnits="userSpaceOnUse">
<stop stop-color="#A72B2B" stop-opacity="0"/>
<stop offset="1" stop-color="#42210B"/>
</linearGradient>
<linearGradient id="paint31_linear_360_120" x1="425.566" y1="171.383" x2="341.237" y2="257.72" gradientUnits="userSpaceOnUse">
<stop stop-color="#B3DAFE"/>
<stop offset="1" stop-color="#0182FC"/>
</linearGradient>
<linearGradient id="paint32_linear_360_120" x1="398.882" y1="197.918" x2="360.064" y2="238.744" gradientUnits="userSpaceOnUse">
<stop stop-color="#0182FC" stop-opacity="0"/>
<stop offset="0.188" stop-color="#0181F8" stop-opacity="0.188"/>
<stop offset="0.351" stop-color="#017DEE" stop-opacity="0.351"/>
<stop offset="0.505" stop-color="#0176DC" stop-opacity="0.505"/>
<stop offset="0.654" stop-color="#016DC3" stop-opacity="0.654"/>
<stop offset="0.799" stop-color="#0261A2" stop-opacity="0.799"/>
<stop offset="0.938" stop-color="#02537B" stop-opacity="0.938"/>
<stop offset="1" stop-color="#024C67"/>
</linearGradient>
<linearGradient id="paint33_linear_360_120" x1="161.515" y1="210.296" x2="342.607" y2="391.388" gradientUnits="userSpaceOnUse">
<stop stop-color="#FEF0AE"/>
<stop offset="1" stop-color="#FBC56D"/>
</linearGradient>
<linearGradient id="paint34_linear_360_120" x1="329.84" y1="378.619" x2="180.761" y2="229.542" gradientUnits="userSpaceOnUse">
<stop stop-color="#FEF0AE"/>
<stop offset="1" stop-color="#FBC56D"/>
</linearGradient>
<linearGradient id="paint35_linear_360_120" x1="185.778" y1="234.557" x2="301.982" y2="350.762" gradientUnits="userSpaceOnUse">
<stop stop-color="#FEF0AE"/>
<stop offset="1" stop-color="#FBC56D"/>
</linearGradient>
<linearGradient id="paint36_linear_360_120" x1="256.373" y1="361.231" x2="256.373" y2="436.693" gradientUnits="userSpaceOnUse">
<stop stop-color="#DC8758" stop-opacity="0"/>
<stop offset="0.996" stop-color="#DC8758" stop-opacity="0.996"/>
<stop offset="1" stop-color="#DC8758"/>
</linearGradient>
<linearGradient id="paint37_linear_360_120" x1="344.204" y1="382.484" x2="225.741" y2="296.649" gradientUnits="userSpaceOnUse">
<stop stop-color="#DC8758" stop-opacity="0"/>
<stop offset="0.996" stop-color="#DC8758" stop-opacity="0.996"/>
<stop offset="1" stop-color="#DC8758"/>
</linearGradient>
<linearGradient id="paint38_linear_360_120" x1="232.339" y1="279.686" x2="275.678" y2="323.024" gradientUnits="userSpaceOnUse">
<stop stop-color="#FBC56D"/>
<stop offset="1" stop-color="#C5715A"/>
</linearGradient>
<linearGradient id="paint39_linear_360_120" x1="282.341" y1="291.502" x2="222.44" y2="316.266" gradientUnits="userSpaceOnUse">
<stop stop-color="#8C3D27" stop-opacity="0"/>
<stop offset="1" stop-color="#8C3D27"/>
</linearGradient>
<linearGradient id="paint40_linear_360_120" x1="266.701" y1="312.759" x2="233.906" y2="298.704" gradientUnits="userSpaceOnUse">
<stop stop-color="#8C3D27" stop-opacity="0"/>
<stop offset="1" stop-color="#8C3D27"/>
</linearGradient>
<linearGradient id="paint41_linear_360_120" x1="246.045" y1="312.759" x2="278.84" y2="298.704" gradientUnits="userSpaceOnUse">
<stop stop-color="#8C3D27" stop-opacity="0"/>
<stop offset="1" stop-color="#8C3D27"/>
</linearGradient>
<linearGradient id="paint42_linear_360_120" x1="246.773" y1="314.404" x2="267.855" y2="280.522" gradientUnits="userSpaceOnUse">
<stop stop-color="#8C3D27" stop-opacity="0"/>
<stop offset="1" stop-color="#8C3D27"/>
</linearGradient>
<linearGradient id="paint43_linear_360_120" x1="264.356" y1="310.126" x2="262.599" y2="276.996" gradientUnits="userSpaceOnUse">
<stop stop-color="#8C3D27" stop-opacity="0"/>
<stop offset="1" stop-color="#8C3D27"/>
</linearGradient>
</defs>
</svg>
