<svg width="512" height="512" viewBox="0 0 512 512" fill="none" xmlns="http://www.w3.org/2000/svg">
<path d="M110.551 379.333C140.822 383.242 167.231 395.535 185.93 412.471C189.847 416.018 188.388 427.31 183.7 429.746C161.312 441.376 132.646 446.557 102.375 442.648C72.1036 438.739 45.6945 426.446 26.9954 409.51C23.0791 405.963 24.5378 394.671 29.2261 392.235C51.6136 380.605 80.2796 375.424 110.551 379.333Z" fill="url(#paint0_linear_360_3)"/>
<path d="M110.551 379.333C140.822 383.242 167.231 395.535 185.93 412.471C189.847 416.018 188.388 427.31 183.7 429.746C161.312 441.376 132.646 446.557 102.375 442.648C72.1036 438.739 45.6945 426.446 26.9954 409.51C23.0791 405.963 24.5378 394.671 29.2261 392.235C51.6136 380.605 80.2796 375.424 110.551 379.333Z" fill="url(#paint1_linear_360_3)"/>
<path d="M114.09 336.943C146.463 350.978 171.862 373.091 187.21 397.89C190.423 403.084 185.188 415.16 179.2 416.364C150.609 422.115 117.107 418.691 84.7344 404.656C52.3609 390.621 26.9627 368.509 11.6147 343.709C8.40119 338.515 13.6366 326.439 19.624 325.234C48.2157 319.485 81.7166 322.908 114.09 336.943Z" fill="url(#paint2_linear_360_3)"/>
<path d="M114.09 336.943C146.463 350.978 171.862 373.091 187.21 397.89C190.423 403.084 185.188 415.16 179.2 416.364C150.609 422.115 117.107 418.691 84.7344 404.656C52.3609 390.621 26.9627 368.509 11.6147 343.709C8.40119 338.515 13.6366 326.439 19.624 325.234C48.2157 319.485 81.7166 322.908 114.09 336.943Z" fill="url(#paint3_linear_360_3)"/>
<path d="M172.379 268.894C185.346 301.71 187.67 335.306 180.986 363.694C179.586 369.639 167.344 374.476 162.26 371.094C137.976 354.942 116.708 328.831 103.741 296.016C90.7743 263.201 88.4502 229.605 95.1344 201.217C96.5338 195.272 108.776 190.435 113.861 193.817C138.144 209.968 159.412 236.078 172.379 268.894Z" fill="url(#paint4_linear_360_3)"/>
<path d="M172.379 268.894C185.346 301.71 187.67 335.306 180.986 363.694C179.586 369.639 167.344 374.476 162.26 371.094C137.976 354.942 116.708 328.831 103.741 296.016C90.7743 263.201 88.4502 229.605 95.1344 201.217C96.5338 195.272 108.776 190.435 113.861 193.817C138.144 209.968 159.412 236.078 172.379 268.894Z" fill="url(#paint5_linear_360_3)"/>
<path d="M125.13 270.129C158.138 299.805 179.601 336.331 188 372.045C189.759 379.525 178.689 391.839 171.065 390.883C134.661 386.318 96.066 368.85 63.0571 339.173C30.0481 309.497 8.58528 272.971 0.186474 237.257C-1.5724 229.778 9.49785 217.463 17.1216 218.419C53.5248 222.984 92.1206 240.453 125.13 270.129Z" fill="url(#paint6_linear_360_3)"/>
<path d="M15.3086 277.836C26.5375 299.699 42.5721 320.755 63.0581 339.173C96.0671 368.849 134.662 386.318 171.066 390.883C178.69 391.839 189.76 379.526 188.001 372.045C179.602 336.331 158.14 299.805 125.131 270.129C105.694 252.654 84.3182 239.417 62.5953 230.551L15.3086 277.836Z" fill="url(#paint7_linear_360_3)"/>
<path d="M401.447 379.333C371.176 383.242 344.767 395.535 326.068 412.471C322.151 416.018 323.61 427.31 328.298 429.746C350.686 441.376 379.352 446.557 409.623 442.648C439.894 438.739 466.303 426.446 485.003 409.51C488.919 405.963 487.46 394.671 482.772 392.235C460.384 380.605 431.718 375.424 401.447 379.333Z" fill="url(#paint8_linear_360_3)"/>
<path d="M401.447 379.333C371.176 383.242 344.767 395.535 326.068 412.471C322.151 416.018 323.61 427.31 328.298 429.746C350.686 441.376 379.352 446.557 409.623 442.648C439.894 438.739 466.303 426.446 485.003 409.51C488.919 405.963 487.46 394.671 482.772 392.235C460.384 380.605 431.718 375.424 401.447 379.333Z" fill="url(#paint9_linear_360_3)"/>
<path d="M397.908 336.943C365.535 350.978 340.137 373.091 324.789 397.89C321.575 403.084 326.81 415.16 332.798 416.364C361.39 422.115 394.891 418.691 427.264 404.656C459.637 390.621 485.036 368.509 500.383 343.709C503.597 338.515 498.362 326.439 492.374 325.234C463.783 319.485 430.282 322.908 397.908 336.943Z" fill="url(#paint10_linear_360_3)"/>
<path d="M397.908 336.943C365.535 350.978 340.137 373.091 324.789 397.89C321.575 403.084 326.81 415.16 332.798 416.364C361.39 422.115 394.891 418.691 427.264 404.656C459.637 390.621 485.036 368.509 500.383 343.709C503.597 338.515 498.362 326.439 492.374 325.234C463.783 319.485 430.282 322.908 397.908 336.943Z" fill="url(#paint11_linear_360_3)"/>
<path d="M339.618 268.894C326.651 301.71 324.327 335.306 331.011 363.694C332.411 369.639 344.653 374.476 349.737 371.094C374.021 354.942 395.289 328.831 408.256 296.016C421.223 263.201 423.547 229.605 416.863 201.217C415.463 195.272 403.221 190.435 398.137 193.817C373.853 209.968 352.585 236.078 339.618 268.894Z" fill="url(#paint12_linear_360_3)"/>
<path d="M339.618 268.894C326.651 301.71 324.327 335.306 331.011 363.694C332.411 369.639 344.653 374.476 349.737 371.094C374.021 354.942 395.289 328.831 408.256 296.016C421.223 263.201 423.547 229.605 416.863 201.217C415.463 195.272 403.221 190.435 398.137 193.817C373.853 209.968 352.585 236.078 339.618 268.894Z" fill="url(#paint13_linear_360_3)"/>
<path d="M386.87 270.129C353.861 299.805 332.398 336.331 323.999 372.045C322.24 379.525 333.31 391.839 340.934 390.883C377.338 386.318 415.933 368.85 448.942 339.173C481.951 309.497 503.414 272.971 511.813 237.257C513.571 229.778 502.501 217.463 494.877 218.419C458.474 222.984 419.879 240.453 386.87 270.129Z" fill="url(#paint14_linear_360_3)"/>
<path d="M496.69 277.836C485.461 299.699 469.426 320.755 448.94 339.173C415.931 368.849 377.336 386.318 340.932 390.883C333.308 391.839 322.238 379.526 323.997 372.045C332.396 336.331 353.859 299.805 386.868 270.129C406.305 252.654 427.68 239.417 449.403 230.551L496.69 277.836Z" fill="url(#paint15_linear_360_3)"/>
<path d="M255.999 512C344.171 512 415.649 440.522 415.649 352.35C415.649 264.178 344.171 192.701 255.999 192.701C167.827 192.701 96.3496 264.178 96.3496 352.35C96.3496 440.522 167.827 512 255.999 512Z" fill="url(#paint16_linear_360_3)"/>
<path d="M255.998 479.602C326.278 479.602 383.25 422.63 383.25 352.35C383.25 282.071 326.278 225.098 255.998 225.098C185.719 225.098 128.746 282.071 128.746 352.35C128.746 422.63 185.719 479.602 255.998 479.602Z" fill="url(#paint17_linear_360_3)"/>
<path d="M255.999 461.597C316.334 461.597 365.245 412.686 365.245 352.35C365.245 292.015 316.334 243.104 255.999 243.104C195.663 243.104 146.752 292.015 146.752 352.35C146.752 412.686 195.663 461.597 255.999 461.597Z" fill="url(#paint18_linear_360_3)"/>
<path d="M96.3496 352.35C96.3496 440.523 167.827 512 255.999 512C344.172 512 415.649 440.523 415.649 352.35C415.649 351.731 415.633 351.115 415.626 350.497H96.3727C96.3657 351.115 96.3496 351.731 96.3496 352.35Z" fill="url(#paint19_linear_360_3)"/>
<path d="M300.775 505.625C351.081 490.954 391.111 452.197 407.548 402.671L329.792 324.914L312.262 325.775L264.951 278.464L207.291 412.141L300.775 505.625Z" fill="url(#paint20_linear_360_3)"/>
<path d="M321.463 317.66L290.153 310.095C287.241 309.391 284.696 307.626 283.016 305.144L264.968 278.465C262.784 275.238 259.44 273.506 255.999 273.227C252.557 273.506 249.212 275.238 247.03 278.465L228.981 305.144C227.302 307.626 224.757 309.392 221.844 310.095L190.535 317.66C182.042 319.712 178.503 329.848 183.872 336.741L203.668 362.151C205.51 364.514 206.403 367.481 206.172 370.468L203.691 402.583C203.019 411.294 211.565 417.793 219.78 414.815L250.064 403.841C251.963 403.156 254.004 402.962 255.999 403.275C257.993 402.963 260.034 403.157 261.934 403.841L292.217 414.815C300.431 417.792 308.979 411.294 308.306 402.583L305.825 370.468C305.594 367.48 306.488 364.515 308.329 362.151L328.126 336.741C333.495 329.848 329.956 319.712 321.463 317.66Z" fill="url(#paint21_linear_360_3)"/>
<path d="M261.933 403.841L292.217 414.815C300.431 417.792 308.978 411.294 308.305 402.583L305.825 370.468C305.594 367.48 306.487 364.515 308.328 362.151L328.125 336.741C333.495 329.849 329.955 319.712 321.462 317.66L290.152 310.095C287.24 309.391 284.695 307.626 283.016 305.144L264.967 278.465C262.784 275.238 259.439 273.506 255.998 273.227V403.275C257.992 402.962 260.034 403.156 261.933 403.841Z" fill="url(#paint22_linear_360_3)"/>
<path d="M321.462 317.66L290.152 310.095C289.092 309.838 288.072 309.438 287.12 308.906L207.307 412.142C210.438 415.168 215.161 416.49 219.779 414.816L250.063 403.841C251.962 403.157 254.003 402.963 255.998 403.276C257.992 402.963 260.033 403.158 261.933 403.841L292.216 414.816C300.43 417.793 308.978 411.295 308.305 402.584L305.824 370.469C305.594 367.481 306.487 364.516 308.328 362.152L328.125 336.742C333.494 329.848 329.955 319.712 321.462 317.66Z" fill="url(#paint23_linear_360_3)"/>
<path d="M190.535 317.66L221.844 310.095C222.904 309.838 223.924 309.438 224.876 308.906L304.69 412.142C301.559 415.168 296.835 416.49 292.217 414.816L261.934 403.841C260.035 403.157 257.993 402.963 255.999 403.276C254.004 402.963 251.963 403.158 250.064 403.841L219.78 414.816C211.566 417.793 203.019 411.295 203.691 402.584L206.172 370.469C206.403 367.481 205.51 364.516 203.668 362.152L183.872 336.742C178.503 329.848 182.042 319.712 190.535 317.66Z" fill="url(#paint24_linear_360_3)"/>
<path d="M182.201 324.915C180.712 328.67 181.069 333.144 183.871 336.741L203.667 362.151C205.509 364.514 206.402 367.481 206.171 370.468L203.691 402.583C203.018 411.294 211.564 417.793 219.779 414.815L250.063 403.84C251.962 403.156 254.003 402.962 255.998 403.275C257.992 402.963 260.033 403.157 261.933 403.84L292.216 414.815C300.43 417.792 308.978 411.294 308.305 402.583L305.824 370.468C305.701 368.825 305.917 367.174 306.46 365.618L182.201 324.915Z" fill="url(#paint25_linear_360_3)"/>
<path d="M329.808 324.915C331.297 328.67 330.94 333.144 328.137 336.741L308.341 362.151C306.5 364.514 305.607 367.481 305.837 370.468L308.318 402.583C308.991 411.294 300.443 417.793 292.229 414.815L261.946 403.84C260.046 403.156 258.005 402.962 256.011 403.275C254.016 402.963 251.975 403.157 250.075 403.84L219.792 414.815C211.578 417.792 203.031 411.294 203.703 402.583L206.184 370.468C206.307 368.825 206.091 367.174 205.549 365.618L329.808 324.915Z" fill="url(#paint26_linear_360_3)"/>
<path d="M255.998 192.701C255.335 192.701 254.678 192.718 254.017 192.726L229.379 217.364L409.243 397.228C413.501 382.649 415.657 367.537 415.648 352.349C415.648 264.178 344.17 192.701 255.998 192.701Z" fill="url(#paint27_linear_360_3)"/>
<path d="M159.621 3.34607V87.6755L255.998 184.052L352.374 87.6755V3.34607H159.621Z" fill="url(#paint28_linear_360_3)"/>
<path d="M159.621 3.34607V29.5906L255.675 125.645C255.761 125.73 255.877 125.778 255.998 125.778C256.118 125.778 256.234 125.73 256.32 125.645L352.374 29.5906V3.34607H159.621Z" fill="url(#paint29_linear_360_3)"/>
<path d="M159.621 3.34607V29.5906L255.675 125.645C255.761 125.73 255.877 125.778 255.998 125.778C256.118 125.778 256.234 125.73 256.32 125.645L352.374 29.5906V3.34607H159.621Z" fill="url(#paint30_linear_360_3)"/>
<path d="M255.998 140.83C253.96 140.834 251.942 140.435 250.06 139.657C248.177 138.878 246.467 137.735 245.028 136.293L159.621 50.8868V87.6765L255.998 184.053L352.374 87.6765V50.8868L266.967 136.293C265.528 137.735 263.818 138.878 261.935 139.656C260.053 140.435 258.035 140.834 255.998 140.83Z" fill="url(#paint31_linear_360_3)"/>
<path d="M255.998 140.83C253.96 140.834 251.942 140.435 250.06 139.657C248.177 138.878 246.467 137.735 245.028 136.293L159.621 50.8868V87.6765L255.998 184.053L352.374 87.6765V50.8868L266.967 136.293C265.528 137.735 263.818 138.878 261.935 139.656C260.053 140.435 258.035 140.834 255.998 140.83Z" fill="url(#paint32_linear_360_3)"/>
<path d="M255.998 140.83C259.971 140.83 263.944 139.318 266.967 136.293L352.374 50.8868V87.6765L255.998 184.053L159.621 87.6765V50.8868L245.028 136.293C246.467 137.735 248.178 138.877 250.06 139.656C251.943 140.435 253.96 140.834 255.998 140.83Z" fill="url(#paint33_linear_360_3)"/>
<path d="M245.43 162.16L163.416 80.1461C157.266 73.9961 147.294 73.9961 141.144 80.1461C134.994 86.2961 134.994 96.2681 141.144 102.418L255.998 217.275L370.854 102.419C377.004 96.2691 377.004 86.2971 370.854 80.1471C364.704 73.9971 354.732 73.9971 348.582 80.1471L266.568 162.161C260.73 167.998 251.267 167.998 245.43 162.16Z" fill="url(#paint34_linear_360_3)"/>
<path d="M141.142 80.3328L243.904 183.095C250.583 189.774 261.413 189.774 268.092 183.095L370.853 80.3328C370.883 80.3027 370.907 80.2696 370.938 80.2395C370.908 80.2093 370.883 80.1762 370.853 80.1461C364.703 73.9961 354.731 73.9961 348.581 80.1461L266.567 162.16C260.73 167.997 251.266 167.997 245.429 162.16L163.415 80.1461C157.265 73.9961 147.293 73.9961 141.143 80.1461C141.113 80.1762 141.089 80.2093 141.059 80.2395C141.088 80.2696 141.112 80.3027 141.142 80.3328Z" fill="url(#paint35_linear_360_3)"/>
<path d="M255.999 217.275L337.074 136.199H292.529L266.567 162.161C260.73 167.998 251.266 167.998 245.429 162.161L219.467 136.199H174.922L255.999 217.275Z" fill="url(#paint36_linear_360_3)"/>
<path d="M245.959 207.236L255.998 217.275L358.826 114.447H314.281L266.568 162.16C260.9 167.828 251.826 167.975 245.959 162.639V207.236Z" fill="url(#paint37_linear_360_3)"/>
<path d="M255.999 228.39C276.789 228.39 293.644 211.536 293.644 190.745C293.644 169.954 276.789 153.1 255.999 153.1C235.208 153.1 218.354 169.954 218.354 190.745C218.354 211.536 235.208 228.39 255.999 228.39Z" fill="url(#paint38_linear_360_3)"/>
<path d="M255.998 212.327C267.918 212.327 277.581 202.665 277.581 190.745C277.581 178.826 267.918 169.163 255.998 169.163C244.079 169.163 234.416 178.826 234.416 190.745C234.416 202.665 244.079 212.327 255.998 212.327Z" fill="url(#paint39_linear_360_3)"/>
<path d="M366.933 37.4794H145.063C138.688 37.4794 133.52 32.3112 133.52 25.9363V11.5431C133.52 5.16819 138.688 0 145.063 0H366.934C373.308 0 378.476 5.16819 378.476 11.5431V25.9373C378.476 32.3122 373.308 37.4794 366.933 37.4794Z" fill="url(#paint40_linear_360_3)"/>
<defs>
<linearGradient id="paint0_linear_360_3" x1="73.0062" y1="364.861" x2="106.136" y2="410.54" gradientUnits="userSpaceOnUse">
<stop stop-color="#FEF0AE"/>
<stop offset="1" stop-color="#FBC56D"/>
</linearGradient>
<linearGradient id="paint1_linear_360_3" x1="69.9894" y1="394.157" x2="122.193" y2="418.251" gradientUnits="userSpaceOnUse">
<stop stop-color="#DC8758" stop-opacity="0"/>
<stop offset="0.996" stop-color="#DC8758" stop-opacity="0.996"/>
<stop offset="1" stop-color="#DC8758"/>
</linearGradient>
<linearGradient id="paint2_linear_360_3" x1="39.0248" y1="325.925" x2="93.7385" y2="366.584" gradientUnits="userSpaceOnUse">
<stop stop-color="#FEF0AE"/>
<stop offset="1" stop-color="#FBC56D"/>
</linearGradient>
<linearGradient id="paint3_linear_360_3" x1="61.9624" y1="371.404" x2="103.458" y2="370.735" gradientUnits="userSpaceOnUse">
<stop stop-color="#DC8758" stop-opacity="0"/>
<stop offset="0.996" stop-color="#DC8758" stop-opacity="0.996"/>
<stop offset="1" stop-color="#DC8758"/>
</linearGradient>
<linearGradient id="paint4_linear_360_3" x1="148.943" y1="232.395" x2="136.394" y2="290.12" gradientUnits="userSpaceOnUse">
<stop stop-color="#FEF0AE"/>
<stop offset="1" stop-color="#FBC56D"/>
</linearGradient>
<linearGradient id="paint5_linear_360_3" x1="94.7167" y1="238.209" x2="126.842" y2="271.003" gradientUnits="userSpaceOnUse">
<stop stop-color="#DC8758" stop-opacity="0"/>
<stop offset="0.996" stop-color="#DC8758" stop-opacity="0.996"/>
<stop offset="1" stop-color="#DC8758"/>
</linearGradient>
<linearGradient id="paint6_linear_360_3" x1="75.4224" y1="246.261" x2="103.03" y2="332.598" gradientUnits="userSpaceOnUse">
<stop stop-color="#FEF0AE"/>
<stop offset="1" stop-color="#FBC56D"/>
</linearGradient>
<linearGradient id="paint7_linear_360_3" x1="80.9852" y1="293.274" x2="116.457" y2="324.061" gradientUnits="userSpaceOnUse">
<stop stop-color="#DC8758" stop-opacity="0"/>
<stop offset="0.996" stop-color="#DC8758" stop-opacity="0.996"/>
<stop offset="1" stop-color="#DC8758"/>
</linearGradient>
<linearGradient id="paint8_linear_360_3" x1="438.991" y1="364.861" x2="405.861" y2="410.54" gradientUnits="userSpaceOnUse">
<stop stop-color="#FEF0AE"/>
<stop offset="1" stop-color="#FBC56D"/>
</linearGradient>
<linearGradient id="paint9_linear_360_3" x1="442.009" y1="394.157" x2="389.805" y2="418.251" gradientUnits="userSpaceOnUse">
<stop stop-color="#DC8758" stop-opacity="0"/>
<stop offset="0.996" stop-color="#DC8758" stop-opacity="0.996"/>
<stop offset="1" stop-color="#DC8758"/>
</linearGradient>
<linearGradient id="paint10_linear_360_3" x1="472.973" y1="325.925" x2="418.26" y2="366.584" gradientUnits="userSpaceOnUse">
<stop stop-color="#FEF0AE"/>
<stop offset="1" stop-color="#FBC56D"/>
</linearGradient>
<linearGradient id="paint11_linear_360_3" x1="450.036" y1="371.404" x2="408.541" y2="370.735" gradientUnits="userSpaceOnUse">
<stop stop-color="#DC8758" stop-opacity="0"/>
<stop offset="0.996" stop-color="#DC8758" stop-opacity="0.996"/>
<stop offset="1" stop-color="#DC8758"/>
</linearGradient>
<linearGradient id="paint12_linear_360_3" x1="363.054" y1="232.395" x2="375.604" y2="290.12" gradientUnits="userSpaceOnUse">
<stop stop-color="#FEF0AE"/>
<stop offset="1" stop-color="#FBC56D"/>
</linearGradient>
<linearGradient id="paint13_linear_360_3" x1="417.28" y1="238.209" x2="385.155" y2="271.003" gradientUnits="userSpaceOnUse">
<stop stop-color="#DC8758" stop-opacity="0"/>
<stop offset="0.996" stop-color="#DC8758" stop-opacity="0.996"/>
<stop offset="1" stop-color="#DC8758"/>
</linearGradient>
<linearGradient id="paint14_linear_360_3" x1="436.577" y1="246.261" x2="408.969" y2="332.598" gradientUnits="userSpaceOnUse">
<stop stop-color="#FEF0AE"/>
<stop offset="1" stop-color="#FBC56D"/>
</linearGradient>
<linearGradient id="paint15_linear_360_3" x1="431.013" y1="293.274" x2="395.542" y2="324.061" gradientUnits="userSpaceOnUse">
<stop stop-color="#DC8758" stop-opacity="0"/>
<stop offset="0.996" stop-color="#DC8758" stop-opacity="0.996"/>
<stop offset="1" stop-color="#DC8758"/>
</linearGradient>
<linearGradient id="paint16_linear_360_3" x1="157.569" y1="253.92" x2="325.942" y2="422.294" gradientUnits="userSpaceOnUse">
<stop stop-color="#FEF0AE"/>
<stop offset="1" stop-color="#FBC56D"/>
</linearGradient>
<linearGradient id="paint17_linear_360_3" x1="338.647" y1="434.999" x2="170.938" y2="267.29" gradientUnits="userSpaceOnUse">
<stop stop-color="#FEF0AE"/>
<stop offset="1" stop-color="#FBC56D"/>
</linearGradient>
<linearGradient id="paint18_linear_360_3" x1="176.579" y1="272.931" x2="307.307" y2="403.659" gradientUnits="userSpaceOnUse">
<stop stop-color="#FEF0AE"/>
<stop offset="1" stop-color="#FBC56D"/>
</linearGradient>
<linearGradient id="paint19_linear_360_3" x1="255.999" y1="399.061" x2="255.999" y2="503.85" gradientUnits="userSpaceOnUse">
<stop stop-color="#DC8758" stop-opacity="0"/>
<stop offset="0.996" stop-color="#DC8758" stop-opacity="0.996"/>
<stop offset="1" stop-color="#DC8758"/>
</linearGradient>
<linearGradient id="paint20_linear_360_3" x1="351.616" y1="435.32" x2="219.767" y2="352.329" gradientUnits="userSpaceOnUse">
<stop stop-color="#DC8758" stop-opacity="0"/>
<stop offset="0.996" stop-color="#DC8758" stop-opacity="0.996"/>
<stop offset="1" stop-color="#DC8758"/>
</linearGradient>
<linearGradient id="paint21_linear_360_3" x1="222.743" y1="322.005" x2="282.713" y2="381.974" gradientUnits="userSpaceOnUse">
<stop stop-color="#FBC56D"/>
<stop offset="1" stop-color="#C5715A"/>
</linearGradient>
<linearGradient id="paint22_linear_360_3" x1="291.931" y1="338.356" x2="209.045" y2="372.622" gradientUnits="userSpaceOnUse">
<stop stop-color="#8C3D27" stop-opacity="0"/>
<stop offset="1" stop-color="#8C3D27"/>
</linearGradient>
<linearGradient id="paint23_linear_360_3" x1="270.29" y1="367.771" x2="224.91" y2="348.322" gradientUnits="userSpaceOnUse">
<stop stop-color="#8C3D27" stop-opacity="0"/>
<stop offset="1" stop-color="#8C3D27"/>
</linearGradient>
<linearGradient id="paint24_linear_360_3" x1="241.707" y1="367.771" x2="287.086" y2="348.322" gradientUnits="userSpaceOnUse">
<stop stop-color="#8C3D27" stop-opacity="0"/>
<stop offset="1" stop-color="#8C3D27"/>
</linearGradient>
<linearGradient id="paint25_linear_360_3" x1="242.715" y1="370.046" x2="271.887" y2="323.162" gradientUnits="userSpaceOnUse">
<stop stop-color="#8C3D27" stop-opacity="0"/>
<stop offset="1" stop-color="#8C3D27"/>
</linearGradient>
<linearGradient id="paint26_linear_360_3" x1="267.045" y1="364.125" x2="264.614" y2="318.283" gradientUnits="userSpaceOnUse">
<stop stop-color="#8C3D27" stop-opacity="0"/>
<stop offset="1" stop-color="#8C3D27"/>
</linearGradient>
<linearGradient id="paint27_linear_360_3" x1="334.669" y1="284.905" x2="273.096" y2="177.151" gradientUnits="userSpaceOnUse">
<stop stop-color="#DC8758" stop-opacity="0"/>
<stop offset="0.996" stop-color="#DC8758" stop-opacity="0.996"/>
<stop offset="1" stop-color="#DC8758"/>
</linearGradient>
<linearGradient id="paint28_linear_360_3" x1="263.137" y1="56.8983" x2="302.792" y2="120.145" gradientUnits="userSpaceOnUse">
<stop stop-color="#F9F5F3"/>
<stop offset="1" stop-color="#D8E8F0"/>
</linearGradient>
<linearGradient id="paint29_linear_360_3" x1="223.584" y1="-20.7009" x2="346.732" y2="120.517" gradientUnits="userSpaceOnUse">
<stop stop-color="#FD4755"/>
<stop offset="1" stop-color="#A72B2B"/>
</linearGradient>
<linearGradient id="paint30_linear_360_3" x1="255.998" y1="66.7608" x2="255.998" y2="33.5972" gradientUnits="userSpaceOnUse">
<stop stop-color="#A72B2B" stop-opacity="0"/>
<stop offset="1" stop-color="#42210B"/>
</linearGradient>
<linearGradient id="paint31_linear_360_3" x1="197.424" y1="2.11225" x2="320.571" y2="143.33" gradientUnits="userSpaceOnUse">
<stop stop-color="#FD4755"/>
<stop offset="1" stop-color="#A72B2B"/>
</linearGradient>
<linearGradient id="paint32_linear_360_3" x1="294.142" y1="107.425" x2="311.279" y2="124.562" gradientUnits="userSpaceOnUse">
<stop stop-color="#A72B2B" stop-opacity="0"/>
<stop offset="1" stop-color="#42210B"/>
</linearGradient>
<linearGradient id="paint33_linear_360_3" x1="217.854" y1="107.425" x2="200.717" y2="124.562" gradientUnits="userSpaceOnUse">
<stop stop-color="#A72B2B" stop-opacity="0"/>
<stop offset="1" stop-color="#42210B"/>
</linearGradient>
<linearGradient id="paint34_linear_360_3" x1="343.024" y1="178.309" x2="137.16" y2="-27.5556" gradientUnits="userSpaceOnUse">
<stop stop-color="#FEF0AE"/>
<stop offset="1" stop-color="#FBC56D"/>
</linearGradient>
<linearGradient id="paint35_linear_360_3" x1="255.998" y1="81.9873" x2="255.998" y2="222.575" gradientUnits="userSpaceOnUse">
<stop stop-color="#FEF0AE"/>
<stop offset="1" stop-color="#FBC56D"/>
</linearGradient>
<linearGradient id="paint36_linear_360_3" x1="255.999" y1="163.639" x2="255.999" y2="209.864" gradientUnits="userSpaceOnUse">
<stop stop-color="#DC8758" stop-opacity="0"/>
<stop offset="0.996" stop-color="#DC8758" stop-opacity="0.996"/>
<stop offset="1" stop-color="#DC8758"/>
</linearGradient>
<linearGradient id="paint37_linear_360_3" x1="303.451" y1="137.466" x2="275.341" y2="166.078" gradientUnits="userSpaceOnUse">
<stop stop-color="#DC8758" stop-opacity="0"/>
<stop offset="0.996" stop-color="#DC8758" stop-opacity="0.996"/>
<stop offset="1" stop-color="#DC8758"/>
</linearGradient>
<linearGradient id="paint38_linear_360_3" x1="234.414" y1="169.161" x2="287.652" y2="222.399" gradientUnits="userSpaceOnUse">
<stop stop-color="#FBC56D"/>
<stop offset="1" stop-color="#C5715A"/>
</linearGradient>
<linearGradient id="paint39_linear_360_3" x1="277.081" y1="211.827" x2="227.209" y2="161.956" gradientUnits="userSpaceOnUse">
<stop stop-color="#FBC56D"/>
<stop offset="1" stop-color="#C5715A"/>
</linearGradient>
<linearGradient id="paint40_linear_360_3" x1="255.998" y1="11.3774" x2="255.998" y2="32.2972" gradientUnits="userSpaceOnUse">
<stop stop-color="#FEF0AE"/>
<stop offset="1" stop-color="#FBC56D"/>
</linearGradient>
</defs>
</svg>
