<svg width="430" height="512" viewBox="0 0 430 512" fill="none" xmlns="http://www.w3.org/2000/svg">
<path d="M80.3092 378.107C105.666 388.516 125.73 405.304 138.026 424.333C140.601 428.317 136.718 437.776 132.085 438.803C109.966 443.703 83.8942 441.554 58.5371 431.144C33.1801 420.734 13.1167 403.947 0.820658 384.919C-1.7544 380.934 2.12877 371.474 6.76086 370.448C28.8793 365.548 54.9521 367.698 80.3092 378.107Z" fill="url(#paint0_linear_360_46)"/>
<path d="M80.3092 378.107C105.666 388.516 125.73 405.304 138.026 424.333C140.601 428.317 136.718 437.776 132.085 438.803C109.966 443.703 83.8942 441.554 58.5371 431.144C33.1801 420.734 13.1167 403.947 0.820658 384.919C-1.7544 380.934 2.12877 371.474 6.76086 370.448C28.8793 365.548 54.9521 367.698 80.3092 378.107Z" fill="url(#paint1_linear_360_46)"/>
<path d="M93.2053 342.151C118.038 361.832 134.948 386.905 142.515 411.979C144.099 417.231 136.757 426.494 131.283 426.151C105.144 424.511 76.8715 413.774 52.0385 394.092C27.2055 374.411 10.2954 349.338 2.72886 324.264C1.14468 319.012 8.48636 309.749 13.9607 310.092C40.0998 311.733 68.3723 322.469 93.2053 342.151Z" fill="url(#paint2_linear_360_46)"/>
<path d="M93.2053 342.151C118.038 361.832 134.948 386.905 142.515 411.979C144.099 417.231 136.757 426.494 131.283 426.151C105.144 424.511 76.8715 413.774 52.0385 394.092C27.2055 374.411 10.2954 349.338 2.72886 324.264C1.14468 319.012 8.48636 309.749 13.9607 310.092C40.0998 311.733 68.3723 322.469 93.2053 342.151Z" fill="url(#paint3_linear_360_46)"/>
<path d="M118.274 286.742C140.033 320.142 150.186 356.807 149.194 389.739C148.987 396.636 136.527 404.753 130.135 402.157C99.6097 389.758 70.1737 365.654 48.4147 332.255C26.6557 298.855 16.502 262.19 17.4939 229.258C17.7017 222.361 30.1614 214.244 36.5533 216.84C67.0786 229.24 96.5146 253.343 118.274 286.742Z" fill="url(#paint4_linear_360_46)"/>
<path d="M21.2051 267.97C25.8793 289.541 34.9086 311.526 48.4134 332.255C70.1724 365.654 99.6073 389.758 130.134 402.157C136.527 404.754 148.985 396.636 149.193 389.739C150.186 356.807 140.032 320.142 118.272 286.742C105.459 267.075 89.9837 250.635 73.1922 237.906L21.2051 267.97Z" fill="url(#paint5_linear_360_46)"/>
<path d="M348.707 378.107C323.35 388.516 303.287 405.304 290.991 424.333C288.416 428.317 292.299 437.776 296.931 438.803C319.05 443.703 345.122 441.554 370.479 431.144C395.836 420.734 415.9 403.947 428.196 384.919C430.771 380.934 426.887 371.474 422.255 370.448C400.137 365.548 374.064 367.698 348.707 378.107Z" fill="url(#paint6_linear_360_46)"/>
<path d="M348.707 378.107C323.35 388.516 303.287 405.304 290.991 424.333C288.416 428.317 292.299 437.776 296.931 438.803C319.05 443.703 345.122 441.554 370.479 431.144C395.836 420.734 415.9 403.947 428.196 384.919C430.771 380.934 426.887 371.474 422.255 370.448C400.137 365.548 374.064 367.698 348.707 378.107Z" fill="url(#paint7_linear_360_46)"/>
<path d="M335.812 342.151C310.979 361.832 294.069 386.905 286.502 411.979C284.918 417.231 292.26 426.494 297.734 426.151C323.873 424.511 352.146 413.774 376.979 394.092C401.812 374.411 418.722 349.338 426.288 324.264C427.873 319.012 420.531 309.749 415.056 310.092C388.917 311.733 360.645 322.469 335.812 342.151Z" fill="url(#paint8_linear_360_46)"/>
<path d="M335.812 342.151C310.979 361.832 294.069 386.905 286.502 411.979C284.918 417.231 292.26 426.494 297.734 426.151C323.873 424.511 352.146 413.774 376.979 394.092C401.812 374.411 418.722 349.338 426.288 324.264C427.873 319.012 420.531 309.749 415.056 310.092C388.917 311.733 360.645 322.469 335.812 342.151Z" fill="url(#paint9_linear_360_46)"/>
<path d="M310.743 286.742C288.984 320.142 278.83 356.807 279.822 389.739C280.03 396.636 292.49 404.753 298.881 402.157C329.407 389.758 358.843 365.654 380.602 332.255C402.361 298.855 412.514 262.19 411.522 229.258C411.315 222.361 398.855 214.244 392.463 216.84C361.938 229.24 332.502 253.343 310.743 286.742Z" fill="url(#paint10_linear_360_46)"/>
<path d="M407.812 267.97C403.138 289.541 394.109 311.526 380.604 332.255C358.845 365.654 329.41 389.758 298.884 402.157C292.491 404.754 280.032 396.636 279.824 389.739C278.831 356.807 288.985 320.142 310.745 286.742C323.558 267.075 339.033 250.635 355.825 237.906L407.812 267.97Z" fill="url(#paint11_linear_360_46)"/>
<path d="M214.509 512C302.681 512 374.159 440.522 374.159 352.35C374.159 264.178 302.681 192.701 214.509 192.701C126.337 192.701 54.8594 264.178 54.8594 352.35C54.8594 440.522 126.337 512 214.509 512Z" fill="url(#paint12_linear_360_46)"/>
<path d="M214.508 479.602C284.787 479.602 341.76 422.63 341.76 352.35C341.76 282.071 284.787 225.098 214.508 225.098C144.229 225.098 87.2559 282.071 87.2559 352.35C87.2559 422.63 144.229 479.602 214.508 479.602Z" fill="url(#paint13_linear_360_46)"/>
<path d="M214.508 461.597C274.844 461.597 323.755 412.686 323.755 352.35C323.755 292.015 274.844 243.104 214.508 243.104C154.173 243.104 105.262 292.015 105.262 352.35C105.262 412.686 154.173 461.597 214.508 461.597Z" fill="url(#paint14_linear_360_46)"/>
<path d="M54.8594 352.35C54.8594 440.523 126.337 512 214.509 512C302.681 512 374.159 440.523 374.159 352.35C374.159 351.731 374.143 351.115 374.136 350.497H54.8825C54.8754 351.115 54.8594 351.731 54.8594 352.35Z" fill="url(#paint15_linear_360_46)"/>
<path d="M259.285 505.625C309.59 490.954 349.621 452.197 366.058 402.671L288.301 324.914L270.772 325.775L223.461 278.464L165.801 412.141L259.285 505.625Z" fill="url(#paint16_linear_360_46)"/>
<path d="M279.972 317.66L248.663 310.095C245.75 309.391 243.205 307.626 241.526 305.144L223.478 278.465C221.294 275.238 217.95 273.506 214.509 273.227C211.067 273.506 207.722 275.238 205.539 278.465L187.491 305.144C185.812 307.626 183.267 309.392 180.354 310.095L149.045 317.66C140.552 319.712 137.013 329.848 142.382 336.741L162.178 362.151C164.02 364.514 164.912 367.481 164.682 370.468L162.201 402.583C161.529 411.294 170.075 417.793 178.29 414.815L208.573 403.841C210.473 403.156 212.514 402.962 214.509 403.275C216.503 402.963 218.544 403.157 220.444 403.841L250.727 414.815C258.941 417.792 267.488 411.294 266.816 402.583L264.335 370.468C264.104 367.48 264.998 364.515 266.839 362.151L286.635 336.741C292.004 329.848 288.465 319.712 279.972 317.66Z" fill="url(#paint17_linear_360_46)"/>
<path d="M220.443 403.841L250.726 414.815C258.94 417.792 267.488 411.294 266.815 402.583L264.334 370.468C264.104 367.48 264.997 364.515 266.838 362.151L286.635 336.741C292.005 329.849 288.465 319.712 279.972 317.66L248.662 310.095C245.75 309.391 243.205 307.626 241.525 305.144L223.477 278.465C221.293 275.238 217.949 273.506 214.508 273.227V403.275C216.502 402.962 218.544 403.156 220.443 403.841Z" fill="url(#paint18_linear_360_46)"/>
<path d="M279.971 317.66L248.662 310.095C247.602 309.838 246.582 309.438 245.63 308.906L165.816 412.142C168.948 415.168 173.671 416.49 178.289 414.816L208.572 403.841C210.472 403.157 212.513 402.963 214.508 403.276C216.502 402.963 218.543 403.158 220.443 403.841L250.726 414.816C258.94 417.793 267.488 411.295 266.815 402.584L264.334 370.469C264.103 367.481 264.997 364.516 266.838 362.152L286.634 336.742C292.003 329.848 288.465 319.712 279.971 317.66Z" fill="url(#paint19_linear_360_46)"/>
<path d="M149.045 317.66L180.354 310.095C181.414 309.838 182.434 309.438 183.386 308.906L263.2 412.142C260.069 415.168 255.345 416.49 250.727 414.816L220.444 403.841C218.544 403.157 216.503 402.963 214.509 403.276C212.514 402.963 210.473 403.158 208.573 403.841L178.29 414.816C170.076 417.793 161.529 411.295 162.201 402.584L164.682 370.469C164.913 367.481 164.019 364.516 162.178 362.152L142.382 336.742C137.013 329.848 140.552 319.712 149.045 317.66Z" fill="url(#paint20_linear_360_46)"/>
<path d="M140.71 324.915C139.222 328.67 139.579 333.144 142.381 336.741L162.177 362.151C164.019 364.514 164.912 367.481 164.681 370.468L162.2 402.583C161.528 411.294 170.074 417.793 178.289 414.815L208.572 403.84C210.472 403.156 212.513 402.962 214.508 403.275C216.502 402.963 218.543 403.157 220.443 403.84L250.726 414.815C258.94 417.792 267.488 411.294 266.815 402.583L264.334 370.468C264.211 368.825 264.427 367.174 264.97 365.618L140.71 324.915Z" fill="url(#paint21_linear_360_46)"/>
<path d="M288.318 324.915C289.806 328.67 289.45 333.144 286.647 336.741L266.851 362.151C265.009 364.514 264.116 367.481 264.347 370.468L266.828 402.583C267.5 411.294 258.953 417.793 250.739 414.815L220.456 403.84C218.556 403.156 216.515 402.962 214.52 403.275C212.526 402.963 210.485 403.157 208.585 403.84L178.302 414.815C170.088 417.792 161.54 411.294 162.213 402.583L164.694 370.468C164.817 368.825 164.601 367.174 164.058 365.618L288.318 324.915Z" fill="url(#paint22_linear_360_46)"/>
<path d="M214.508 192.701C213.845 192.701 213.187 192.718 212.527 192.726L187.889 217.364L367.752 397.228C372.01 382.649 374.167 367.537 374.157 352.349C374.157 264.178 302.68 192.701 214.508 192.701Z" fill="url(#paint23_linear_360_46)"/>
<path d="M118.133 3.34607V87.6755L214.509 184.052L310.886 87.6755V3.34607H118.133Z" fill="url(#paint24_linear_360_46)"/>
<path d="M118.133 3.34607V29.5906L214.187 125.645C214.273 125.73 214.388 125.778 214.509 125.778C214.63 125.778 214.746 125.73 214.832 125.645L310.886 29.5906V3.34607H118.133Z" fill="url(#paint25_linear_360_46)"/>
<path d="M118.133 3.34607V29.5906L214.187 125.645C214.273 125.73 214.388 125.778 214.509 125.778C214.63 125.778 214.746 125.73 214.832 125.645L310.886 29.5906V3.34607H118.133Z" fill="url(#paint26_linear_360_46)"/>
<path d="M214.509 140.83C212.472 140.834 210.454 140.435 208.572 139.657C206.689 138.878 204.979 137.735 203.539 136.293L118.133 50.8868V87.6765L214.509 184.053L310.886 87.6765V50.8868L225.479 136.293C224.04 137.735 222.329 138.878 220.447 139.656C218.564 140.435 216.546 140.834 214.509 140.83Z" fill="url(#paint27_linear_360_46)"/>
<path d="M214.509 140.83C212.472 140.834 210.454 140.435 208.572 139.657C206.689 138.878 204.979 137.735 203.539 136.293L118.133 50.8868V87.6765L214.509 184.053L310.886 87.6765V50.8868L225.479 136.293C224.04 137.735 222.329 138.878 220.447 139.656C218.564 140.435 216.546 140.834 214.509 140.83Z" fill="url(#paint28_linear_360_46)"/>
<path d="M214.509 140.83C218.483 140.83 222.455 139.318 225.479 136.293L310.886 50.8868V87.6765L214.509 184.053L118.133 87.6765V50.8868L203.539 136.293C204.979 137.735 206.689 138.877 208.572 139.656C210.454 140.435 212.472 140.834 214.509 140.83Z" fill="url(#paint29_linear_360_46)"/>
<path d="M203.94 162.16L121.926 80.1461C115.776 73.9961 105.804 73.9961 99.6535 80.1461C93.5035 86.2961 93.5035 96.2681 99.6535 102.418L214.508 217.275L329.364 102.419C335.514 96.2691 335.514 86.2971 329.364 80.1471C323.214 73.9971 313.242 73.9971 307.092 80.1471L225.077 162.161C219.24 167.998 209.777 167.998 203.94 162.16Z" fill="url(#paint30_linear_360_46)"/>
<path d="M99.6536 80.3328L202.416 183.095C209.095 189.774 219.924 189.774 226.604 183.095L329.365 80.3328C329.395 80.3027 329.419 80.2696 329.449 80.2395C329.42 80.2093 329.395 80.1762 329.365 80.1461C323.215 73.9961 313.243 73.9961 307.093 80.1461L225.079 162.16C219.242 167.997 209.778 167.997 203.941 162.16L121.927 80.1461C115.777 73.9961 105.805 73.9961 99.6546 80.1461C99.6245 80.1762 99.6004 80.2093 99.5703 80.2395C99.5994 80.2696 99.6235 80.3027 99.6536 80.3328Z" fill="url(#paint31_linear_360_46)"/>
<path d="M214.508 217.275L295.584 136.199H251.039L225.077 162.161C219.24 167.998 209.776 167.998 203.939 162.161L177.977 136.199H133.432L214.508 217.275Z" fill="url(#paint32_linear_360_46)"/>
<path d="M204.469 207.236L214.508 217.275L317.336 114.447H272.791L225.077 162.16C219.41 167.828 210.336 167.975 204.469 162.639V207.236Z" fill="url(#paint33_linear_360_46)"/>
<path d="M214.508 228.39C235.299 228.39 252.153 211.536 252.153 190.745C252.153 169.954 235.299 153.1 214.508 153.1C193.718 153.1 176.863 169.954 176.863 190.745C176.863 211.536 193.718 228.39 214.508 228.39Z" fill="url(#paint34_linear_360_46)"/>
<path d="M214.508 212.327C226.428 212.327 236.09 202.665 236.09 190.745C236.09 178.826 226.428 169.163 214.508 169.163C202.589 169.163 192.926 178.826 192.926 190.745C192.926 202.665 202.589 212.327 214.508 212.327Z" fill="url(#paint35_linear_360_46)"/>
<path d="M325.443 37.4794H103.572C97.1975 37.4794 92.0293 32.3112 92.0293 25.9363V11.5431C92.0293 5.16819 97.1975 0 103.572 0H325.444C331.818 0 336.986 5.16819 336.986 11.5431V25.9373C336.986 32.3122 331.818 37.4794 325.443 37.4794Z" fill="url(#paint36_linear_360_46)"/>
<defs>
<linearGradient id="paint0_linear_360_46" x1="51.117" y1="356.791" x2="69.2542" y2="404.107" gradientUnits="userSpaceOnUse">
<stop stop-color="#E6E6E6"/>
<stop offset="1" stop-color="#999999"/>
</linearGradient>
<linearGradient id="paint1_linear_360_46" x1="41.6995" y1="381.504" x2="81.3945" y2="414.524" gradientUnits="userSpaceOnUse">
<stop stop-color="#766E6E" stop-opacity="0"/>
<stop offset="0.281" stop-color="#716B6B" stop-opacity="0.281"/>
<stop offset="0.571" stop-color="#656060" stop-opacity="0.571"/>
<stop offset="0.864" stop-color="#514F4F" stop-opacity="0.864"/>
<stop offset="1" stop-color="#444444"/>
</linearGradient>
<linearGradient id="paint2_linear_360_46" x1="30.6749" y1="315.125" x2="68.7022" y2="363.097" gradientUnits="userSpaceOnUse">
<stop stop-color="#E6E6E6"/>
<stop offset="1" stop-color="#999999"/>
</linearGradient>
<linearGradient id="paint3_linear_360_46" x1="40.0166" y1="359.902" x2="76.1702" y2="368.954" gradientUnits="userSpaceOnUse">
<stop stop-color="#766E6E" stop-opacity="0"/>
<stop offset="0.281" stop-color="#716B6B" stop-opacity="0.281"/>
<stop offset="0.571" stop-color="#656060" stop-opacity="0.571"/>
<stop offset="0.864" stop-color="#514F4F" stop-opacity="0.864"/>
<stop offset="1" stop-color="#444444"/>
</linearGradient>
<linearGradient id="paint4_linear_360_46" x1="80.7433" y1="254.463" x2="84.6525" y2="335.771" gradientUnits="userSpaceOnUse">
<stop stop-color="#E6E6E6"/>
<stop offset="1" stop-color="#999999"/>
</linearGradient>
<linearGradient id="paint5_linear_360_46" x1="74.6559" y1="296.539" x2="98.2823" y2="331.481" gradientUnits="userSpaceOnUse">
<stop stop-color="#766E6E" stop-opacity="0"/>
<stop offset="0.281" stop-color="#716B6B" stop-opacity="0.281"/>
<stop offset="0.571" stop-color="#656060" stop-opacity="0.571"/>
<stop offset="0.864" stop-color="#514F4F" stop-opacity="0.864"/>
<stop offset="1" stop-color="#444444"/>
</linearGradient>
<linearGradient id="paint6_linear_360_46" x1="377.93" y1="356.759" x2="359.773" y2="404.061" gradientUnits="userSpaceOnUse">
<stop stop-color="#E6E6E6"/>
<stop offset="1" stop-color="#999999"/>
</linearGradient>
<linearGradient id="paint7_linear_360_46" x1="387.336" y1="381.473" x2="347.631" y2="414.47" gradientUnits="userSpaceOnUse">
<stop stop-color="#766E6E" stop-opacity="0"/>
<stop offset="0.281" stop-color="#716B6B" stop-opacity="0.281"/>
<stop offset="0.571" stop-color="#656060" stop-opacity="0.571"/>
<stop offset="0.864" stop-color="#514F4F" stop-opacity="0.864"/>
<stop offset="1" stop-color="#444444"/>
</linearGradient>
<linearGradient id="paint8_linear_360_46" x1="398.39" y1="315.108" x2="360.345" y2="363.057" gradientUnits="userSpaceOnUse">
<stop stop-color="#E6E6E6"/>
<stop offset="1" stop-color="#999999"/>
</linearGradient>
<linearGradient id="paint9_linear_360_46" x1="389.028" y1="359.875" x2="352.876" y2="368.909" gradientUnits="userSpaceOnUse">
<stop stop-color="#766E6E" stop-opacity="0"/>
<stop offset="0.281" stop-color="#716B6B" stop-opacity="0.281"/>
<stop offset="0.571" stop-color="#656060" stop-opacity="0.571"/>
<stop offset="0.864" stop-color="#514F4F" stop-opacity="0.864"/>
<stop offset="1" stop-color="#444444"/>
</linearGradient>
<linearGradient id="paint10_linear_360_46" x1="348.355" y1="254.432" x2="344.409" y2="335.727" gradientUnits="userSpaceOnUse">
<stop stop-color="#E6E6E6"/>
<stop offset="1" stop-color="#999999"/>
</linearGradient>
<linearGradient id="paint11_linear_360_46" x1="354.423" y1="296.504" x2="330.785" y2="331.431" gradientUnits="userSpaceOnUse">
<stop stop-color="#766E6E" stop-opacity="0"/>
<stop offset="0.281" stop-color="#716B6B" stop-opacity="0.281"/>
<stop offset="0.571" stop-color="#656060" stop-opacity="0.571"/>
<stop offset="0.864" stop-color="#514F4F" stop-opacity="0.864"/>
<stop offset="1" stop-color="#444444"/>
</linearGradient>
<linearGradient id="paint12_linear_360_46" x1="116.079" y1="253.92" x2="284.452" y2="422.294" gradientUnits="userSpaceOnUse">
<stop stop-color="#E6E6E6"/>
<stop offset="1" stop-color="#999999"/>
</linearGradient>
<linearGradient id="paint13_linear_360_46" x1="297.157" y1="434.999" x2="129.448" y2="267.29" gradientUnits="userSpaceOnUse">
<stop stop-color="#E6E6E6"/>
<stop offset="1" stop-color="#999999"/>
</linearGradient>
<linearGradient id="paint14_linear_360_46" x1="135.089" y1="272.931" x2="265.817" y2="403.659" gradientUnits="userSpaceOnUse">
<stop stop-color="#E6E6E6"/>
<stop offset="1" stop-color="#999999"/>
</linearGradient>
<linearGradient id="paint15_linear_360_46" x1="214.509" y1="399.061" x2="214.509" y2="503.85" gradientUnits="userSpaceOnUse">
<stop stop-color="#766E6E" stop-opacity="0"/>
<stop offset="0.281" stop-color="#716B6B" stop-opacity="0.281"/>
<stop offset="0.571" stop-color="#656060" stop-opacity="0.571"/>
<stop offset="0.864" stop-color="#514F4F" stop-opacity="0.864"/>
<stop offset="1" stop-color="#444444"/>
</linearGradient>
<linearGradient id="paint16_linear_360_46" x1="310.126" y1="435.32" x2="178.277" y2="352.329" gradientUnits="userSpaceOnUse">
<stop stop-color="#766E6E" stop-opacity="0"/>
<stop offset="0.281" stop-color="#716B6B" stop-opacity="0.281"/>
<stop offset="0.571" stop-color="#656060" stop-opacity="0.571"/>
<stop offset="0.864" stop-color="#514F4F" stop-opacity="0.864"/>
<stop offset="1" stop-color="#444444"/>
</linearGradient>
<linearGradient id="paint17_linear_360_46" x1="181.253" y1="322.005" x2="241.223" y2="381.974" gradientUnits="userSpaceOnUse">
<stop stop-color="#F9F5F3"/>
<stop offset="1" stop-color="#D8E8F0"/>
</linearGradient>
<linearGradient id="paint18_linear_360_46" x1="250.441" y1="338.356" x2="167.554" y2="372.622" gradientUnits="userSpaceOnUse">
<stop stop-color="#678D98" stop-opacity="0"/>
<stop offset="0.996" stop-color="#678D98" stop-opacity="0.996"/>
<stop offset="1" stop-color="#678D98"/>
</linearGradient>
<linearGradient id="paint19_linear_360_46" x1="228.799" y1="367.771" x2="183.42" y2="348.322" gradientUnits="userSpaceOnUse">
<stop stop-color="#678D98" stop-opacity="0"/>
<stop offset="0.996" stop-color="#678D98" stop-opacity="0.996"/>
<stop offset="1" stop-color="#678D98"/>
</linearGradient>
<linearGradient id="paint20_linear_360_46" x1="200.217" y1="367.771" x2="245.596" y2="348.322" gradientUnits="userSpaceOnUse">
<stop stop-color="#678D98" stop-opacity="0"/>
<stop offset="0.996" stop-color="#678D98" stop-opacity="0.996"/>
<stop offset="1" stop-color="#678D98"/>
</linearGradient>
<linearGradient id="paint21_linear_360_46" x1="201.225" y1="370.046" x2="230.397" y2="323.162" gradientUnits="userSpaceOnUse">
<stop stop-color="#678D98" stop-opacity="0"/>
<stop offset="0.996" stop-color="#678D98" stop-opacity="0.996"/>
<stop offset="1" stop-color="#678D98"/>
</linearGradient>
<linearGradient id="paint22_linear_360_46" x1="225.554" y1="364.125" x2="223.124" y2="318.283" gradientUnits="userSpaceOnUse">
<stop stop-color="#678D98" stop-opacity="0"/>
<stop offset="0.996" stop-color="#678D98" stop-opacity="0.996"/>
<stop offset="1" stop-color="#678D98"/>
</linearGradient>
<linearGradient id="paint23_linear_360_46" x1="293.179" y1="284.905" x2="231.605" y2="177.151" gradientUnits="userSpaceOnUse">
<stop stop-color="#766E6E" stop-opacity="0"/>
<stop offset="0.281" stop-color="#716B6B" stop-opacity="0.281"/>
<stop offset="0.571" stop-color="#656060" stop-opacity="0.571"/>
<stop offset="0.864" stop-color="#514F4F" stop-opacity="0.864"/>
<stop offset="1" stop-color="#444444"/>
</linearGradient>
<linearGradient id="paint24_linear_360_46" x1="221.649" y1="56.8983" x2="261.304" y2="120.145" gradientUnits="userSpaceOnUse">
<stop stop-color="#F9F5F3"/>
<stop offset="1" stop-color="#D8E8F0"/>
</linearGradient>
<linearGradient id="paint25_linear_360_46" x1="182.096" y1="-20.7009" x2="305.244" y2="120.517" gradientUnits="userSpaceOnUse">
<stop stop-color="#B3DAFE"/>
<stop offset="1" stop-color="#0182FC"/>
</linearGradient>
<linearGradient id="paint26_linear_360_46" x1="214.509" y1="66.7608" x2="214.509" y2="33.5972" gradientUnits="userSpaceOnUse">
<stop stop-color="#0182FC" stop-opacity="0"/>
<stop offset="0.126" stop-color="#017FF3" stop-opacity="0.126"/>
<stop offset="0.331" stop-color="#0176DB" stop-opacity="0.331"/>
<stop offset="0.588" stop-color="#0268B4" stop-opacity="0.588"/>
<stop offset="0.886" stop-color="#02547E" stop-opacity="0.886"/>
<stop offset="1" stop-color="#024C67"/>
</linearGradient>
<linearGradient id="paint27_linear_360_46" x1="155.935" y1="2.11225" x2="279.083" y2="143.33" gradientUnits="userSpaceOnUse">
<stop stop-color="#B3DAFE"/>
<stop offset="1" stop-color="#0182FC"/>
</linearGradient>
<linearGradient id="paint28_linear_360_46" x1="252.653" y1="107.425" x2="269.79" y2="124.562" gradientUnits="userSpaceOnUse">
<stop stop-color="#0182FC" stop-opacity="0"/>
<stop offset="0.126" stop-color="#017FF3" stop-opacity="0.126"/>
<stop offset="0.331" stop-color="#0176DB" stop-opacity="0.331"/>
<stop offset="0.588" stop-color="#0268B4" stop-opacity="0.588"/>
<stop offset="0.886" stop-color="#02547E" stop-opacity="0.886"/>
<stop offset="1" stop-color="#024C67"/>
</linearGradient>
<linearGradient id="paint29_linear_360_46" x1="176.365" y1="107.425" x2="159.228" y2="124.562" gradientUnits="userSpaceOnUse">
<stop stop-color="#0182FC" stop-opacity="0"/>
<stop offset="0.126" stop-color="#017FF3" stop-opacity="0.126"/>
<stop offset="0.331" stop-color="#0176DB" stop-opacity="0.331"/>
<stop offset="0.588" stop-color="#0268B4" stop-opacity="0.588"/>
<stop offset="0.886" stop-color="#02547E" stop-opacity="0.886"/>
<stop offset="1" stop-color="#024C67"/>
</linearGradient>
<linearGradient id="paint30_linear_360_46" x1="301.534" y1="178.309" x2="95.67" y2="-27.5556" gradientUnits="userSpaceOnUse">
<stop stop-color="#E6E6E6"/>
<stop offset="1" stop-color="#999999"/>
</linearGradient>
<linearGradient id="paint31_linear_360_46" x1="214.509" y1="81.9873" x2="214.509" y2="222.575" gradientUnits="userSpaceOnUse">
<stop stop-color="#E6E6E6"/>
<stop offset="1" stop-color="#999999"/>
</linearGradient>
<linearGradient id="paint32_linear_360_46" x1="214.508" y1="163.639" x2="214.508" y2="209.864" gradientUnits="userSpaceOnUse">
<stop stop-color="#766E6E" stop-opacity="0"/>
<stop offset="0.281" stop-color="#716B6B" stop-opacity="0.281"/>
<stop offset="0.571" stop-color="#656060" stop-opacity="0.571"/>
<stop offset="0.864" stop-color="#514F4F" stop-opacity="0.864"/>
<stop offset="1" stop-color="#444444"/>
</linearGradient>
<linearGradient id="paint33_linear_360_46" x1="261.96" y1="137.466" x2="233.851" y2="166.078" gradientUnits="userSpaceOnUse">
<stop stop-color="#766E6E" stop-opacity="0"/>
<stop offset="0.281" stop-color="#716B6B" stop-opacity="0.281"/>
<stop offset="0.571" stop-color="#656060" stop-opacity="0.571"/>
<stop offset="0.864" stop-color="#514F4F" stop-opacity="0.864"/>
<stop offset="1" stop-color="#444444"/>
</linearGradient>
<linearGradient id="paint34_linear_360_46" x1="192.924" y1="169.161" x2="246.162" y2="222.399" gradientUnits="userSpaceOnUse">
<stop stop-color="#F9F5F3"/>
<stop offset="1" stop-color="#D8E8F0"/>
</linearGradient>
<linearGradient id="paint35_linear_360_46" x1="229.818" y1="206.055" x2="203.464" y2="179.701" gradientUnits="userSpaceOnUse">
<stop stop-color="#F9F5F3"/>
<stop offset="1" stop-color="#D8E8F0"/>
</linearGradient>
<linearGradient id="paint36_linear_360_46" x1="214.508" y1="11.3774" x2="214.508" y2="32.2972" gradientUnits="userSpaceOnUse">
<stop stop-color="#E6E6E6"/>
<stop offset="1" stop-color="#999999"/>
</linearGradient>
</defs>
</svg>
